<?xml version="1.0" encoding="UTF-8" standalone="no"?> <svg width="512" height="512" viewBox="0 0 512 512" fill="none" xmlns="http://www.w3.org/2000/svg">
<path d="M52 352C63.0457 352 72 343.046 72 332C72 320.954 63.0457 312 52 312C40.9543 312 32 320.954 32 332C32 343.046 40.9543 352 52 352Z" fill="#EA2B2D"/>
<path d="M24 352H488C488 364.73 482.943 376.939 473.941 385.941C464.939 394.943 452.73 400 440 400H72C59.2696 400 47.0606 394.943 38.0589 385.941C29.0571 376.939 24 364.73 24 352Z" fill="#C7830B"/>
<path d="M112 336C138.51 336 160 314.51 160 288C160 261.49 138.51 240 112 240C85.4903 240 64 261.49 64 288C64 314.51 85.4903 336 112 336Z" fill="#EA2B2D"/>
<path d="M248 178.834C244.108 174.422 239.075 171.169 233.455 169.431C227.834 167.693 221.843 167.538 216.141 168.983C210.438 170.429 205.244 173.418 201.13 177.623C197.015 181.828 194.14 187.086 192.819 192.819C187.573 194.023 182.718 196.534 178.704 200.119C177.812 200.044 176.911 199.997 176.004 199.997C169.504 199.997 163.158 201.976 157.811 205.671C152.463 209.367 148.368 214.603 146.07 220.683C143.772 226.763 143.38 233.399 144.946 239.707C146.512 246.016 149.962 251.698 154.837 255.997L248 178.834Z" fill="#91A666"/>
<path d="M256 160L40 352H256V160Z" fill="#F6BB92"/>
<path d="M401.091 195.845V226.883H425.922C434.154 226.883 442.049 230.153 447.87 235.974C453.691 241.795 456.961 249.69 456.961 257.922V257.922C456.961 261.998 456.158 266.034 454.599 269.8C453.039 273.566 450.753 276.988 447.87 279.87C444.988 282.752 441.566 285.039 437.8 286.599C434.034 288.158 429.998 288.961 425.922 288.961H401.091V320H425.922C442.386 320 458.176 313.46 469.818 301.818C481.46 290.176 488 274.386 488 257.922V257.922C488 249.77 486.394 241.697 483.275 234.166C480.155 226.634 475.582 219.791 469.818 214.027C464.053 208.262 457.21 203.69 449.678 200.57C442.147 197.45 434.074 195.845 425.922 195.845H401.091Z" fill="#DCDBD6"/>
<path d="M233.481 192H419.715V246.424C419.715 282.938 411.213 318.951 394.883 351.61H258.313C241.983 318.951 233.481 282.938 233.481 246.424V192Z" fill="#EAE9E4"/>
<path d="M192 296C196.418 296 200 292.418 200 288C200 283.582 196.418 280 192 280C187.582 280 184 283.582 184 288C184 292.418 187.582 296 192 296Z" fill="black"/>
<path d="M168 328C172.418 328 176 324.418 176 320C176 315.582 172.418 312 168 312C163.582 312 160 315.582 160 320C160 324.418 163.582 328 168 328Z" fill="black"/>
<path d="M200 328C204.418 328 208 324.418 208 320C208 315.582 204.418 312 200 312C195.582 312 192 315.582 192 320C192 324.418 195.582 328 200 328Z" fill="black"/>
<path d="M425.923 328C444.449 327.995 462.219 320.653 475.347 307.58C488.474 294.508 495.89 276.769 495.973 258.243C496.056 239.717 488.799 221.912 475.79 208.723C462.78 195.533 445.076 188.032 426.551 187.861C425.841 186.683 424.838 185.709 423.64 185.032C422.443 184.356 421.09 184 419.715 184H264V160C264 158.458 263.554 156.949 262.716 155.654C261.878 154.36 260.684 153.335 259.277 152.703C257.871 152.071 256.311 151.86 254.787 152.093C253.263 152.327 251.839 152.997 250.686 154.021L240.124 163.409C235.109 161.193 229.692 160.033 224.209 160.001C218.726 159.968 213.296 161.064 208.255 163.22C203.214 165.375 198.67 168.545 194.906 172.532C191.143 176.519 188.239 181.237 186.377 186.394C182.663 187.742 179.169 189.631 176.008 192H176C170.269 191.99 164.603 193.215 159.387 195.589C154.171 197.964 149.528 201.433 145.772 205.762C142.016 210.09 139.236 215.177 137.62 220.675C136.004 226.174 135.591 231.956 136.408 237.628C126.571 232.854 115.55 231.066 104.708 232.485C93.8656 233.903 83.6764 238.467 75.3987 245.612C67.1211 252.757 61.1176 262.17 58.1297 272.688C55.1418 283.207 55.3005 294.37 58.586 304.8C56.4306 304.271 54.2194 304.002 52 304C47.2737 303.991 42.6222 305.18 38.4807 307.458C34.3391 309.735 30.8428 313.025 28.3187 317.021C25.7946 321.017 24.3251 325.588 24.0478 330.306C23.7705 335.024 24.6944 339.736 26.733 344H24C21.8783 344 19.8434 344.843 18.3431 346.343C16.8429 347.843 16 349.878 16 352C16.0167 366.847 21.922 381.081 32.4204 391.579C42.9189 402.078 57.153 407.983 72 408H440C454.847 407.983 469.081 402.078 479.58 391.579C490.078 381.081 495.983 366.847 496 352C496 349.878 495.157 347.843 493.657 346.343C492.157 344.843 490.122 344 488 344H407.255C409.553 338.744 411.663 333.411 413.586 328H425.923ZM427.715 246.424V234.96C433.651 235.424 439.176 238.168 443.133 242.616C447.089 247.065 449.17 252.873 448.938 258.822C448.706 264.771 446.18 270.4 441.889 274.527C437.598 278.654 431.876 280.96 425.922 280.96H425.222C426.876 269.522 427.71 257.981 427.715 246.424V246.424ZM422.354 296.961H425.922C436.117 296.956 445.906 292.964 453.195 285.836C460.485 278.709 464.697 269.013 464.931 258.821C465.166 248.628 461.403 238.749 454.449 231.294C447.494 223.84 437.899 219.402 427.715 218.929V203.89C441.891 204.362 455.313 210.386 465.089 220.662C474.865 230.938 480.212 244.644 479.977 258.826C479.742 273.008 473.944 286.529 463.832 296.476C453.721 306.422 440.107 311.998 425.923 312H418.648C420.039 307.027 421.274 302.014 422.354 296.961ZM248 177.814V184H241.041L248 177.814ZM176 208C176.618 208 177.283 208.03 178.032 208.094C179.116 208.186 180.206 208.056 181.238 207.712C182.27 207.368 183.22 206.818 184.032 206.094C187.04 203.41 190.677 201.527 194.606 200.621C196.071 200.285 197.412 199.543 198.476 198.481C199.539 197.418 200.281 196.077 200.617 194.612C201.813 189.311 204.783 184.577 209.035 181.193C213.287 177.809 218.566 175.977 224 176C224.625 176 225.248 176.032 225.868 176.08L153.521 240.389C152.163 236.759 151.705 232.855 152.185 229.01C152.666 225.164 154.071 221.493 156.281 218.309C158.49 215.125 161.438 212.525 164.872 210.729C168.307 208.934 172.125 207.997 176 208V208ZM112 248C120.642 248.008 129.049 250.812 135.967 255.992L120 270.186V264C120 261.878 119.157 259.843 117.657 258.343C116.157 256.843 114.122 256 112 256C109.878 256 107.843 256.843 106.343 258.343C104.843 259.843 104 261.878 104 264V280H88C85.8783 280 83.8434 280.843 82.3431 282.343C80.8429 283.843 80 285.878 80 288C80 290.122 80.8429 292.156 82.3431 293.657C83.8434 295.157 85.8783 296 88 296H90.958L77.4 308.055C73.8747 301.976 72.0134 295.076 72.0034 288.049C71.9934 281.022 73.8351 274.116 77.3431 268.027C80.851 261.939 85.9014 256.882 91.9856 253.366C98.0698 249.85 104.973 247.999 112 248V248ZM225.481 197.831V246.424C225.53 280.009 232.494 313.224 245.941 344H61.042L225.481 197.831ZM52 320C55.0709 319.993 58.0252 321.176 60.243 323.3L42.393 339.167C40.8372 337.102 39.9971 334.586 40 332C40.0034 328.818 41.2688 325.768 43.5185 323.518C45.7682 321.269 48.8185 320.003 52 320V320ZM479.2 360C477.343 369.029 472.431 377.141 465.29 382.97C458.15 388.799 449.218 391.988 440 392H72C62.7823 391.988 53.8504 388.799 46.7098 382.97C39.5692 377.141 34.6566 369.029 32.8 360H479.2ZM411.715 246.424C411.673 280.031 404.218 313.214 389.879 343.609H263.317C248.979 313.214 241.523 280.031 241.481 246.424V200H411.715V246.424Z" fill="black"/>
<path d="M355 104C355 101.878 354.157 99.8434 352.657 98.3431C351.156 96.8429 349.122 96 347 96C344.878 96 342.843 96.8429 341.343 98.3431C339.843 99.8434 339 101.878 339 104C339 106.316 338.529 107.049 337.271 109.006C334.49 113.018 333 117.784 333 122.665C333 127.547 334.49 132.313 337.271 136.325C338.529 138.283 339 139.016 339 141.332C339 143.648 338.529 144.382 337.271 146.34C334.434 150.325 332.938 155.109 333 160C333 162.122 333.843 164.157 335.343 165.657C336.843 167.157 338.878 168 341 168C343.122 168 345.156 167.157 346.657 165.657C348.157 164.157 349 162.122 349 160C349 157.683 349.471 156.95 350.729 154.992C353.51 150.98 355 146.214 355 141.333C355 136.451 353.51 131.685 350.729 127.673C349.471 125.715 349 124.982 349 122.665C349 120.348 349.471 119.616 350.729 117.658C353.566 113.674 355.062 108.891 355 104Z" fill="black"/>
<path d="M403 104C403 101.878 402.157 99.8434 400.657 98.3431C399.156 96.8429 397.122 96 395 96C392.878 96 390.843 96.8429 389.343 98.3431C387.843 99.8434 387 101.878 387 104C387 106.316 386.529 107.049 385.271 109.006C382.49 113.018 381 117.784 381 122.665C381 127.547 382.49 132.313 385.271 136.325C386.529 138.283 387 139.016 387 141.332C387 143.648 386.529 144.382 385.271 146.34C382.434 150.325 380.938 155.109 381 160C381 162.122 381.843 164.157 383.343 165.657C384.843 167.157 386.878 168 389 168C391.122 168 393.156 167.157 394.657 165.657C396.157 164.157 397 162.122 397 160C397 157.683 397.471 156.95 398.729 154.992C401.51 150.98 403 146.214 403 141.333C403 136.451 401.51 131.685 398.729 127.673C397.471 125.715 397 124.982 397 122.665C397 120.348 397.471 119.616 398.729 117.658C401.566 113.674 403.062 108.891 403 104V104Z" fill="black"/>
<path d="M307 104C307 101.878 306.157 99.8434 304.657 98.3431C303.156 96.8429 301.122 96 299 96C296.878 96 294.843 96.8429 293.343 98.3431C291.843 99.8434 291 101.878 291 104C291 106.316 290.529 107.049 289.271 109.006C286.49 113.018 285 117.784 285 122.665C285 127.547 286.49 132.313 289.271 136.325C290.529 138.283 291 139.016 291 141.332C291 143.648 290.529 144.382 289.271 146.34C286.434 150.325 284.938 155.109 285 160C285 162.122 285.843 164.157 287.343 165.657C288.843 167.157 290.878 168 293 168C295.122 168 297.156 167.157 298.657 165.657C300.157 164.157 301 162.122 301 160C301 157.683 301.471 156.95 302.729 154.992C305.51 150.98 307 146.214 307 141.333C307 136.451 305.51 131.685 302.729 127.673C301.471 125.715 301 124.982 301 122.665C301 120.348 301.471 119.616 302.729 117.658C305.566 113.674 307.062 108.891 307 104V104Z" fill="black"/>
<path d="M376.089 327.692C377.099 327.982 378.157 328.069 379.202 327.95C380.246 327.83 381.257 327.505 382.175 326.994C383.094 326.483 383.903 325.796 384.556 324.972C385.208 324.148 385.692 323.203 385.979 322.192L388.264 314.192C388.847 312.152 388.595 309.964 387.564 308.109C386.534 306.254 384.809 304.885 382.768 304.302C380.728 303.72 378.54 303.971 376.686 305.002C374.831 306.033 373.462 307.758 372.879 309.798L370.594 317.798C370.305 318.808 370.218 319.866 370.337 320.91C370.457 321.954 370.781 322.965 371.291 323.884C371.802 324.802 372.488 325.612 373.311 326.265C374.134 326.919 375.078 327.403 376.089 327.692Z" fill="black"/>
<path d="M385.4 295.779C386.422 296.026 387.482 296.068 388.52 295.904C389.558 295.741 390.554 295.374 391.45 294.825C392.346 294.276 393.125 293.555 393.743 292.705C394.36 291.854 394.804 290.89 395.048 289.868C398.337 276.155 399.999 262.102 400 248C400 245.878 399.157 243.843 397.657 242.343C396.156 240.843 394.122 240 392 240C389.878 240 387.843 240.843 386.343 242.343C384.843 243.843 384 245.878 384 248C383.998 260.844 382.483 273.643 379.486 286.132C379.241 287.154 379.199 288.214 379.364 289.252C379.528 290.289 379.895 291.285 380.445 292.181C380.994 293.076 381.714 293.855 382.564 294.473C383.414 295.09 384.378 295.534 385.4 295.779V295.779Z" fill="black"/>
</svg>
