<?xml version="1.0" encoding="UTF-8" standalone="no"?> <svg xmlns="http://www.w3.org/2000/svg" viewBox="0 0 72.94 73.57"><defs><style>.cls-1{isolation:isolate;}.cls-2{fill:#ffd77d;}.cls-3{fill:#371438;}.cls-4{fill:#dd8136;opacity:0.5;mix-blend-mode:multiply;}.cls-5{fill:#e54545;}.cls-6{fill:#fff;}.cls-7{fill:#91562d;}.cls-8{fill:#ffb77b;}</style></defs><title>Asset 5</title><g class="cls-1"><g id="Layer_2" data-name="Layer 2"><g id="Layer_1-2" data-name="Layer 1"><path class="cls-2" d="M17,18.79a.41.41,0,0,0-.61.13L1.4,45.46C-.37,47.78,6,55.57,15.58,62.84s18.8,11.28,20.56,9L57.73,50.24a.41.41,0,0,0,0-.62Z"/><path class="cls-3" d="M34.34,73.57c-5,0-14.33-6-19.44-9.84C6.11,57.06-2.15,48.29.51,44.78L8.27,32.15a1.12,1.12,0,0,1,1.9,1.17L2.35,46C1.43,47.26,5.59,53.86,16.25,62s18.15,10.29,19,9.17l.1-.12,21-21L17,20.19,14.62,24.8a1.12,1.12,0,0,1-2-1l2.79-5.35a1.54,1.54,0,0,1,1-.79,1.56,1.56,0,0,1,1.25.28L58.37,48.73a1.52,1.52,0,0,1,.12,2.32L37,72.54A3.23,3.23,0,0,1,34.34,73.57Zm22.6-24.12,0,0Z"/><path class="cls-3" d="M10.9,30.62a1.16,1.16,0,0,1-.51-.12A1.13,1.13,0,0,1,9.91,29l1.36-2.6a1.11,1.11,0,0,1,1.5-.48,1.13,1.13,0,0,1,.48,1.51L11.9,30A1.13,1.13,0,0,1,10.9,30.62Z"/><path class="cls-4" d="M57.7,49.62,55.57,48c-11.94,9.78-36,13.55-53.11,1.87,2.23,3.5,7,8.33,13.12,13,9.59,7.27,18.8,11.28,20.56,9L57.73,50.24A.41.41,0,0,0,57.7,49.62Z"/><path class="cls-5" d="M37.5,42.08c9.92,6.83,18.72,10.28,20.58,7.83,2.1-2.77-5.47-12.06-16.92-20.73S18.74,15.72,16.63,18.5c-1.86,2.45,3.85,10,13.1,17.69C29.73,36.19,34.93,40.86,37.5,42.08Z"/><path class="cls-3" d="M56,51.79c-4.56,0-12.49-4.26-19-8.74-2.71-1.33-7.74-5.83-8-6-7.84-6.54-16-15.51-13.24-19.21C19,13.48,33.15,21.7,41.84,28.29A83.31,83.31,0,0,1,55.57,41.05c3.65,4.48,4.8,7.69,3.4,9.54A3.58,3.58,0,0,1,56,51.79Zm-37.2-33a1.56,1.56,0,0,0-1.23.38c-.84,1.12,2.16,7.19,12.93,16.16,1.44,1.3,5.55,4.8,7.53,5.74l.15.09c11.56,8,18.21,9.19,19.06,8.07.36-.47.12-2.5-3.35-6.77A81.17,81.17,0,0,0,40.49,30.07C29.7,21.89,21.77,18.79,18.75,18.79Z"/><path class="cls-6" d="M14.64,32.06a1.08,1.08,0,0,1-.52-.13,1.12,1.12,0,0,1-.48-1.5l1.85-3.58a1.12,1.12,0,0,1,2,1l-1.85,3.58A1.11,1.11,0,0,1,14.64,32.06Z"/><path class="cls-6" d="M5.49,47.4a1.18,1.18,0,0,1-.59-.17,1.13,1.13,0,0,1-.36-1.54l7.2-11.58a1.12,1.12,0,0,1,1.9,1.19L6.44,46.87A1.11,1.11,0,0,1,5.49,47.4Z"/><path class="cls-6" d="M59.77,18.15a1.1,1.1,0,0,1-.84-.39A29.83,29.83,0,0,1,53.4,9a1.12,1.12,0,0,1,2.09-.8,27.74,27.74,0,0,0,5.13,8.12,1.11,1.11,0,0,1-.12,1.57A1.08,1.08,0,0,1,59.77,18.15Z"/><path class="cls-6" d="M53.44,5.64a1.12,1.12,0,0,1-1.11-1A9.12,9.12,0,0,1,52.61.85a1.12,1.12,0,0,1,2.1.76,7.41,7.41,0,0,0-.15,2.8,1.13,1.13,0,0,1-1,1.23Z"/><path class="cls-6" d="M54.41,33a1.13,1.13,0,0,1-.78-.32,51.47,51.47,0,0,1-11.79-17,1.12,1.12,0,1,1,2.06-.86A49.42,49.42,0,0,0,55.19,31.05a1.11,1.11,0,0,1,0,1.58A1.1,1.1,0,0,1,54.41,33Z"/><path class="cls-6" d="M41,11A1.11,1.11,0,0,1,40,10.12a27,27,0,0,1-.89-5A1.12,1.12,0,1,1,41.3,5a24.49,24.49,0,0,0,.81,4.57,1.11,1.11,0,0,1-.8,1.36A.9.9,0,0,1,41,11Z"/><path class="cls-7" d="M70.89,40.34c3.07-10.89-1.71-24-12.75-32.22S33.18-1,23.61,5.06A16.42,16.42,0,0,0,17,10.34C12,17,12.76,25.88,18.6,30.24a12.31,12.31,0,0,0,9.13,2.22A14.92,14.92,0,0,0,43.46,44.2a12.25,12.25,0,0,0,4.73,8.11C54,56.67,62.77,54.83,67.72,48.2A16.33,16.33,0,0,0,70.89,40.34Z"/><path class="cls-3" d="M55.44,55.79a13.14,13.14,0,0,1-7.92-2.58,13.3,13.3,0,0,1-5-7.86A16,16,0,0,1,26.88,33.67a13.38,13.38,0,0,1-8.95-2.54,13.52,13.52,0,0,1-5.3-9.9A17.1,17.1,0,0,1,16.09,9.67a17.53,17.53,0,0,1,7-5.6C33.33-2.35,47.67-1.09,58.81,7.22S75.23,28.92,72,40.56a17.48,17.48,0,0,1-3.37,8.31A16.69,16.69,0,0,1,55.44,55.79ZM44.41,43l.15,1a11.23,11.23,0,0,0,4.3,7.39c5.33,4,13.4,2.24,18-3.89a15.35,15.35,0,0,0,3-7.32l0-.17c3-10.78-1.93-23.25-12.35-31S33.68,0,24.21,6l-.15.08A15.29,15.29,0,0,0,17.88,11a14.86,14.86,0,0,0-3,10,11.29,11.29,0,0,0,4.41,8.29,11.22,11.22,0,0,0,8.31,2l1-.14.22,1A13.81,13.81,0,0,0,43.38,43.08Z"/><path class="cls-6" d="M49.2,12.25c-.34,1.4-2.34,2.11-4.45,1.59s-3.56-2.07-3.22-3.47S43.86,8.27,46,8.79,49.54,10.86,49.2,12.25Z"/><ellipse class="cls-8" cx="45.65" cy="12.76" rx="2.6" ry="3.95" transform="translate(22.4 54.06) rotate(-76.24)"/><path class="cls-6" d="M64.22,16.94c-.44,1.78-3,2.69-5.7,2S54,16.32,54.41,14.54s3-2.69,5.69-2S64.65,15.16,64.22,16.94Z"/><path class="cls-8" d="M64.58,18.78c-.43,1.78-3,2.69-5.69,2s-4.55-2.65-4.11-4.43,3-2.69,5.69-2S65,17,64.58,18.78Z"/><path class="cls-6" d="M54.84,23.94c-.34,1.37-2.3,2.07-4.39,1.56s-3.51-2-3.17-3.41,2.3-2.08,4.39-1.56S55.18,22.57,54.84,23.94Z"/><path class="cls-8" d="M55.12,25.36c-.33,1.37-2.3,2.07-4.39,1.56s-3.5-2-3.17-3.41S49.86,21.44,52,22,55.46,24,55.12,25.36Z"/><path class="cls-3" d="M51.12,43.15c-7.23,0-9.4-7-9.42-7.12a1.12,1.12,0,0,1,2.15-.63h0a7.81,7.81,0,0,0,9.79,5.2,1.12,1.12,0,0,1,.51,2.18A13,13,0,0,1,51.12,43.15Z"/><path class="cls-3" d="M31.53,28.31a7.24,7.24,0,0,1-3.86-1.07,10.4,10.4,0,0,1-4.1-5.95,1.12,1.12,0,0,1,2.18-.51A9.25,9.25,0,0,0,27.35,24a5.42,5.42,0,0,0,5.9,1.87A1.12,1.12,0,1,1,33.77,28,9.41,9.41,0,0,1,31.53,28.31Z"/><path class="cls-6" d="M47.18,6.63a1.14,1.14,0,0,1-.26,0,30.22,30.22,0,0,0-5.5-.77,1.11,1.11,0,0,1-1.07-1.16,1.16,1.16,0,0,1,1.17-1.07,32,32,0,0,1,5.91.82,1.11,1.11,0,0,1-.25,2.2Z"/><path class="cls-6" d="M25.6,9.37A1.12,1.12,0,0,1,25,7.29a30.13,30.13,0,0,1,10.57-3.4,1.12,1.12,0,0,1,.31,2.22,28.25,28.25,0,0,0-9.72,3.1A1.1,1.1,0,0,1,25.6,9.37Z"/><path class="cls-3" d="M23.24,68.77a1.16,1.16,0,0,1-.72-.26,1.12,1.12,0,0,1-.13-1.58L34.54,52.51A1.12,1.12,0,0,1,36.25,54L24.1,68.37A1.13,1.13,0,0,1,23.24,68.77Z"/><path class="cls-3" d="M8.38,57.21A1.16,1.16,0,0,1,7.75,57a1.12,1.12,0,0,1-.29-1.56L17.67,40.53a1.12,1.12,0,0,1,1.56-.29,1.11,1.11,0,0,1,.29,1.55L9.31,56.73A1.14,1.14,0,0,1,8.38,57.21Z"/></g></g></g></svg>