<?xml version="1.0" encoding="UTF-8" standalone="no"?> <svg xmlns="http://www.w3.org/2000/svg" viewBox="0 0 64 64"><g id="Layer_15" data-name="Layer 15"><path d="M26,33l5.814-5.814A7.463,7.463,0,0,0,34,21.908h0A3.908,3.908,0,0,0,30.092,18h0a3.909,3.909,0,0,0-3.252,1.74L26,21l-.84-1.26A3.909,3.909,0,0,0,21.908,18h0A3.908,3.908,0,0,0,18,21.908h0a7.463,7.463,0,0,0,2.186,5.278Z" style="fill:#e77cac"/><path d="M30.092,18a3.909,3.909,0,0,0-3.252,1.74L26,21l-.84-1.26A3.909,3.909,0,0,0,21.908,18a3.827,3.827,0,0,0-.682.069,8.422,8.422,0,0,0,9.387,10.318l1.2-1.2A7.463,7.463,0,0,0,34,21.908,3.908,3.908,0,0,0,30.092,18Z" style="fill:#f19cc8"/><path d="M40,20l7.643-7.643A8.047,8.047,0,0,0,50,6.667h0A4.666,4.666,0,0,0,45.333,2h0A4.665,4.665,0,0,0,41.6,3.866L40,6,38.4,3.866A4.665,4.665,0,0,0,34.667,2h0A4.666,4.666,0,0,0,30,6.667h0a8.047,8.047,0,0,0,2.357,5.69Z" style="fill:#d53e7a"/><path d="M45.333,2A4.665,4.665,0,0,0,41.6,3.866L40,6,38.4,3.866a4.665,4.665,0,0,0-3.627-1.86A10.046,10.046,0,0,0,44.3,15.275c.15,0,.295-.016.444-.023l2.9-2.9A8.047,8.047,0,0,0,50,6.667,4.666,4.666,0,0,0,45.333,2Z" style="fill:#df5b90"/><path d="M48.986,41.932C56.847,43.915,62,47.237,62,51c0,6.075-13.431,11-30,11S2,57.075,2,51c0-3.665,4.888-6.911,12.4-8.91Z" style="fill:#95afd1"/><path d="M49.681,46.943C53.605,48.011,56,49.435,56,51c0,3.314-10.745,6-24,6S8,54.314,8,51c0-1.589,2.47-3.033,6.5-4.107Z" style="fill:#d7e0ef"/><path d="M18.357,50.584h0A6.618,6.618,0,0,1,14,44.364h0a6.619,6.619,0,0,1,4.011-6.083h0A15.845,15.845,0,0,1,24.252,37H26.48a3.038,3.038,0,0,0,2.432-1.216h0A6.958,6.958,0,0,1,34.48,33h0a6.963,6.963,0,0,1,4.456,1.613L43,38l4.375,2.5A5.206,5.206,0,0,1,50,45.017v.089a5.385,5.385,0,0,1-3.68,5.122l-2.88.96A35.379,35.379,0,0,1,32.264,53H32.1A40.173,40.173,0,0,1,18.357,50.584Z" style="fill:#f9cb5d"/><path d="M40.378,38.222A14.756,14.756,0,0,0,31.193,35H29.611a6.875,6.875,0,0,0-.7.784A3.041,3.041,0,0,1,26.48,37H24.252c-.361,0-.718.03-1.077.055a24.351,24.351,0,0,0-8.913,8.439l-.114.184A6.592,6.592,0,0,0,15.1,48l.272-.517.583-.93a22.377,22.377,0,0,1,9.969-8.64,1.007,1.007,0,0,0,.488-.463L26.643,37h1.306l.206.548a24.617,24.617,0,0,0-9.893,8.946L16.41,49.456a6.588,6.588,0,0,0,1.719,1.025l1.829-2.926a22.587,22.587,0,0,1,10.571-8.882l.613.29a24.349,24.349,0,0,0-8.88,8.419l-2.221,3.556-.1.183c.657.209,1.319.4,1.986.571l2.031-3.25A22.384,22.384,0,0,1,29.374,42.5a11.9,11.9,0,0,1,2.209.906,15.615,15.615,0,0,0-7.5,7.2l-.631,1.266-.074.177c.671.149,1.346.276,2.024.39l.47-.939a13.607,13.607,0,0,1,7.719-6.742c.088.073.172.152.257.228a15.519,15.519,0,0,0-4.765,5.62l-.918,1.835c-.016.033-.03.065-.043.1l-.093.25c.7.072,1.408.129,2.116.163L30.87,51.5a13.539,13.539,0,0,1,4.369-5.053c.134.168.26.342.385.517A15.5,15.5,0,0,0,33.081,50.6l-.976,1.95a.977.977,0,0,0-.048.116L31.942,53l.157,0h.165c.628,0,1.256-.023,1.882-.056L34.87,51.5a13.474,13.474,0,0,1,1.816-2.733,11.851,11.851,0,0,1,1,3.26l.075.543c.66-.1,1.315-.229,1.968-.37l-.067-.477a13.794,13.794,0,0,0-8.227-10.608q.9-.543,1.862-1A16.3,16.3,0,0,1,40.852,51.8l.016.138c.652-.163,1.3-.35,1.941-.55a18.308,18.308,0,0,0-10.322-14l-.771-.366a12.747,12.747,0,0,1,7.413,2.762,15.719,15.719,0,0,1,5.793,10.661l.021.242,1.377-.459a5.539,5.539,0,0,0,.554-.234A17.741,17.741,0,0,0,40.378,38.222Z" style="fill:#ec8329"/></g></svg>