<?xml version="1.0" encoding="UTF-8" standalone="no"?> <svg xmlns="http://www.w3.org/2000/svg" viewBox="0 0 512 512"><title>Eat_healthy</title><g id="Eat_healthy"><path d="M470.77,444.61a9,9,0,0,1-9,9H67.45a9,9,0,1,1,0-17.95H461.8A9,9,0,0,1,470.77,444.61Z" style="fill:#bfbfbf"/><path d="M470.77,444.61H58.47a9,9,0,0,1,9-9H461.8A9,9,0,0,1,470.77,444.61Z" style="fill:#606060"/><path d="M215,227.44A163.7,163.7,0,0,1,218,192a17.87,17.87,0,0,0-12.39,5.13,17.52,17.52,0,0,0-5.13,12.39v17.91Z" style="fill:#fac1ac"/><path d="M186,227.44A163.7,163.7,0,0,0,183,192a17.89,17.89,0,0,1,12.39,5.13,17.52,17.52,0,0,1,5.13,12.39v17.91Z" style="fill:#f69167"/><path d="M254.3,336.55c-13.22,11.36-31.82,17.88-53.81,17.88-42.71,0-77.34-28.41-77.34-63.46s77.34-72.08,77.34-72.08,77.34,37,77.34,72.08c0,14.3-5.77,27.49-15.49,38.1" style="fill:#fac1ac"/><path d="M235.26,332.7c-8.54,11-20.56,17.29-34.77,17.29-27.6,0-50-27.48-50-61.37s50-69.73,50-69.73,50,35.83,50,69.73a70.75,70.75,0,0,1-10,36.85" style="fill:#eb5d29"/><path d="M231.47,336.55c-7.61,11.36-18.32,17.88-31,17.88C175.9,354.43,156,326,156,291s44.53-72.08,44.53-72.08S245,255.93,245,291c0,14.3-3.32,27.49-8.92,38.1" style="fill:#fb9d6e"/><path d="M214,336.55c-3.33,11.36-8,17.88-13.54,17.88C189.74,354.43,181,326,181,291s19.46-72.08,19.46-72.08S220,255.93,220,291a173.57,173.57,0,0,1-3.9,38.1" style="fill:#fcfcfc"/><path d="M210.37,336.55c-2.43,11.36-5.84,17.88-9.88,17.88-7.84,0-14.2-28.41-14.2-63.46s14.2-72.08,14.2-72.08,14.19,37,14.19,72.08a235.51,235.51,0,0,1-2.84,38.1" style="fill:#fac1ac"/><path d="M478.32,287.68a36.16,36.16,0,0,1-20.88,6.86l-130.12,9.1a42.46,42.46,0,0,1-30.25-76.8,38.23,38.23,0,0,1,47.07-48c1,.27,1.92.6,2.84.95a45.35,45.35,0,0,1,89.23,13.59,20,20,0,0,1,12-7.59,20.45,20.45,0,0,1,5-.38A20.12,20.12,0,0,1,472,201.47c.12.64.22,1.27.29,1.91a19.76,19.76,0,0,1,0,3.92,20.15,20.15,0,0,1-8.86,14.91,36.36,36.36,0,0,1,23.19,14.57c.53.74,1,1.49,1.49,2.25.28.45.54.89.8,1.35A36.47,36.47,0,0,1,478.32,287.68Z" style="fill:#549080"/><path d="M478.93,288.45A34.52,34.52,0,0,1,459,295l-124,8.67a40.47,40.47,0,0,1-28.84-73.19,36.43,36.43,0,0,1,44.87-45.78c.92.26,1.82.57,2.7.9a43.22,43.22,0,0,1,85,12.95,19.16,19.16,0,0,1,34.07,7.75c.12.61.22,1.22.28,1.83a19.23,19.23,0,0,1-8.42,17.94,34.68,34.68,0,0,1,22.09,13.88c.51.71,1,1.43,1.42,2.15.27.42.52.85.76,1.28A34.75,34.75,0,0,1,478.93,288.45Z" style="fill:#195240"/><path d="M408.56,275h0a4.75,4.75,0,0,1-4.75-4.75h0a4.75,4.75,0,0,1,4.75-4.75h0a4.75,4.75,0,0,1,4.75,4.75h0A4.74,4.74,0,0,1,408.56,275Z" style="fill:#549080"/><path d="M389.13,228.39h0a4.75,4.75,0,0,1-4.75-4.75h0a4.75,4.75,0,0,1,4.75-4.75h0a4.75,4.75,0,0,1,4.75,4.75h0A4.75,4.75,0,0,1,389.13,228.39Z" style="fill:#549080"/><path d="M466.27,260.24h0a4.75,4.75,0,0,1-4.75-4.75h0a4.75,4.75,0,0,1,4.75-4.75h0a4.75,4.75,0,0,1,4.75,4.75h0A4.75,4.75,0,0,1,466.27,260.24Z" style="fill:#549080"/><path d="M408.56,184.31h0a4.75,4.75,0,0,1-4.75-4.75h0a4.75,4.75,0,0,1,4.75-4.75h0a4.74,4.74,0,0,1,4.75,4.75h0A4.75,4.75,0,0,1,408.56,184.31Z" style="fill:#549080"/><path d="M325.12,221.19h0a4.75,4.75,0,0,1-4.75-4.75h0a4.75,4.75,0,0,1,4.75-4.75h0a4.75,4.75,0,0,1,4.75,4.75h0A4.75,4.75,0,0,1,325.12,221.19Z" style="fill:#549080"/><path d="M386.25,284.73a47.55,47.55,0,0,1-1.22,10H233.79a31.19,31.19,0,0,1,2.8-27.12,31.37,31.37,0,0,1,25.08-14.88,32.48,32.48,0,0,1,4.85.14,81.34,81.34,0,0,0,41.35-6.92q3.87-1.69,7.59-3.75a47.74,47.74,0,0,1,70.78,40.88C386.26,283.61,386.26,284.17,386.25,284.73Z" style="fill:#7ddbcb"/><path d="M386.25,284.73a47.55,47.55,0,0,1-1.22,10H233.79a31.05,31.05,0,0,1-1.87-11.65H386.24C386.26,283.61,386.26,284.17,386.25,284.73Z" style="fill:#71bea7"/><circle cx="338.67" cy="284.16" r="37.59" transform="translate(-82.96 151.23) rotate(-22.5)" style="fill:#549080"/><path d="M368.26,284a29.45,29.45,0,0,1-2,10.73H311.1a29.24,29.24,0,0,1-2-10.73,29.59,29.59,0,0,1,29.59-29.59,29.09,29.09,0,0,1,8,1.11A29.59,29.59,0,0,1,368.26,284Z" style="fill:#fac1ac"/><path d="M368.26,284a29.45,29.45,0,0,1-2,10.73H327.14a29.57,29.57,0,0,1,19.55-39.21A29.59,29.59,0,0,1,368.26,284Z" style="fill:#eb5d29"/><path d="M163,180.76c-13.9,17.08-27.87,29.6-34.4,31.34a3.24,3.24,0,0,1-2.93-.27c-4-3.26,6.22-22.44,22.84-42.86s33.34-34.32,37.35-31.06a3.24,3.24,0,0,1,.85,2.81C186.29,147.47,176.85,163.69,163,180.76Z" style="fill:#549080"/><path d="M121.43,163.86c-2,21.93-.73,40.65,2.73,46.45a3.23,3.23,0,0,0,2.29,1.86c5.14.46,11.22-20.41,13.58-46.63s.11-47.85-5-48.32a3.27,3.27,0,0,0-2.58,1.42C128,123.73,123.4,141.93,121.43,163.86Z" style="fill:#549080"/><path d="M152.5,171.4c-8.3,20.4-18,36.46-23.74,40a3.23,3.23,0,0,1-2.88.6c-4.78-1.95-.61-23.29,9.32-47.67s21.84-42.57,26.62-40.63a3.24,3.24,0,0,1,1.64,2.45C165.08,132.74,160.8,151,152.5,171.4Z" style="fill:#7ddbcb"/><ellipse cx="146.11" cy="168.8" rx="46.02" ry="6.89" transform="translate(-65.32 240.49) rotate(-67.85)" style="fill:#195240"/><path d="M149.79,248.21c-2.34,6.35-11.29,25.11-22.71,46.49H67.75L70.84,278,71,277l.12-.61c.16-.83.32-1.64.47-2.44.11-.53.21-1.05.31-1.56,1.2-6,2.32-11.28,3.37-15.94.32-1.39.63-2.72.93-4,1.54-6.54,2.92-11.72,4.16-16,.42-1.44.82-2.76,1.21-4,1.06-3.37,2-6,2.85-8.32a34.81,34.81,0,0,1,41.1-21.75,32.14,32.14,0,0,1,3.59,1.1A34.82,34.82,0,0,1,149.79,248.21Z" style="fill:#fb9d6e"/><path d="M149.79,248.21c-2.34,6.35-11.29,25.11-22.71,46.49H84.62L87.88,277c6.16-31.82,10.44-44.72,13.43-52.83a34.73,34.73,0,0,1,24.23-21.75,32.14,32.14,0,0,1,3.59,1.1A34.82,34.82,0,0,1,149.79,248.21Z" style="fill:#eb5d29"/><path d="M118.28,234.49h0a2,2,0,0,1-2,2H80.38c.42-1.44.82-2.76,1.21-4h34.69A2,2,0,0,1,118.28,234.49Z" style="fill:#fac1ac"/><path d="M109,276h0a2,2,0,0,1-2,2H70.84L71,277l.12-.61c.16-.83.32-1.64.47-2.44H107A2,2,0,0,1,109,276Z" style="fill:#fac1ac"/><path d="M113.15,254.45h0a2,2,0,0,1-2,2H75.29c.32-1.39.63-2.72.93-4h34.93A2,2,0,0,1,113.15,254.45Z" style="fill:#fac1ac"/><path d="M461.53,294.7V300q0,4.54-.3,9A135.64,135.64,0,0,1,325.88,435.63H203.4A135.67,135.67,0,0,1,68,309l-.06-.93q-.23-4-.23-8.09V294.7Z" style="fill:#fce48c"/><path d="M445.53,300V294.7H106.07V300q0,4.06.23,8.09A135.67,135.67,0,0,0,241.72,435.63h68.16A135.65,135.65,0,0,0,445.53,300Z" style="fill:#fdc323"/><path d="M461.46,304.12c0-1.38.07-2.75.07-4.14V294.7H67.75V300c0,3,.1,6,.28,9H359c52,0,75.31,65.94,34.34,97.95a135.08,135.08,0,0,1-83.43,28.68h16A135.64,135.64,0,0,0,461.22,309h0c0-.14,0-.29,0-.43.07-1.12.13-2.24.17-3.37C461.43,304.84,461.45,304.48,461.46,304.12Z" style="fill:#ea9807"/></g></svg>