<svg xmlns="http://www.w3.org/2000/svg" xmlns:xlink="http://www.w3.org/1999/xlink" width="768" zoomAndPan="magnify" viewBox="0 0 576 576" height="768" preserveAspectRatio="xMidYMid meet" version="1.0"><defs><clipPath id="d7a200b6cb"><path d="M 70.59375 83.585938 L 505.59375 83.585938 L 505.59375 341 L 70.59375 341 Z M 70.59375 83.585938 " clip-rule="nonzero"/></clipPath><clipPath id="fc8c682a7b"><path d="M 70.59375 121 L 505.59375 121 L 505.59375 379 L 70.59375 379 Z M 70.59375 121 " clip-rule="nonzero"/></clipPath><clipPath id="de81943451"><path d="M 505.59375 247.175781 L 505.59375 255.632812 C 505.070312 255.960938 504.414062 256.355469 503.757812 256.746094 L 487.5 266.382812 C 483.699219 268.546875 478.585938 271.5625 473.601562 274.445312 C 469.539062 276.871094 465.472656 279.230469 462.394531 281.066406 L 430.078125 300.078125 L 363.347656 339.34375 L 362.558594 339.800781 L 356.464844 343.34375 L 341.515625 352.125 L 340.796875 352.585938 L 302.121094 375.332031 C 300.351562 376.316406 298.382812 377.035156 296.285156 377.558594 C 293.730469 378.214844 290.84375 378.410156 288.09375 378.28125 C 285.339844 378.410156 282.457031 378.214844 279.898438 377.558594 C 277.800781 377.035156 275.835938 376.316406 274.066406 375.332031 L 235.457031 352.652344 L 235.390625 352.585938 L 226.933594 347.601562 L 219.722656 343.34375 L 213.5625 339.738281 L 149.058594 301.78125 L 113.792969 281.070312 C 111.367188 279.625 108.417969 277.921875 105.269531 276.023438 C 99.503906 272.679688 93.210938 268.941406 88.6875 266.386719 L 72.429688 256.746094 C 71.839844 256.355469 71.117188 255.960938 70.59375 255.632812 L 70.59375 247.175781 C 70.59375 245.734375 70.789062 244.554688 71.183594 243.507812 C 71.183594 243.441406 71.25 243.441406 71.25 243.441406 C 71.644531 243.179688 72.035156 242.980469 72.429688 242.71875 L 77.738281 239.574219 L 88.6875 233.085938 C 89.800781 232.429688 91.046875 231.707031 92.359375 230.921875 C 97.863281 227.707031 104.746094 223.644531 110.253906 220.5 C 110.386719 220.367188 110.582031 220.300781 110.710938 220.238281 C 111.828125 219.582031 112.8125 218.925781 113.792969 218.402344 L 139.097656 203.519531 L 191.734375 172.582031 L 220.117188 155.863281 L 274.066406 124.136719 C 277.933594 121.972656 283.113281 120.992188 288.09375 121.253906 C 293.078125 120.992188 298.320312 121.976562 302.125 124.136719 L 356.136719 155.863281 L 383.011719 171.726562 L 439.320312 204.832031 L 462.398438 218.402344 C 463.445312 219.054688 464.691406 219.710938 465.9375 220.5 C 466.722656 220.890625 467.507812 221.347656 468.296875 221.875 C 473.34375 224.824219 479.046875 228.167969 483.832031 230.917969 C 485.144531 231.707031 486.390625 232.425781 487.503906 233.082031 L 498.449219 239.574219 L 503.761719 242.71875 C 504.152344 242.980469 504.546875 243.179688 504.941406 243.441406 C 505.394531 244.488281 505.59375 245.734375 505.59375 247.175781 Z M 505.59375 247.175781 " clip-rule="nonzero"/></clipPath><linearGradient x1="256.00101" gradientTransform="matrix(0.849609, 0, 0, 0.849609, 70.592636, 83.58528)" y1="347.013978" x2="256.00101" gradientUnits="userSpaceOnUse" y2="44.026994" id="1b08d2da2f"><stop stop-opacity="1" stop-color="rgb(90.59906%, 68.998718%, 33.699036%)" offset="0"/><stop stop-opacity="1" stop-color="rgb(90.725708%, 69.093323%, 33.833313%)" offset="0.03125"/><stop stop-opacity="1" stop-color="rgb(90.98053%, 69.284058%, 34.104919%)" offset="0.0625"/><stop stop-opacity="1" stop-color="rgb(91.238403%, 69.474792%, 34.378052%)" offset="0.09375"/><stop stop-opacity="1" stop-color="rgb(91.494751%, 69.667053%, 34.651184%)" offset="0.125"/><stop stop-opacity="1" stop-color="rgb(91.751099%, 69.857788%, 34.924316%)" offset="0.15625"/><stop stop-opacity="1" stop-color="rgb(92.007446%, 70.050049%, 35.195923%)" offset="0.1875"/><stop stop-opacity="1" stop-color="rgb(92.263794%, 70.240784%, 35.469055%)" offset="0.21875"/><stop stop-opacity="1" stop-color="rgb(92.521667%, 70.433044%, 35.742188%)" offset="0.25"/><stop stop-opacity="1" stop-color="rgb(92.778015%, 70.623779%, 36.01532%)" offset="0.28125"/><stop stop-opacity="1" stop-color="rgb(93.034363%, 70.81604%, 36.288452%)" offset="0.3125"/><stop stop-opacity="1" stop-color="rgb(93.29071%, 71.006775%, 36.561584%)" offset="0.34375"/><stop stop-opacity="1" stop-color="rgb(93.547058%, 71.199036%, 36.834717%)" offset="0.375"/><stop stop-opacity="1" stop-color="rgb(93.804932%, 71.389771%, 37.107849%)" offset="0.40625"/><stop stop-opacity="1" stop-color="rgb(94.061279%, 71.582031%, 37.380981%)" offset="0.4375"/><stop stop-opacity="1" stop-color="rgb(94.317627%, 71.772766%, 37.652588%)" offset="0.46875"/><stop stop-opacity="1" stop-color="rgb(94.573975%, 71.965027%, 37.92572%)" offset="0.5"/><stop stop-opacity="1" stop-color="rgb(94.830322%, 72.155762%, 38.198853%)" offset="0.53125"/><stop stop-opacity="1" stop-color="rgb(95.088196%, 72.348022%, 38.471985%)" offset="0.5625"/><stop stop-opacity="1" stop-color="rgb(95.344543%, 72.538757%, 38.745117%)" offset="0.59375"/><stop stop-opacity="1" stop-color="rgb(95.600891%, 72.731018%, 39.01825%)" offset="0.625"/><stop stop-opacity="1" stop-color="rgb(95.857239%, 72.921753%, 39.291382%)" offset="0.65625"/><stop stop-opacity="1" stop-color="rgb(96.113586%, 73.114014%, 39.564514%)" offset="0.6875"/><stop stop-opacity="1" stop-color="rgb(96.37146%, 73.304749%, 39.837646%)" offset="0.71875"/><stop stop-opacity="1" stop-color="rgb(96.627808%, 73.497009%, 40.109253%)" offset="0.75"/><stop stop-opacity="1" stop-color="rgb(96.827698%, 73.646545%, 40.322876%)" offset="1"/></linearGradient><clipPath id="187c0f2471"><path d="M 136 145 L 480 145 L 480 361 L 136 361 Z M 136 145 " clip-rule="nonzero"/></clipPath><clipPath id="0245aff6c6"><path d="M 479.042969 328 L 426.867188 333.3125 L 364.066406 339.605469 L 362.558594 339.800781 L 352.003906 340.847656 L 324.015625 343.667969 L 289.863281 347.144531 L 235.457031 352.648438 L 235.324219 352.648438 L 216.511719 354.550781 L 196.058594 356.648438 L 155.023438 360.777344 L 152.269531 333.769531 L 149.058594 301.78125 L 144.996094 261.796875 L 142.570312 237.605469 L 139.09375 203.519531 L 136.539062 178.152344 L 191.734375 172.582031 L 289.601562 162.617188 L 356.136719 155.863281 L 410.675781 150.359375 L 442.007812 147.210938 L 460.558594 145.308594 L 462.851562 168.058594 L 464.230469 181.820312 L 468.03125 219.316406 L 468.292969 221.875 L 470.0625 238.917969 L 473.601562 274.449219 Z M 479.042969 328 " clip-rule="nonzero"/></clipPath><linearGradient x1="279.185" gradientTransform="matrix(0.849609, 0, 0, 0.849609, 70.592636, 83.58528)" y1="72.651009" x2="279.185" gradientUnits="userSpaceOnUse" y2="326.258999" id="fddf5351ee"><stop stop-opacity="1" stop-color="rgb(99.998474%, 99.998474%, 99.998474%)" offset="0"/><stop stop-opacity="1" stop-color="rgb(99.899292%, 99.899292%, 99.899292%)" offset="0.0625"/><stop stop-opacity="1" stop-color="rgb(99.699402%, 99.699402%, 99.699402%)" offset="0.125"/><stop stop-opacity="1" stop-color="rgb(99.499512%, 99.499512%, 99.499512%)" offset="0.1875"/><stop stop-opacity="1" stop-color="rgb(99.299622%, 99.299622%, 99.299622%)" offset="0.25"/><stop stop-opacity="1" stop-color="rgb(99.099731%, 99.099731%, 99.099731%)" offset="0.3125"/><stop stop-opacity="1" stop-color="rgb(98.899841%, 98.899841%, 98.899841%)" offset="0.375"/><stop stop-opacity="1" stop-color="rgb(98.699951%, 98.699951%, 98.699951%)" offset="0.4375"/><stop stop-opacity="1" stop-color="rgb(98.500061%, 98.500061%, 98.500061%)" offset="0.5"/><stop stop-opacity="1" stop-color="rgb(98.300171%, 98.300171%, 98.300171%)" offset="0.5625"/><stop stop-opacity="1" stop-color="rgb(98.100281%, 98.100281%, 98.100281%)" offset="0.625"/><stop stop-opacity="1" stop-color="rgb(97.901917%, 97.901917%, 97.901917%)" offset="0.6875"/><stop stop-opacity="1" stop-color="rgb(97.702026%, 97.702026%, 97.702026%)" offset="0.75"/><stop stop-opacity="1" stop-color="rgb(97.502136%, 97.502136%, 97.502136%)" offset="0.8125"/><stop stop-opacity="1" stop-color="rgb(97.302246%, 97.302246%, 97.302246%)" offset="0.875"/><stop stop-opacity="1" stop-color="rgb(97.050476%, 97.050476%, 97.050476%)" offset="1"/></linearGradient><clipPath id="4c331b6f26"><path d="M 70.59375 204 L 298 204 L 298 433 L 70.59375 433 Z M 70.59375 204 " clip-rule="nonzero"/></clipPath><clipPath id="bcec4caca5"><path d="M 279 204 L 505.59375 204 L 505.59375 433 L 279 433 Z M 279 204 " clip-rule="nonzero"/></clipPath><clipPath id="7f1f38a85f"><path d="M 100 306 L 505.59375 306 L 505.59375 433 L 100 433 Z M 100 306 " clip-rule="nonzero"/></clipPath><clipPath id="2716ed3f90"><path d="M 70.59375 307 L 505.59375 307 L 505.59375 433 L 70.59375 433 Z M 70.59375 307 " clip-rule="nonzero"/></clipPath></defs><path fill="#d3b1c2" d="M 576 288 C 576 292.714844 575.882812 297.421875 575.652344 302.132812 C 575.421875 306.839844 575.074219 311.539062 574.613281 316.230469 C 574.152344 320.917969 573.574219 325.597656 572.882812 330.257812 C 572.191406 334.921875 571.386719 339.5625 570.464844 344.1875 C 569.546875 348.808594 568.515625 353.40625 567.367188 357.976562 C 566.222656 362.550781 564.96875 367.089844 563.597656 371.601562 C 562.230469 376.113281 560.753906 380.585938 559.164062 385.023438 C 557.578125 389.460938 555.882812 393.859375 554.078125 398.210938 C 552.273438 402.566406 550.363281 406.875 548.347656 411.136719 C 546.332031 415.398438 544.214844 419.605469 541.992188 423.761719 C 539.769531 427.917969 537.449219 432.019531 535.027344 436.0625 C 532.601562 440.105469 530.082031 444.085938 527.464844 448.003906 C 524.84375 451.921875 522.132812 455.777344 519.324219 459.5625 C 516.515625 463.347656 513.617188 467.0625 510.628906 470.707031 C 507.636719 474.347656 504.558594 477.917969 501.394531 481.410156 C 498.230469 484.902344 494.980469 488.3125 491.648438 491.648438 C 488.3125 494.980469 484.902344 498.230469 481.410156 501.394531 C 477.917969 504.558594 474.347656 507.636719 470.707031 510.628906 C 467.0625 513.617188 463.347656 516.515625 459.5625 519.324219 C 455.777344 522.132812 451.921875 524.84375 448.003906 527.464844 C 444.085938 530.082031 440.105469 532.601562 436.0625 535.027344 C 432.019531 537.449219 427.917969 539.769531 423.761719 541.992188 C 419.605469 544.214844 415.398438 546.332031 411.136719 548.347656 C 406.875 550.363281 402.566406 552.273438 398.210938 554.078125 C 393.859375 555.882812 389.460938 557.578125 385.023438 559.164062 C 380.585938 560.753906 376.113281 562.230469 371.601562 563.597656 C 367.089844 564.96875 362.550781 566.222656 357.976562 567.367188 C 353.40625 568.515625 348.808594 569.546875 344.1875 570.464844 C 339.5625 571.386719 334.921875 572.191406 330.257812 572.882812 C 325.597656 573.574219 320.917969 574.152344 316.230469 574.613281 C 311.539062 575.074219 306.839844 575.421875 302.132812 575.652344 C 297.421875 575.882812 292.714844 576 288 576 C 283.285156 576 278.574219 575.882812 273.867188 575.652344 C 269.160156 575.421875 264.460938 575.074219 259.769531 574.613281 C 255.082031 574.152344 250.402344 573.574219 245.742188 572.882812 C 241.078125 572.191406 236.4375 571.386719 231.8125 570.464844 C 227.191406 569.546875 222.59375 568.515625 218.023438 567.367188 C 213.449219 566.222656 208.910156 564.96875 204.398438 563.597656 C 199.886719 562.230469 195.414062 560.753906 190.976562 559.164062 C 186.539062 557.578125 182.140625 555.882812 177.785156 554.078125 C 173.433594 552.273438 169.125 550.363281 164.863281 548.347656 C 160.601562 546.332031 156.394531 544.214844 152.238281 541.992188 C 148.082031 539.769531 143.980469 537.449219 139.9375 535.027344 C 135.894531 532.601562 131.914062 530.082031 127.996094 527.464844 C 124.078125 524.84375 120.222656 522.132812 116.4375 519.324219 C 112.652344 516.515625 108.9375 513.617188 105.292969 510.628906 C 101.652344 507.636719 98.082031 504.558594 94.589844 501.394531 C 91.097656 498.230469 87.6875 494.980469 84.351562 491.648438 C 81.019531 488.3125 77.769531 484.902344 74.605469 481.410156 C 71.441406 477.917969 68.363281 474.347656 65.371094 470.707031 C 62.382812 467.0625 59.484375 463.347656 56.675781 459.5625 C 53.867188 455.777344 51.15625 451.921875 48.535156 448.003906 C 45.917969 444.085938 43.398438 440.105469 40.972656 436.0625 C 38.550781 432.019531 36.226562 427.917969 34.007812 423.761719 C 31.785156 419.605469 29.667969 415.398438 27.652344 411.136719 C 25.636719 406.875 23.726562 402.566406 21.921875 398.210938 C 20.117188 393.859375 18.421875 389.460938 16.835938 385.023438 C 15.246094 380.585938 13.769531 376.113281 12.402344 371.601562 C 11.03125 367.089844 9.777344 362.550781 8.632812 357.976562 C 7.484375 353.40625 6.453125 348.808594 5.535156 344.1875 C 4.613281 339.5625 3.808594 334.921875 3.117188 330.257812 C 2.425781 325.597656 1.847656 320.917969 1.386719 316.230469 C 0.925781 311.539062 0.578125 306.839844 0.347656 302.132812 C 0.117188 297.421875 0 292.714844 0 288 C 0 283.285156 0.117188 278.578125 0.347656 273.867188 C 0.578125 269.160156 0.925781 264.460938 1.386719 259.769531 C 1.847656 255.082031 2.425781 250.402344 3.117188 245.742188 C 3.808594 241.078125 4.613281 236.4375 5.535156 231.8125 C 6.453125 227.191406 7.484375 222.59375 8.632812 218.023438 C 9.777344 213.449219 11.03125 208.910156 12.402344 204.398438 C 13.769531 199.886719 15.246094 195.414062 16.835938 190.976562 C 18.421875 186.539062 20.117188 182.140625 21.921875 177.789062 C 23.726562 173.433594 25.636719 169.125 27.652344 164.863281 C 29.667969 160.601562 31.785156 156.394531 34.007812 152.238281 C 36.226562 148.082031 38.550781 143.980469 40.972656 139.9375 C 43.398438 135.894531 45.917969 131.914062 48.535156 127.996094 C 51.15625 124.078125 53.867188 120.222656 56.675781 116.4375 C 59.484375 112.652344 62.382812 108.9375 65.371094 105.292969 C 68.363281 101.652344 71.441406 98.082031 74.605469 94.589844 C 77.769531 91.097656 81.019531 87.6875 84.351562 84.351562 C 87.6875 81.019531 91.097656 77.769531 94.589844 74.605469 C 98.082031 71.441406 101.652344 68.363281 105.292969 65.371094 C 108.9375 62.382812 112.652344 59.484375 116.4375 56.675781 C 120.222656 53.867188 124.078125 51.15625 127.996094 48.535156 C 131.914062 45.917969 135.894531 43.398438 139.9375 40.972656 C 143.980469 38.550781 148.082031 36.230469 152.238281 34.007812 C 156.394531 31.785156 160.601562 29.667969 164.863281 27.652344 C 169.125 25.636719 173.433594 23.726562 177.789062 21.921875 C 182.140625 20.117188 186.539062 18.421875 190.976562 16.835938 C 195.414062 15.246094 199.886719 13.769531 204.398438 12.402344 C 208.910156 11.03125 213.449219 9.777344 218.023438 8.632812 C 222.59375 7.484375 227.191406 6.453125 231.8125 5.535156 C 236.4375 4.613281 241.078125 3.808594 245.742188 3.117188 C 250.402344 2.425781 255.082031 1.847656 259.769531 1.386719 C 264.460938 0.925781 269.160156 0.578125 273.867188 0.347656 C 278.574219 0.117188 283.285156 0 288 0 C 292.714844 0 297.421875 0.117188 302.132812 0.347656 C 306.839844 0.578125 311.539062 0.925781 316.230469 1.386719 C 320.917969 1.847656 325.597656 2.425781 330.257812 3.117188 C 334.921875 3.808594 339.5625 4.613281 344.1875 5.535156 C 348.808594 6.453125 353.40625 7.484375 357.976562 8.632812 C 362.550781 9.777344 367.089844 11.03125 371.601562 12.402344 C 376.113281 13.769531 380.585938 15.246094 385.023438 16.835938 C 389.460938 18.421875 393.859375 20.117188 398.210938 21.921875 C 402.566406 23.726562 406.875 25.636719 411.136719 27.652344 C 415.398438 29.667969 419.605469 31.785156 423.761719 34.007812 C 427.917969 36.230469 432.019531 38.550781 436.0625 40.972656 C 440.105469 43.398438 444.085938 45.917969 448.003906 48.535156 C 451.921875 51.15625 455.777344 53.867188 459.5625 56.675781 C 463.347656 59.484375 467.0625 62.382812 470.707031 65.371094 C 474.347656 68.363281 477.917969 71.441406 481.410156 74.605469 C 484.902344 77.769531 488.3125 81.019531 491.648438 84.351562 C 494.980469 87.6875 498.230469 91.097656 501.394531 94.589844 C 504.558594 98.082031 507.636719 101.652344 510.628906 105.292969 C 513.617188 108.9375 516.515625 112.652344 519.324219 116.4375 C 522.132812 120.222656 524.84375 124.078125 527.464844 127.996094 C 530.082031 131.914062 532.601562 135.894531 535.027344 139.9375 C 537.449219 143.980469 539.769531 148.082031 541.992188 152.238281 C 544.214844 156.394531 546.332031 160.601562 548.347656 164.863281 C 550.363281 169.125 552.273438 173.433594 554.078125 177.789062 C 555.882812 182.140625 557.578125 186.539062 559.164062 190.976562 C 560.753906 195.414062 562.230469 199.886719 563.597656 204.398438 C 564.96875 208.910156 566.222656 213.449219 567.367188 218.023438 C 568.515625 222.59375 569.546875 227.191406 570.464844 231.8125 C 571.386719 236.4375 572.191406 241.078125 572.882812 245.742188 C 573.574219 250.402344 574.152344 255.082031 574.613281 259.769531 C 575.074219 264.460938 575.421875 269.160156 575.652344 273.867188 C 575.882812 278.578125 576 283.285156 576 288 Z M 576 288 " fill-opacity="1" fill-rule="nonzero"/><g clip-path="url(#d7a200b6cb)"><path fill="#f8ca82" d="M 505.59375 209.550781 L 505.59375 218.007812 C 505.070312 218.335938 504.347656 218.726562 503.757812 219.121094 L 487.5 228.757812 C 486.320312 229.410156 485.207031 230.199219 483.828125 230.917969 C 483.828125 230.984375 483.761719 230.984375 483.761719 230.984375 L 483.699219 230.984375 C 479.503906 233.410156 474.519531 236.292969 470.0625 238.917969 C 467.246094 240.621094 464.558594 242.128906 462.394531 243.441406 L 441.878906 255.5 L 433.945312 260.15625 L 326.769531 323.148438 L 324.933594 324.265625 L 323.6875 324.984375 L 319.886719 327.214844 L 317.066406 328.917969 L 307.167969 334.753906 L 302.121094 337.703125 C 300.351562 338.6875 298.382812 339.40625 296.285156 339.933594 C 296.089844 339.996094 295.894531 339.996094 295.699219 340.0625 C 293.273438 340.585938 290.648438 340.785156 288.09375 340.652344 C 285.535156 340.785156 282.914062 340.585938 280.488281 340.0625 C 280.292969 340 280.097656 340 279.898438 339.933594 C 277.800781 339.40625 275.835938 338.6875 274.066406 337.703125 L 269.019531 334.6875 L 263.96875 331.738281 L 259.121094 328.917969 L 256.957031 327.605469 L 256.300781 327.214844 L 252.5 324.984375 L 200.515625 294.4375 L 144.996094 261.792969 L 134.3125 255.5 L 113.792969 243.441406 C 112.285156 242.585938 110.582031 241.539062 108.746094 240.488281 C 103.632812 237.472656 97.535156 233.867188 92.488281 230.984375 L 92.425781 230.984375 C 92.425781 230.984375 92.359375 230.984375 92.359375 230.917969 C 90.980469 230.199219 89.867188 229.410156 88.6875 228.757812 L 72.429688 219.121094 C 71.839844 218.730469 71.117188 218.335938 70.59375 218.007812 L 70.59375 209.550781 C 70.59375 208.109375 70.789062 206.929688 71.183594 205.878906 C 71.183594 205.816406 71.25 205.816406 71.25 205.816406 C 71.644531 205.554688 72.035156 205.355469 72.429688 205.09375 L 77.738281 201.949219 L 88.6875 195.457031 C 95.636719 191.460938 106.910156 184.773438 113.792969 180.773438 L 114.578125 180.316406 L 134.3125 168.710938 L 165.183594 150.554688 L 174.101562 145.308594 L 274.066406 86.511719 C 277.933594 84.347656 283.113281 83.367188 288.09375 83.625 C 293.074219 83.367188 298.320312 84.347656 302.121094 86.511719 L 369.050781 125.84375 L 402.085938 145.3125 L 410.675781 150.359375 L 441.878906 168.710938 L 462.394531 180.773438 C 462.984375 181.101562 463.574219 181.429688 464.230469 181.824219 C 468.425781 184.316406 473.800781 187.527344 478.847656 190.410156 C 481.992188 192.3125 485.011719 194.015625 487.5 195.457031 L 494.253906 199.457031 L 498.449219 201.949219 L 503.757812 205.09375 C 504.152344 205.355469 504.542969 205.554688 504.9375 205.816406 C 505.394531 206.863281 505.59375 208.109375 505.59375 209.550781 Z M 505.59375 209.550781 " fill-opacity="1" fill-rule="nonzero"/></g><g clip-path="url(#fc8c682a7b)"><g clip-path="url(#de81943451)"><path fill="url(#1b08d2da2f)" d="M 70.59375 120.992188 L 70.59375 378.410156 L 505.59375 378.410156 L 505.59375 120.992188 Z M 70.59375 120.992188 " fill-rule="nonzero"/></g></g><path fill="#3aade4" d="M 442.007812 177.429688 L 439.320312 204.832031 L 436.304688 236.164062 L 433.945312 260.15625 L 430.078125 300.078125 L 426.867188 333.3125 L 424.242188 360.1875 L 406.9375 358.484375 L 378.621094 355.730469 L 341.519531 352.125 L 339.617188 351.992188 L 289.863281 347.144531 L 252.433594 343.539062 L 235.585938 341.898438 L 224.3125 340.785156 L 213.5625 339.734375 L 152.269531 333.769531 L 100.15625 328.722656 L 105.269531 276.019531 L 108.746094 240.492188 L 110.644531 220.695312 L 110.710938 220.238281 L 114.578125 180.316406 L 117.921875 145.964844 L 165.183594 150.554688 L 220.117188 155.863281 L 289.601562 162.617188 L 383.011719 171.726562 Z M 442.007812 177.429688 " fill-opacity="1" fill-rule="nonzero"/><g clip-path="url(#187c0f2471)"><g clip-path="url(#0245aff6c6)"><path fill="url(#fddf5351ee)" d="M 136.539062 145.308594 L 136.539062 360.777344 L 479.042969 360.777344 L 479.042969 145.308594 Z M 136.539062 145.308594 " fill-rule="nonzero"/></g></g><g clip-path="url(#4c331b6f26)"><path fill="#fad397" d="M 297.203125 319.675781 C 297.203125 319.675781 295.761719 320.53125 293.402344 321.773438 C 291.960938 322.5625 290.125 323.480469 288.09375 324.660156 C 287.109375 325.183594 285.996094 325.773438 284.816406 326.363281 L 280.488281 328.65625 L 279.898438 328.917969 L 278.523438 329.707031 L 269.015625 334.6875 L 255.90625 341.636719 C 254.726562 342.226562 253.546875 342.882812 252.429688 343.539062 C 250.398438 344.585938 248.433594 345.699219 246.664062 346.554688 C 243.515625 348.257812 241.089844 349.570312 240.171875 350.027344 C 239.453125 350.421875 237.683594 351.339844 235.386719 352.585938 L 235.324219 352.648438 C 232.308594 354.222656 228.441406 356.320312 224.570312 358.351562 L 177.375 383.394531 L 156.921875 394.277344 L 93.535156 427.902344 C 90.976562 429.214844 88.222656 430.722656 85.667969 432.03125 L 77.804688 432.03125 C 77.082031 432.03125 76.363281 432.03125 75.773438 431.96875 C 74.132812 431.835938 72.953125 431.574219 72.035156 431.179688 C 71.578125 430.917969 71.183594 430.722656 70.921875 430.460938 C 70.789062 430.261719 70.722656 430.199219 70.660156 430 C 70.660156 429.804688 70.59375 429.605469 70.660156 429.34375 C 70.59375 429.019531 70.59375 428.691406 70.59375 428.296875 L 70.59375 211.320312 C 70.59375 210.007812 70.789062 208.894531 71.183594 207.976562 C 71.183594 207.914062 71.25 207.914062 71.25 207.914062 C 72.101562 205.945312 73.675781 204.765625 75.839844 204.570312 C 76.429688 204.371094 77.019531 204.371094 77.738281 204.4375 C 79.3125 204.503906 81.148438 204.964844 83.113281 206.078125 L 107.171875 218.792969 L 109.792969 220.238281 L 110.253906 220.5 L 110.644531 220.695312 L 120.9375 226.136719 C 122.246094 226.792969 123.691406 227.644531 125.261719 228.429688 C 130.640625 231.25 137.257812 234.722656 142.570312 237.605469 C 143.75 238.195312 144.863281 238.851562 145.914062 239.375 L 212.578125 274.773438 L 272.949219 306.828125 L 276.292969 308.597656 C 276.425781 308.664062 276.554688 308.664062 276.621094 308.730469 C 276.882812 308.796875 277.082031 308.929688 277.34375 309.058594 C 277.933594 309.386719 278.523438 309.648438 279.046875 309.976562 C 279.113281 310.039062 279.242188 310.039062 279.308594 310.105469 C 280.097656 310.5 280.816406 310.894531 281.539062 311.285156 C 284.421875 312.792969 286.78125 314.039062 288.09375 314.824219 C 288.878906 315.152344 289.273438 315.417969 289.402344 315.480469 C 289.667969 315.679688 291.5 316.597656 293.402344 317.710938 C 293.46875 317.710938 293.46875 317.773438 293.53125 317.773438 C 293.859375 317.90625 294.1875 318.039062 294.449219 318.234375 C 296.023438 319.019531 297.203125 319.609375 297.203125 319.675781 Z M 297.203125 319.675781 " fill-opacity="1" fill-rule="nonzero"/></g><g clip-path="url(#bcec4caca5)"><path fill="#f8c17c" d="M 505.480469 210.070312 C 505.542969 210.738281 505.59375 212.0625 505.59375 213.019531 L 505.59375 426.449219 C 505.59375 427.40625 505.59375 428.359375 505.59375 428.570312 C 505.59375 428.785156 505.515625 429.40625 505.515625 429.519531 C 505.515625 429.632812 505.515625 429.726562 505.515625 429.960938 C 505.515625 429.960938 505.515625 429.976562 505.515625 429.992188 C 505.515625 430.007812 504.871094 430.460938 504.082031 431 L 500.117188 431.832031 C 499.167969 431.941406 497.613281 432.03125 496.65625 432.03125 L 492.246094 432.03125 C 491.292969 432.03125 489.820312 431.671875 488.976562 431.226562 L 484.167969 428.699219 C 483.324219 428.253906 481.941406 427.527344 481.097656 427.078125 L 353.132812 359.1875 C 352.289062 358.738281 350.910156 358.007812 350.066406 357.558594 L 337.519531 350.851562 C 336.675781 350.398438 335.296875 349.664062 334.457031 349.214844 L 321.832031 342.503906 C 320.992188 342.054688 319.613281 341.320312 318.769531 340.875 L 297.8125 329.777344 C 296.96875 329.332031 295.589844 328.601562 294.742188 328.15625 L 292.886719 327.175781 C 292.042969 326.726562 290.660156 326.003906 289.8125 325.5625 C 289.8125 325.5625 289.078125 325.179688 288.09375 324.648438 C 282.863281 321.808594 279 319.734375 279 319.675781 C 279 319.617188 280.667969 318.789062 282.636719 317.726562 C 284.605469 316.660156 285.277344 316.300781 285.277344 316.300781 C 286.117188 315.847656 286.925781 315.410156 287.070312 315.328125 C 287.214844 315.246094 288.777344 314.449219 289.617188 313.992188 C 289.617188 313.992188 294.15625 311.511719 298.855469 309.085938 C 299.082031 308.96875 299.082031 308.96875 299.082031 308.96875 C 299.332031 308.839844 299.589844 308.707031 299.648438 308.671875 C 299.710938 308.640625 300.460938 308.261719 301.128906 307.902344 C 301.792969 307.546875 303.03125 306.886719 303.875 306.441406 L 428.730469 240.203125 C 429.574219 239.753906 430.953125 239.023438 431.792969 238.574219 L 453.738281 226.949219 C 454.582031 226.5 455.960938 225.769531 456.804688 225.324219 L 491.554688 206.890625 C 492.398438 206.445312 493.808594 205.777344 494.6875 205.40625 C 494.6875 205.40625 495.824219 204.882812 496.761719 204.71875 C 497.699219 204.554688 499.234375 204.566406 500.175781 204.742188 L 503.753906 206.621094 C 504.390625 207.328125 505.414062 209.402344 505.480469 210.070312 Z M 505.480469 210.070312 " fill-opacity="1" fill-rule="nonzero"/></g><g clip-path="url(#7f1f38a85f)"><path fill="#d89f62" d="M 505.59375 402.035156 L 505.59375 428.273438 C 505.59375 428.679688 505.59375 429.027344 505.515625 429.371094 C 505.59375 429.605469 505.515625 429.777344 505.515625 430.007812 C 505.515625 430.007812 505.515625 430.007812 505.515625 430.066406 C 504.972656 431.28125 502.484375 432.03125 498.214844 432.03125 L 100.167969 432.03125 L 178.535156 379.84375 L 178.609375 379.789062 L 276.707031 314.480469 L 286.257812 308.183594 L 288.820312 306.449219 L 297.289062 310.148438 Z M 505.59375 402.035156 " fill-opacity="1" fill-rule="nonzero"/></g><g clip-path="url(#2716ed3f90)"><path fill="#f8ca82" d="M 505.59375 427.289062 L 505.59375 428.273438 C 505.59375 428.675781 505.59375 429.023438 505.515625 429.371094 C 505.59375 429.601562 505.515625 429.777344 505.515625 430.007812 C 505.515625 430.007812 505.515625 430.007812 505.515625 430.066406 C 504.984375 431.28125 502.558594 432.03125 498.394531 432.03125 L 77.792969 432.03125 C 73.625 432.03125 71.199219 431.28125 70.667969 430.066406 C 70.667969 430.007812 70.667969 430.007812 70.667969 430.007812 C 70.667969 429.777344 70.59375 429.601562 70.667969 429.371094 C 70.59375 429.023438 70.59375 428.675781 70.59375 428.273438 L 70.59375 427.289062 C 71.273438 426.59375 72.261719 425.902344 73.546875 425.207031 L 275.816406 311.957031 C 275.890625 311.957031 275.890625 311.898438 275.96875 311.84375 C 276.195312 311.726562 276.421875 311.609375 276.648438 311.496094 C 280.816406 309.238281 285.058594 307.675781 288.089844 307.101562 C 289.152344 307.332031 290.289062 307.621094 291.578125 308.082031 C 294.003906 308.835938 296.808594 310.050781 299.535156 311.496094 C 299.835938 311.667969 300.066406 311.785156 300.367188 311.957031 L 502.636719 425.207031 C 503.925781 425.957031 504.910156 426.652344 505.59375 427.289062 Z M 505.59375 427.289062 " fill-opacity="1" fill-rule="nonzero"/></g></svg>