<svg xmlns="http://www.w3.org/2000/svg" xmlns:xlink="http://www.w3.org/1999/xlink" width="768" zoomAndPan="magnify" viewBox="0 0 576 576" height="768" preserveAspectRatio="xMidYMid meet" version="1.0"><defs><clipPath id="a210c0e05e"><path d="M 0 0 L 573.574219 0 L 573.574219 576 L 0 576 Z M 0 0 " clip-rule="nonzero"/></clipPath></defs><g clip-path="url(#a210c0e05e)"><path fill="#84dbff" d="M 573.574219 288 C 573.574219 292.714844 573.457031 297.425781 573.226562 302.132812 C 572.996094 306.839844 572.648438 311.539062 572.1875 316.230469 C 571.726562 320.917969 571.148438 325.597656 570.457031 330.257812 C 569.765625 334.921875 568.960938 339.5625 568.039062 344.1875 C 567.121094 348.808594 566.089844 353.40625 564.941406 357.976562 C 563.796875 362.550781 562.542969 367.089844 561.171875 371.601562 C 559.804688 376.113281 558.328125 380.585938 556.738281 385.023438 C 555.152344 389.460938 553.457031 393.859375 551.652344 398.210938 C 549.847656 402.566406 547.9375 406.875 545.921875 411.136719 C 543.90625 415.398438 541.789062 419.605469 539.566406 423.761719 C 537.34375 427.917969 535.023438 432.019531 532.601562 436.0625 C 530.175781 440.105469 527.65625 444.085938 525.039062 448.003906 C 522.417969 451.921875 519.707031 455.777344 516.898438 459.5625 C 514.089844 463.347656 511.191406 467.0625 508.199219 470.707031 C 505.210938 474.347656 502.132812 477.917969 498.96875 481.410156 C 495.804688 484.902344 492.554688 488.3125 489.222656 491.648438 C 485.886719 494.980469 482.476562 498.230469 478.984375 501.394531 C 475.492188 504.558594 471.921875 507.636719 468.28125 510.628906 C 464.636719 513.617188 460.921875 516.515625 457.136719 519.324219 C 453.351562 522.132812 449.496094 524.84375 445.578125 527.464844 C 441.660156 530.082031 437.679688 532.601562 433.636719 535.027344 C 429.59375 537.449219 425.492188 539.769531 421.335938 541.992188 C 417.179688 544.214844 412.972656 546.332031 408.710938 548.347656 C 404.449219 550.363281 400.140625 552.273438 395.785156 554.078125 C 391.433594 555.882812 387.035156 557.578125 382.597656 559.164062 C 378.160156 560.753906 373.6875 562.230469 369.175781 563.597656 C 364.664062 564.96875 360.125 566.222656 355.550781 567.367188 C 350.980469 568.515625 346.382812 569.546875 341.761719 570.464844 C 337.136719 571.386719 332.496094 572.191406 327.832031 572.882812 C 323.171875 573.574219 318.492188 574.152344 313.804688 574.613281 C 309.113281 575.074219 304.414062 575.421875 299.707031 575.652344 C 294.996094 575.882812 290.289062 576 285.574219 576 C 280.859375 576 276.148438 575.882812 271.441406 575.652344 C 266.734375 575.421875 262.035156 575.074219 257.34375 574.613281 C 252.65625 574.152344 247.976562 573.574219 243.316406 572.882812 C 238.652344 572.191406 234.011719 571.386719 229.386719 570.464844 C 224.765625 569.546875 220.167969 568.515625 215.597656 567.367188 C 211.023438 566.222656 206.484375 564.96875 201.972656 563.597656 C 197.460938 562.230469 192.988281 560.753906 188.550781 559.164062 C 184.113281 557.578125 179.714844 555.882812 175.359375 554.078125 C 171.007812 552.273438 166.699219 550.363281 162.4375 548.347656 C 158.175781 546.332031 153.96875 544.214844 149.8125 541.992188 C 145.65625 539.769531 141.554688 537.449219 137.511719 535.027344 C 133.46875 532.601562 129.488281 530.082031 125.570312 527.464844 C 121.652344 524.84375 117.796875 522.132812 114.011719 519.324219 C 110.226562 516.515625 106.511719 513.617188 102.867188 510.628906 C 99.226562 507.636719 95.65625 504.558594 92.164062 501.394531 C 88.671875 498.230469 85.261719 494.980469 81.925781 491.648438 C 78.59375 488.3125 75.34375 484.902344 72.179688 481.410156 C 69.015625 477.917969 65.9375 474.347656 62.945312 470.707031 C 59.957031 467.0625 57.058594 463.347656 54.25 459.5625 C 51.441406 455.777344 48.730469 451.921875 46.109375 448.003906 C 43.492188 444.085938 40.972656 440.105469 38.546875 436.0625 C 36.125 432.019531 33.800781 427.917969 31.582031 423.761719 C 29.359375 419.605469 27.242188 415.398438 25.226562 411.136719 C 23.210938 406.875 21.300781 402.566406 19.496094 398.210938 C 17.691406 393.859375 15.996094 389.460938 14.410156 385.023438 C 12.820312 380.585938 11.34375 376.113281 9.976562 371.601562 C 8.605469 367.089844 7.351562 362.550781 6.207031 357.976562 C 5.058594 353.40625 4.027344 348.808594 3.109375 344.1875 C 2.1875 339.5625 1.382812 334.921875 0.691406 330.257812 C 0 325.597656 -0.578125 320.917969 -1.039062 316.230469 C -1.5 311.539062 -1.847656 306.839844 -2.078125 302.132812 C -2.308594 297.425781 -2.425781 292.714844 -2.425781 288 C -2.425781 283.285156 -2.308594 278.578125 -2.078125 273.867188 C -1.847656 269.160156 -1.5 264.460938 -1.039062 259.769531 C -0.578125 255.082031 0 250.402344 0.691406 245.742188 C 1.382812 241.078125 2.1875 236.4375 3.109375 231.8125 C 4.027344 227.191406 5.058594 222.59375 6.207031 218.023438 C 7.351562 213.449219 8.605469 208.910156 9.976562 204.398438 C 11.34375 199.886719 12.820312 195.414062 14.410156 190.976562 C 15.996094 186.539062 17.691406 182.140625 19.496094 177.789062 C 21.300781 173.433594 23.210938 169.125 25.226562 164.863281 C 27.242188 160.601562 29.359375 156.394531 31.582031 152.238281 C 33.800781 148.082031 36.125 143.980469 38.546875 139.9375 C 40.972656 135.894531 43.492188 131.914062 46.109375 127.996094 C 48.730469 124.078125 51.441406 120.222656 54.25 116.4375 C 57.058594 112.652344 59.957031 108.9375 62.945312 105.292969 C 65.9375 101.652344 69.015625 98.082031 72.179688 94.589844 C 75.34375 91.097656 78.59375 87.6875 81.925781 84.351562 C 85.261719 81.019531 88.671875 77.769531 92.164062 74.605469 C 95.65625 71.441406 99.226562 68.363281 102.867188 65.371094 C 106.511719 62.382812 110.226562 59.484375 114.011719 56.675781 C 117.796875 53.867188 121.652344 51.15625 125.570312 48.535156 C 129.488281 45.917969 133.46875 43.398438 137.511719 40.972656 C 141.554688 38.550781 145.65625 36.230469 149.8125 34.007812 C 153.96875 31.785156 158.175781 29.667969 162.4375 27.652344 C 166.699219 25.636719 171.007812 23.726562 175.359375 21.921875 C 179.714844 20.117188 184.113281 18.421875 188.550781 16.835938 C 192.988281 15.246094 197.460938 13.769531 201.972656 12.402344 C 206.484375 11.03125 211.023438 9.777344 215.597656 8.632812 C 220.167969 7.484375 224.765625 6.453125 229.386719 5.535156 C 234.011719 4.613281 238.652344 3.808594 243.316406 3.117188 C 247.976562 2.425781 252.65625 1.847656 257.34375 1.386719 C 262.035156 0.925781 266.734375 0.578125 271.441406 0.347656 C 276.148438 0.117188 280.859375 0 285.574219 0 C 290.289062 0 294.996094 0.117188 299.707031 0.347656 C 304.414062 0.578125 309.113281 0.925781 313.804688 1.386719 C 318.492188 1.847656 323.171875 2.425781 327.832031 3.117188 C 332.496094 3.808594 337.136719 4.613281 341.761719 5.535156 C 346.382812 6.453125 350.980469 7.484375 355.550781 8.632812 C 360.125 9.777344 364.664062 11.03125 369.175781 12.402344 C 373.6875 13.769531 378.160156 15.246094 382.597656 16.835938 C 387.035156 18.421875 391.433594 20.117188 395.785156 21.921875 C 400.140625 23.726562 404.449219 25.636719 408.710938 27.652344 C 412.972656 29.667969 417.179688 31.785156 421.335938 34.007812 C 425.492188 36.230469 429.59375 38.550781 433.636719 40.972656 C 437.679688 43.398438 441.660156 45.917969 445.578125 48.535156 C 449.496094 51.15625 453.351562 53.867188 457.136719 56.675781 C 460.921875 59.484375 464.636719 62.382812 468.28125 65.371094 C 471.921875 68.363281 475.492188 71.441406 478.984375 74.605469 C 482.476562 77.769531 485.886719 81.019531 489.222656 84.351562 C 492.554688 87.6875 495.800781 91.097656 498.96875 94.589844 C 502.132812 98.082031 505.210938 101.652344 508.199219 105.292969 C 511.191406 108.9375 514.089844 112.652344 516.898438 116.4375 C 519.707031 120.222656 522.417969 124.078125 525.039062 127.996094 C 527.65625 131.914062 530.175781 135.894531 532.601562 139.9375 C 535.023438 143.980469 537.34375 148.082031 539.566406 152.238281 C 541.789062 156.394531 543.90625 160.601562 545.921875 164.863281 C 547.9375 169.125 549.847656 173.433594 551.652344 177.789062 C 553.457031 182.140625 555.152344 186.539062 556.738281 190.976562 C 558.328125 195.414062 559.804688 199.886719 561.171875 204.398438 C 562.542969 208.910156 563.796875 213.449219 564.941406 218.023438 C 566.089844 222.59375 567.121094 227.191406 568.039062 231.8125 C 568.960938 236.4375 569.765625 241.078125 570.457031 245.742188 C 571.148438 250.402344 571.726562 255.082031 572.1875 259.769531 C 572.648438 264.460938 572.996094 269.160156 573.226562 273.867188 C 573.457031 278.578125 573.574219 283.285156 573.574219 288 Z M 573.574219 288 " fill-opacity="1" fill-rule="nonzero"/></g><path fill="#e6e9ee" d="M 113.226562 355.578125 L 192.597656 355.578125 L 192.597656 444.925781 L 113.226562 444.925781 Z M 113.226562 355.578125 " fill-opacity="1" fill-rule="nonzero"/><path fill="#f9b54c" d="M 182.621094 327.910156 C 182.621094 328.878906 182.574219 329.839844 182.480469 330.800781 C 182.386719 331.761719 182.246094 332.714844 182.0625 333.664062 C 181.875 334.609375 181.644531 335.546875 181.371094 336.46875 C 181.09375 337.394531 180.773438 338.300781 180.410156 339.195312 C 180.046875 340.085938 179.640625 340.957031 179.191406 341.808594 C 178.746094 342.660156 178.257812 343.488281 177.726562 344.289062 C 177.199219 345.09375 176.632812 345.867188 176.03125 346.613281 C 175.429688 347.359375 174.789062 348.074219 174.117188 348.757812 C 173.445312 349.441406 172.742188 350.089844 172.007812 350.699219 C 171.273438 351.3125 170.511719 351.886719 169.71875 352.421875 C 168.929688 352.960938 168.113281 353.457031 167.277344 353.910156 C 166.4375 354.367188 165.578125 354.777344 164.699219 355.148438 C 163.824219 355.515625 162.929688 355.84375 162.019531 356.121094 C 161.109375 356.402344 160.1875 356.636719 159.257812 356.824219 C 158.324219 357.015625 157.382812 357.15625 156.4375 357.25 C 155.492188 357.34375 154.542969 357.390625 153.59375 357.390625 C 152.640625 357.390625 151.695312 357.34375 150.746094 357.25 C 149.800781 357.15625 148.863281 357.015625 147.929688 356.824219 C 146.996094 356.636719 146.078125 356.402344 145.167969 356.121094 C 144.257812 355.84375 143.363281 355.515625 142.484375 355.148438 C 141.605469 354.777344 140.75 354.367188 139.910156 353.910156 C 139.070312 353.457031 138.257812 352.960938 137.464844 352.425781 C 136.675781 351.886719 135.914062 351.3125 135.179688 350.699219 C 134.445312 350.089844 133.742188 349.441406 133.066406 348.757812 C 132.394531 348.074219 131.757812 347.359375 131.15625 346.613281 C 130.550781 345.867188 129.988281 345.09375 129.457031 344.289062 C 128.929688 343.488281 128.441406 342.660156 127.992188 341.808594 C 127.546875 340.957031 127.140625 340.085938 126.777344 339.195312 C 126.410156 338.300781 126.09375 337.394531 125.816406 336.46875 C 125.539062 335.546875 125.308594 334.609375 125.125 333.664062 C 124.9375 332.714844 124.800781 331.761719 124.707031 330.800781 C 124.613281 329.839844 124.566406 328.878906 124.566406 327.910156 C 124.566406 326.945312 124.613281 325.984375 124.707031 325.023438 C 124.800781 324.0625 124.9375 323.109375 125.125 322.160156 C 125.308594 321.214844 125.539062 320.277344 125.816406 319.355469 C 126.09375 318.429688 126.410156 317.523438 126.777344 316.628906 C 127.140625 315.738281 127.546875 314.867188 127.992188 314.015625 C 128.441406 313.164062 128.929688 312.335938 129.457031 311.535156 C 129.988281 310.730469 130.550781 309.957031 131.15625 309.210938 C 131.757812 308.464844 132.394531 307.75 133.066406 307.066406 C 133.742188 306.382812 134.445312 305.734375 135.179688 305.125 C 135.914062 304.511719 136.675781 303.9375 137.464844 303.398438 C 138.257812 302.863281 139.070312 302.367188 139.910156 301.914062 C 140.75 301.457031 141.605469 301.046875 142.484375 300.675781 C 143.363281 300.304688 144.257812 299.980469 145.167969 299.699219 C 146.078125 299.421875 146.996094 299.1875 147.929688 298.996094 C 148.863281 298.808594 149.800781 298.667969 150.746094 298.574219 C 151.695312 298.480469 152.640625 298.429688 153.59375 298.429688 C 154.542969 298.429688 155.492188 298.480469 156.4375 298.574219 C 157.382812 298.667969 158.324219 298.808594 159.257812 298.996094 C 160.1875 299.1875 161.109375 299.421875 162.019531 299.699219 C 162.929688 299.980469 163.824219 300.304688 164.699219 300.675781 C 165.578125 301.046875 166.4375 301.457031 167.277344 301.914062 C 168.113281 302.367188 168.929688 302.863281 169.71875 303.398438 C 170.511719 303.9375 171.273438 304.511719 172.007812 305.125 C 172.742188 305.734375 173.445312 306.382812 174.117188 307.066406 C 174.789062 307.75 175.429688 308.464844 176.03125 309.210938 C 176.632812 309.957031 177.199219 310.730469 177.726562 311.535156 C 178.257812 312.335938 178.746094 313.164062 179.191406 314.015625 C 179.640625 314.867188 180.046875 315.738281 180.410156 316.628906 C 180.773438 317.523438 181.09375 318.429688 181.371094 319.355469 C 181.644531 320.277344 181.875 321.214844 182.0625 322.160156 C 182.246094 323.109375 182.386719 324.0625 182.480469 325.023438 C 182.574219 325.984375 182.621094 326.945312 182.621094 327.910156 Z M 182.621094 327.910156 " fill-opacity="1" fill-rule="nonzero"/><path fill="#f1543f" d="M 165.839844 357.390625 L 141.347656 357.390625 L 146.335938 371.90625 L 161.304688 371.90625 Z M 165.839844 357.390625 " fill-opacity="1" fill-rule="nonzero"/><path fill="#ff7058" d="M 133.636719 459.4375 C 139.988281 460.347656 146.789062 460.800781 153.59375 460.800781 C 160.394531 460.800781 167.199219 460.347656 173.550781 459.4375 L 161.304688 371.453125 L 146.335938 371.453125 Z M 133.636719 459.4375 " fill-opacity="1" fill-rule="nonzero"/><path fill="#324a5e" d="M 260.175781 406.828125 L 245.207031 361.019531 L 188.0625 333.355469 C 188.0625 353.308594 186.703125 402.292969 163.117188 460.800781 C 203.027344 458.078125 238.40625 437.214844 260.175781 406.828125 Z M 260.175781 406.828125 " fill-opacity="1" fill-rule="nonzero"/><path fill="#324a5e" d="M 144.070312 460.800781 C 120.484375 402.292969 119.125 352.855469 119.125 333.355469 L 61.523438 361.019531 L 46.558594 406.828125 C 69.234375 437.214844 104.15625 458.078125 144.070312 460.800781 Z M 144.070312 460.800781 " fill-opacity="1" fill-rule="nonzero"/><path fill="#ffffff" d="M 182.167969 322.015625 C 182.167969 322.015625 185.792969 342.425781 153.59375 357.84375 C 153.59375 357.84375 177.628906 359.660156 184.433594 382.335938 C 184.886719 382.789062 198.039062 333.808594 182.167969 322.015625 Z M 182.167969 322.015625 " fill-opacity="1" fill-rule="nonzero"/><path fill="#ffffff" d="M 125.019531 322.015625 C 125.019531 322.015625 121.390625 342.425781 153.59375 357.84375 C 153.59375 357.84375 129.554688 359.660156 122.753906 382.335938 C 122.296875 382.789062 109.597656 333.808594 125.019531 322.015625 Z M 125.019531 322.015625 " fill-opacity="1" fill-rule="nonzero"/><path fill="#ffd05b" d="M 201.214844 267.136719 C 201.214844 298.429688 179.898438 336.984375 153.59375 336.984375 C 127.289062 336.984375 105.972656 298.429688 105.972656 267.136719 C 105.972656 235.84375 127.289062 223.597656 153.59375 223.597656 C 179.898438 224.050781 201.214844 236.296875 201.214844 267.136719 Z M 201.214844 267.136719 " fill-opacity="1" fill-rule="nonzero"/><path fill="#324a5e" d="M 137.265625 217.246094 C 137.265625 217.246094 175.816406 201.828125 195.320312 236.75 C 216.183594 273.941406 189.875 314.304688 184.433594 317.480469 C 184.433594 317.480469 185.792969 311.128906 189.875 298.886719 C 189.875 298.886719 199.402344 271.21875 170.828125 267.136719 C 170.828125 267.136719 143.613281 263.507812 141.347656 257.613281 C 141.347656 257.613281 143.160156 267.589844 155.859375 269.40625 C 155.859375 269.40625 127.742188 268.953125 119.125 258.972656 C 119.125 258.972656 107.332031 298.429688 124.566406 320.203125 C 124.566406 320.203125 94.179688 296.164062 97.808594 258.519531 C 97.808594 258.519531 96.445312 207.269531 137.265625 217.246094 Z M 137.265625 217.246094 " fill-opacity="1" fill-rule="nonzero"/><path fill="#2b3b4e" d="M 447.035156 231.308594 C 447.035156 233.574219 446.128906 236.296875 444.769531 238.109375 C 437.964844 234.480469 429.800781 232.667969 421.183594 232.667969 C 412.566406 232.667969 404.402344 234.480469 397.597656 238.109375 C 396.238281 235.84375 395.332031 233.574219 395.332031 231.308594 C 395.332031 221.78125 406.671875 214.074219 421.183594 214.074219 C 435.695312 214.074219 447.035156 221.78125 447.035156 231.308594 Z M 447.035156 231.308594 " fill-opacity="1" fill-rule="nonzero"/><path fill="#324a5e" d="M 465.175781 281.195312 C 465.175781 287.09375 464.722656 293.441406 463.363281 299.792969 C 462.003906 298.886719 460.640625 298.886719 458.828125 299.339844 C 459.734375 283.464844 450.210938 281.195312 450.210938 281.195312 C 440.230469 277.570312 436.152344 268.042969 434.789062 260.789062 C 430.707031 265.324219 423.90625 270.3125 412.566406 274.847656 C 381.726562 287.546875 383.085938 299.339844 383.085938 299.339844 L 382.632812 298.886719 C 381.273438 298.429688 379.457031 298.429688 378.097656 298.886719 C 376.734375 292.535156 376.28125 286.1875 376.28125 280.289062 C 376.28125 245.367188 396.238281 231.761719 420.277344 231.761719 C 445.222656 232.667969 465.175781 246.273438 465.175781 281.195312 Z M 465.175781 281.195312 " fill-opacity="1" fill-rule="nonzero"/><path fill="#f9b54c" d="M 449.757812 338.796875 C 449.757812 338.796875 453.386719 358.753906 421.636719 374.625 L 421.183594 374.625 C 388.980469 359.207031 393.0625 338.796875 393.0625 338.796875 C 393.515625 336.527344 393.972656 334.714844 394.878906 332.902344 C 401.679688 345.144531 411.207031 353.765625 421.636719 353.765625 C 432.070312 353.765625 441.140625 345.144531 448.394531 332.445312 C 448.394531 334.714844 449.304688 336.984375 449.757812 338.796875 C 449.757812 339.25 449.757812 338.796875 449.757812 338.796875 Z M 449.757812 338.796875 " fill-opacity="1" fill-rule="nonzero"/><path fill="#ff7058" d="M 523.683594 410.910156 C 497.378906 437.214844 461.09375 453.542969 421.183594 453.542969 C 381.273438 453.542969 344.988281 437.214844 318.683594 410.910156 L 329.113281 378.253906 L 393.515625 346.960938 C 395.332031 354.21875 401.679688 365.101562 421.183594 374.625 L 421.636719 374.625 C 440.6875 365.101562 447.035156 354.21875 449.304688 346.960938 L 513.253906 377.800781 Z M 523.683594 410.910156 " fill-opacity="1" fill-rule="nonzero"/><path fill="#ffd05b" d="M 463.816406 300.246094 C 462.457031 299.339844 461.09375 299.339844 459.28125 299.792969 C 460.1875 283.917969 450.664062 281.652344 450.664062 281.652344 C 440.6875 278.023438 436.605469 268.496094 435.242188 261.242188 C 431.160156 265.777344 424.359375 270.765625 413.019531 275.300781 C 382.179688 288 383.539062 299.792969 383.539062 299.792969 L 383.085938 299.339844 C 381.273438 298.886719 379.910156 298.886719 378.550781 299.792969 C 375.375 302.058594 375.375 308.863281 378.097656 314.304688 C 380.816406 319.746094 385.355469 322.46875 388.527344 320.65625 C 395.785156 339.25 407.578125 353.765625 420.730469 353.765625 C 433.882812 353.765625 445.675781 339.25 452.933594 320.65625 C 456.105469 322.46875 460.640625 319.75 463.363281 314.304688 C 466.992188 308.863281 466.539062 302.511719 463.816406 300.246094 Z M 463.816406 300.246094 " fill-opacity="1" fill-rule="nonzero"/><path fill="#e6e9ee" d="M 364.945312 73.472656 L 237.953125 73.472656 C 229.335938 73.472656 222.078125 80.277344 222.078125 89.347656 L 222.078125 167.8125 C 222.078125 176.429688 228.882812 183.683594 237.953125 183.683594 L 315.960938 183.683594 L 369.480469 231.761719 L 352.246094 183.683594 L 364.945312 183.683594 C 373.5625 183.683594 380.816406 176.882812 380.816406 167.8125 L 380.816406 89.347656 C 380.363281 80.730469 373.5625 73.472656 364.945312 73.472656 Z M 364.945312 73.472656 " fill-opacity="1" fill-rule="nonzero"/><path fill="#ffffff" d="M 206.203125 49.890625 L 333.195312 49.890625 C 341.8125 49.890625 349.070312 56.691406 349.070312 65.765625 L 349.070312 144.226562 C 349.070312 152.84375 342.265625 160.101562 333.195312 160.101562 L 255.1875 160.101562 L 201.667969 207.722656 L 218.902344 159.648438 L 206.203125 159.648438 C 197.585938 159.648438 190.328125 152.84375 190.328125 143.773438 L 190.328125 65.765625 C 190.785156 57.144531 197.585938 49.890625 206.203125 49.890625 Z M 206.203125 49.890625 " fill-opacity="1" fill-rule="nonzero"/><path fill="#ffffff" d="M 449.757812 338.796875 C 449.757812 338.796875 453.386719 359.207031 421.183594 374.625 C 421.183594 374.625 445.222656 376.441406 452.023438 399.117188 C 452.476562 400.023438 465.175781 351.042969 449.757812 338.796875 Z M 449.757812 338.796875 " fill-opacity="1" fill-rule="nonzero"/><path fill="#ffffff" d="M 392.609375 338.796875 C 376.738281 351.042969 389.890625 400.023438 389.890625 399.117188 C 397.144531 376.894531 420.730469 374.625 420.730469 374.625 C 388.980469 359.207031 392.609375 338.796875 392.609375 338.796875 Z M 392.609375 338.796875 " fill-opacity="1" fill-rule="nonzero"/><path fill="#f1543f" d="M 486.039062 438.121094 C 488.308594 427.691406 486.949219 419.074219 486.949219 417.714844 L 494.203125 433.585938 C 491.484375 434.949219 488.761719 436.761719 486.039062 438.121094 Z M 486.039062 438.121094 " fill-opacity="1" fill-rule="nonzero"/><path fill="#f1543f" d="M 356.328125 438.121094 C 353.605469 436.761719 350.882812 435.402344 348.164062 433.585938 L 355.417969 417.714844 C 354.964844 419.074219 354.058594 427.691406 356.328125 438.121094 Z M 356.328125 438.121094 " fill-opacity="1" fill-rule="nonzero"/></svg>