<svg xmlns="http://www.w3.org/2000/svg" xmlns:xlink="http://www.w3.org/1999/xlink" width="768" zoomAndPan="magnify" viewBox="0 0 576 576" height="768" preserveAspectRatio="xMidYMid meet" version="1.0"><defs><filter x="0%" y="0%" width="100%" height="100%" id="fba008465b"><feColorMatrix values="0 0 0 0 1 0 0 0 0 1 0 0 0 0 1 0 0 0 1 0" color-interpolation-filters="sRGB"/></filter><mask id="dbf889ed92"><g filter="url(#fba008465b)"><rect x="-57.6" width="691.2" fill="#000000" y="-57.6" height="691.2" fill-opacity="0.2"/></g></mask><clipPath id="3d9098677f"><rect x="0" width="39" y="0" height="129"/></clipPath></defs><path fill="#9b8589" d="M 576 288 C 576 292.714844 575.882812 297.421875 575.652344 302.132812 C 575.421875 306.839844 575.074219 311.539062 574.613281 316.230469 C 574.152344 320.917969 573.574219 325.597656 572.882812 330.257812 C 572.191406 334.921875 571.386719 339.5625 570.464844 344.1875 C 569.546875 348.808594 568.515625 353.40625 567.367188 357.976562 C 566.222656 362.550781 564.96875 367.089844 563.597656 371.601562 C 562.230469 376.113281 560.753906 380.585938 559.164062 385.023438 C 557.578125 389.460938 555.882812 393.859375 554.078125 398.210938 C 552.273438 402.566406 550.363281 406.875 548.347656 411.136719 C 546.332031 415.398438 544.214844 419.605469 541.992188 423.761719 C 539.769531 427.917969 537.449219 432.019531 535.027344 436.0625 C 532.601562 440.105469 530.082031 444.085938 527.464844 448.003906 C 524.84375 451.921875 522.132812 455.777344 519.324219 459.5625 C 516.515625 463.347656 513.617188 467.0625 510.628906 470.707031 C 507.636719 474.347656 504.558594 477.917969 501.394531 481.410156 C 498.230469 484.902344 494.980469 488.3125 491.648438 491.648438 C 488.3125 494.980469 484.902344 498.230469 481.410156 501.394531 C 477.917969 504.558594 474.347656 507.636719 470.707031 510.628906 C 467.0625 513.617188 463.347656 516.515625 459.5625 519.324219 C 455.777344 522.132812 451.921875 524.84375 448.003906 527.464844 C 444.085938 530.082031 440.105469 532.601562 436.0625 535.027344 C 432.019531 537.449219 427.917969 539.769531 423.761719 541.992188 C 419.605469 544.214844 415.398438 546.332031 411.136719 548.347656 C 406.875 550.363281 402.566406 552.273438 398.210938 554.078125 C 393.859375 555.882812 389.460938 557.578125 385.023438 559.164062 C 380.585938 560.753906 376.113281 562.230469 371.601562 563.597656 C 367.089844 564.96875 362.550781 566.222656 357.976562 567.367188 C 353.40625 568.515625 348.808594 569.546875 344.1875 570.464844 C 339.5625 571.386719 334.921875 572.191406 330.257812 572.882812 C 325.597656 573.574219 320.917969 574.152344 316.230469 574.613281 C 311.539062 575.074219 306.839844 575.421875 302.132812 575.652344 C 297.421875 575.882812 292.714844 576 288 576 C 283.285156 576 278.574219 575.882812 273.867188 575.652344 C 269.160156 575.421875 264.460938 575.074219 259.769531 574.613281 C 255.082031 574.152344 250.402344 573.574219 245.742188 572.882812 C 241.078125 572.191406 236.4375 571.386719 231.8125 570.464844 C 227.191406 569.546875 222.59375 568.515625 218.023438 567.367188 C 213.449219 566.222656 208.910156 564.96875 204.398438 563.597656 C 199.886719 562.230469 195.414062 560.753906 190.976562 559.164062 C 186.539062 557.578125 182.140625 555.882812 177.785156 554.078125 C 173.433594 552.273438 169.125 550.363281 164.863281 548.347656 C 160.601562 546.332031 156.394531 544.214844 152.238281 541.992188 C 148.082031 539.769531 143.980469 537.449219 139.9375 535.027344 C 135.894531 532.601562 131.914062 530.082031 127.996094 527.464844 C 124.078125 524.84375 120.222656 522.132812 116.4375 519.324219 C 112.652344 516.515625 108.9375 513.617188 105.292969 510.628906 C 101.652344 507.636719 98.082031 504.558594 94.589844 501.394531 C 91.097656 498.230469 87.6875 494.980469 84.351562 491.648438 C 81.019531 488.3125 77.769531 484.902344 74.605469 481.410156 C 71.441406 477.917969 68.363281 474.347656 65.371094 470.707031 C 62.382812 467.0625 59.484375 463.347656 56.675781 459.5625 C 53.867188 455.777344 51.15625 451.921875 48.535156 448.003906 C 45.917969 444.085938 43.398438 440.105469 40.972656 436.0625 C 38.550781 432.019531 36.226562 427.917969 34.007812 423.761719 C 31.785156 419.605469 29.667969 415.398438 27.652344 411.136719 C 25.636719 406.875 23.726562 402.566406 21.921875 398.210938 C 20.117188 393.859375 18.421875 389.460938 16.835938 385.023438 C 15.246094 380.585938 13.769531 376.113281 12.402344 371.601562 C 11.03125 367.089844 9.777344 362.550781 8.632812 357.976562 C 7.484375 353.40625 6.453125 348.808594 5.535156 344.1875 C 4.613281 339.5625 3.808594 334.921875 3.117188 330.257812 C 2.425781 325.597656 1.847656 320.917969 1.386719 316.230469 C 0.925781 311.539062 0.578125 306.839844 0.347656 302.132812 C 0.117188 297.421875 0 292.714844 0 288 C 0 283.285156 0.117188 278.578125 0.347656 273.867188 C 0.578125 269.160156 0.925781 264.460938 1.386719 259.769531 C 1.847656 255.082031 2.425781 250.402344 3.117188 245.742188 C 3.808594 241.078125 4.613281 236.4375 5.535156 231.8125 C 6.453125 227.191406 7.484375 222.59375 8.632812 218.023438 C 9.777344 213.449219 11.03125 208.910156 12.402344 204.398438 C 13.769531 199.886719 15.246094 195.414062 16.835938 190.976562 C 18.421875 186.539062 20.117188 182.140625 21.921875 177.789062 C 23.726562 173.433594 25.636719 169.125 27.652344 164.863281 C 29.667969 160.601562 31.785156 156.394531 34.007812 152.238281 C 36.226562 148.082031 38.550781 143.980469 40.972656 139.9375 C 43.398438 135.894531 45.917969 131.914062 48.535156 127.996094 C 51.15625 124.078125 53.867188 120.222656 56.675781 116.4375 C 59.484375 112.652344 62.382812 108.9375 65.371094 105.292969 C 68.363281 101.652344 71.441406 98.082031 74.605469 94.589844 C 77.769531 91.097656 81.019531 87.6875 84.351562 84.351562 C 87.6875 81.019531 91.097656 77.769531 94.589844 74.605469 C 98.082031 71.441406 101.652344 68.363281 105.292969 65.371094 C 108.9375 62.382812 112.652344 59.484375 116.4375 56.675781 C 120.222656 53.867188 124.078125 51.15625 127.996094 48.535156 C 131.914062 45.917969 135.894531 43.398438 139.9375 40.972656 C 143.980469 38.550781 148.082031 36.230469 152.238281 34.007812 C 156.394531 31.785156 160.601562 29.667969 164.863281 27.652344 C 169.125 25.636719 173.433594 23.726562 177.789062 21.921875 C 182.140625 20.117188 186.539062 18.421875 190.976562 16.835938 C 195.414062 15.246094 199.886719 13.769531 204.398438 12.402344 C 208.910156 11.03125 213.449219 9.777344 218.023438 8.632812 C 222.59375 7.484375 227.191406 6.453125 231.8125 5.535156 C 236.4375 4.613281 241.078125 3.808594 245.742188 3.117188 C 250.402344 2.425781 255.082031 1.847656 259.769531 1.386719 C 264.460938 0.925781 269.160156 0.578125 273.867188 0.347656 C 278.574219 0.117188 283.285156 0 288 0 C 292.714844 0 297.421875 0.117188 302.132812 0.347656 C 306.839844 0.578125 311.539062 0.925781 316.230469 1.386719 C 320.917969 1.847656 325.597656 2.425781 330.257812 3.117188 C 334.921875 3.808594 339.5625 4.613281 344.1875 5.535156 C 348.808594 6.453125 353.40625 7.484375 357.976562 8.632812 C 362.550781 9.777344 367.089844 11.03125 371.601562 12.402344 C 376.113281 13.769531 380.585938 15.246094 385.023438 16.835938 C 389.460938 18.421875 393.859375 20.117188 398.210938 21.921875 C 402.566406 23.726562 406.875 25.636719 411.136719 27.652344 C 415.398438 29.667969 419.605469 31.785156 423.761719 34.007812 C 427.917969 36.230469 432.019531 38.550781 436.0625 40.972656 C 440.105469 43.398438 444.085938 45.917969 448.003906 48.535156 C 451.921875 51.15625 455.777344 53.867188 459.5625 56.675781 C 463.347656 59.484375 467.0625 62.382812 470.707031 65.371094 C 474.347656 68.363281 477.917969 71.441406 481.410156 74.605469 C 484.902344 77.769531 488.3125 81.019531 491.648438 84.351562 C 494.980469 87.6875 498.230469 91.097656 501.394531 94.589844 C 504.558594 98.082031 507.636719 101.652344 510.628906 105.292969 C 513.617188 108.9375 516.515625 112.652344 519.324219 116.4375 C 522.132812 120.222656 524.84375 124.078125 527.464844 127.996094 C 530.082031 131.914062 532.601562 135.894531 535.027344 139.9375 C 537.449219 143.980469 539.769531 148.082031 541.992188 152.238281 C 544.214844 156.394531 546.332031 160.601562 548.347656 164.863281 C 550.363281 169.125 552.273438 173.433594 554.078125 177.789062 C 555.882812 182.140625 557.578125 186.539062 559.164062 190.976562 C 560.753906 195.414062 562.230469 199.886719 563.597656 204.398438 C 564.96875 208.910156 566.222656 213.449219 567.367188 218.023438 C 568.515625 222.59375 569.546875 227.191406 570.464844 231.8125 C 571.386719 236.4375 572.191406 241.078125 572.882812 245.742188 C 573.574219 250.402344 574.152344 255.082031 574.613281 259.769531 C 575.074219 264.460938 575.421875 269.160156 575.652344 273.867188 C 575.882812 278.578125 576 283.285156 576 288 Z M 576 288 " fill-opacity="1" fill-rule="nonzero"/><path fill="#4d4c78" d="M 98.628906 393.925781 L 489.855469 393.925781 C 490.714844 393.925781 491.566406 394.011719 492.410156 394.179688 C 493.253906 394.347656 494.074219 394.59375 494.867188 394.925781 C 495.664062 395.253906 496.417969 395.65625 497.132812 396.136719 C 497.851562 396.613281 498.511719 397.15625 499.121094 397.765625 C 499.730469 398.375 500.273438 399.035156 500.75 399.75 C 501.226562 400.464844 501.632812 401.222656 501.960938 402.015625 C 502.289062 402.8125 502.539062 403.628906 502.707031 404.472656 C 502.875 405.320312 502.957031 406.171875 502.957031 407.03125 L 502.957031 407.035156 C 502.957031 407.894531 502.875 408.75 502.707031 409.59375 C 502.539062 410.4375 502.289062 411.253906 501.960938 412.050781 C 501.632812 412.84375 501.226562 413.601562 500.75 414.316406 C 500.273438 415.03125 499.730469 415.695312 499.121094 416.300781 C 498.511719 416.910156 497.851562 417.453125 497.132812 417.933594 C 496.417969 418.410156 495.664062 418.8125 494.867188 419.144531 C 494.074219 419.472656 493.253906 419.722656 492.410156 419.886719 C 491.566406 420.054688 490.714844 420.140625 489.855469 420.140625 L 98.628906 420.140625 C 97.769531 420.140625 96.917969 420.054688 96.074219 419.886719 C 95.230469 419.722656 94.410156 419.472656 93.613281 419.144531 C 92.820312 418.8125 92.066406 418.410156 91.347656 417.933594 C 90.632812 417.453125 89.972656 416.910156 89.363281 416.300781 C 88.753906 415.695312 88.210938 415.03125 87.734375 414.316406 C 87.253906 413.601562 86.851562 412.84375 86.523438 412.050781 C 86.191406 411.253906 85.945312 410.4375 85.777344 409.59375 C 85.609375 408.75 85.523438 407.894531 85.523438 407.035156 L 85.523438 407.03125 C 85.523438 406.171875 85.609375 405.320312 85.777344 404.472656 C 85.945312 403.628906 86.191406 402.8125 86.523438 402.015625 C 86.851562 401.222656 87.253906 400.464844 87.734375 399.75 C 88.210938 399.035156 88.753906 398.375 89.363281 397.765625 C 89.972656 397.15625 90.632812 396.613281 91.347656 396.136719 C 92.066406 395.65625 92.820312 395.253906 93.613281 394.925781 C 94.410156 394.59375 95.230469 394.347656 96.074219 394.179688 C 96.917969 394.011719 97.769531 393.925781 98.628906 393.925781 Z M 98.628906 393.925781 " fill-opacity="1" fill-rule="nonzero"/><path fill="#323150" d="M 489.855469 393.925781 L 104.199219 393.925781 C 104.175781 394.210938 104.175781 394.496094 104.175781 394.777344 C 104.175781 395.640625 104.257812 396.492188 104.425781 397.339844 C 104.59375 398.183594 104.839844 399.003906 105.167969 399.800781 C 105.496094 400.597656 105.902344 401.351562 106.378906 402.070312 C 106.855469 402.785156 107.398438 403.449219 108.007812 404.058594 C 108.617188 404.667969 109.277344 405.210938 109.996094 405.691406 C 110.710938 406.171875 111.464844 406.574219 112.261719 406.90625 C 113.058594 407.234375 113.878906 407.484375 114.722656 407.652344 C 115.566406 407.820312 116.421875 407.90625 117.28125 407.90625 L 502.914062 407.90625 C 502.9375 407.597656 502.957031 407.316406 502.957031 407.03125 C 502.957031 406.171875 502.875 405.320312 502.707031 404.472656 C 502.539062 403.628906 502.289062 402.8125 501.960938 402.015625 C 501.632812 401.222656 501.226562 400.464844 500.75 399.75 C 500.273438 399.035156 499.730469 398.375 499.121094 397.765625 C 498.511719 397.15625 497.851562 396.613281 497.132812 396.136719 C 496.417969 395.65625 495.664062 395.253906 494.867188 394.925781 C 494.074219 394.59375 493.253906 394.347656 492.410156 394.179688 C 491.566406 394.011719 490.714844 393.925781 489.855469 393.925781 Z M 489.855469 393.925781 " fill-opacity="1" fill-rule="nonzero"/><path fill="#67baeb" d="M 363.425781 143.28125 L 422.214844 132.914062 L 466.140625 382.03125 L 407.351562 392.394531 Z M 363.425781 143.28125 " fill-opacity="1" fill-rule="nonzero"/><path fill="#67baeb" d="M 122.152344 121.214844 L 186.714844 121.214844 L 186.714844 394.789062 L 122.152344 394.789062 Z M 122.152344 121.214844 " fill-opacity="1" fill-rule="nonzero"/><path fill="#f44533" d="M 292.539062 121.214844 L 357.101562 121.214844 L 357.101562 394.789062 L 292.539062 394.789062 Z M 292.539062 121.214844 " fill-opacity="1" fill-rule="nonzero"/><path fill="#de3226" d="M 292.539062 394.777344 L 357.101562 394.777344 L 357.101562 121.214844 L 346.179688 121.214844 L 346.179688 382.371094 L 292.539062 382.371094 Z M 292.539062 394.777344 " fill-opacity="1" fill-rule="nonzero"/><path fill="#f4c23f" d="M 186.714844 140.019531 L 239.703125 140.019531 L 239.703125 394.78125 L 186.714844 394.78125 Z M 186.714844 140.019531 " fill-opacity="1" fill-rule="nonzero"/><path fill="#f4a93f" d="M 225.855469 140.019531 L 225.855469 346.246094 C 225.855469 367.847656 208.339844 385.386719 186.714844 385.386719 L 186.714844 394.777344 L 239.703125 394.777344 L 239.703125 140.019531 Z M 225.855469 140.019531 " fill-opacity="1" fill-rule="nonzero"/><path fill="#c8c2e9" d="M 239.550781 156.835938 L 292.539062 156.835938 L 292.539062 394.792969 L 239.550781 394.792969 Z M 239.550781 156.835938 " fill-opacity="1" fill-rule="nonzero"/><path fill="#b9b1e0" d="M 282.382812 156.835938 L 282.382812 343.558594 C 282.382812 367.214844 263.207031 386.390625 239.550781 386.390625 L 239.550781 394.777344 L 292.539062 394.777344 L 292.539062 156.835938 Z M 282.382812 156.835938 " fill-opacity="1" fill-rule="nonzero"/><path fill="#4d4c78" d="M 122.152344 164.351562 L 186.714844 164.351562 L 186.714844 183.371094 L 122.152344 183.371094 Z M 122.152344 164.351562 " fill-opacity="1" fill-rule="nonzero"/><path fill="#4d4c78" d="M 122.152344 332.640625 L 186.714844 332.640625 L 186.714844 351.660156 L 122.152344 351.660156 Z M 122.152344 332.640625 " fill-opacity="1" fill-rule="nonzero"/><path fill="#f4a93f" d="M 205.367188 177.9375 L 218.625 177.9375 L 218.625 362.964844 L 205.367188 362.964844 Z M 205.367188 177.9375 " fill-opacity="1" fill-rule="nonzero"/><path fill="#4d4c78" d="M 278.015625 195.082031 L 254.074219 195.082031 C 253.789062 195.082031 253.503906 195.054688 253.222656 194.996094 C 252.941406 194.941406 252.667969 194.859375 252.402344 194.75 C 252.140625 194.640625 251.886719 194.503906 251.648438 194.34375 C 251.410156 194.1875 251.1875 194.003906 250.988281 193.800781 C 250.785156 193.597656 250.601562 193.378906 250.441406 193.140625 C 250.285156 192.902344 250.148438 192.648438 250.039062 192.386719 C 249.929688 192.121094 249.847656 191.847656 249.792969 191.566406 C 249.734375 191.285156 249.707031 191 249.707031 190.714844 C 249.707031 190.425781 249.734375 190.140625 249.792969 189.859375 C 249.847656 189.578125 249.929688 189.308594 250.039062 189.042969 C 250.148438 188.777344 250.285156 188.523438 250.441406 188.285156 C 250.601562 188.046875 250.785156 187.828125 250.988281 187.625 C 251.1875 187.421875 251.410156 187.242188 251.648438 187.082031 C 251.886719 186.921875 252.140625 186.789062 252.402344 186.675781 C 252.667969 186.566406 252.941406 186.484375 253.222656 186.429688 C 253.503906 186.375 253.789062 186.34375 254.074219 186.34375 L 278.015625 186.34375 C 278.300781 186.34375 278.585938 186.375 278.867188 186.429688 C 279.148438 186.484375 279.421875 186.566406 279.683594 186.675781 C 279.949219 186.789062 280.203125 186.921875 280.441406 187.082031 C 280.679688 187.242188 280.898438 187.421875 281.101562 187.625 C 281.304688 187.828125 281.488281 188.046875 281.644531 188.285156 C 281.804688 188.523438 281.941406 188.777344 282.050781 189.042969 C 282.160156 189.308594 282.242188 189.578125 282.296875 189.859375 C 282.355469 190.140625 282.382812 190.425781 282.382812 190.714844 C 282.382812 191 282.355469 191.285156 282.296875 191.566406 C 282.242188 191.847656 282.160156 192.121094 282.050781 192.386719 C 281.941406 192.648438 281.804688 192.902344 281.644531 193.140625 C 281.488281 193.378906 281.304688 193.597656 281.101562 193.800781 C 280.898438 194.003906 280.679688 194.1875 280.441406 194.34375 C 280.203125 194.503906 279.949219 194.640625 279.683594 194.75 C 279.421875 194.859375 279.148438 194.941406 278.867188 194.996094 C 278.585938 195.054688 278.300781 195.082031 278.015625 195.082031 Z M 278.015625 195.082031 " fill-opacity="1" fill-rule="nonzero"/><path fill="#4d4c78" d="M 278.015625 217.207031 L 254.074219 217.207031 C 253.789062 217.207031 253.503906 217.179688 253.222656 217.125 C 252.941406 217.066406 252.667969 216.984375 252.402344 216.875 C 252.140625 216.765625 251.886719 216.628906 251.648438 216.472656 C 251.410156 216.3125 251.1875 216.128906 250.988281 215.925781 C 250.785156 215.726562 250.601562 215.503906 250.441406 215.265625 C 250.285156 215.027344 250.148438 214.777344 250.039062 214.511719 C 249.929688 214.246094 249.847656 213.972656 249.792969 213.691406 C 249.734375 213.410156 249.707031 213.125 249.707031 212.839844 C 249.707031 212.550781 249.734375 212.269531 249.792969 211.988281 C 249.847656 211.707031 249.929688 211.433594 250.039062 211.167969 C 250.148438 210.902344 250.285156 210.652344 250.441406 210.410156 C 250.601562 210.171875 250.785156 209.953125 250.988281 209.75 C 251.1875 209.546875 251.410156 209.367188 251.648438 209.207031 C 251.886719 209.046875 252.140625 208.914062 252.402344 208.804688 C 252.667969 208.691406 252.941406 208.609375 253.222656 208.554688 C 253.503906 208.5 253.789062 208.46875 254.074219 208.46875 L 278.015625 208.46875 C 278.300781 208.46875 278.585938 208.5 278.867188 208.554688 C 279.148438 208.609375 279.421875 208.691406 279.683594 208.804688 C 279.949219 208.914062 280.203125 209.046875 280.441406 209.207031 C 280.679688 209.367188 280.898438 209.546875 281.101562 209.75 C 281.304688 209.953125 281.488281 210.171875 281.644531 210.410156 C 281.804688 210.652344 281.941406 210.902344 282.050781 211.167969 C 282.160156 211.433594 282.242188 211.707031 282.296875 211.988281 C 282.355469 212.269531 282.382812 212.550781 282.382812 212.839844 C 282.382812 213.125 282.355469 213.410156 282.296875 213.691406 C 282.242188 213.972656 282.160156 214.246094 282.050781 214.511719 C 281.941406 214.777344 281.804688 215.027344 281.644531 215.265625 C 281.488281 215.503906 281.304688 215.726562 281.101562 215.925781 C 280.898438 216.128906 280.679688 216.3125 280.441406 216.472656 C 280.203125 216.628906 279.949219 216.765625 279.683594 216.875 C 279.421875 216.984375 279.148438 217.066406 278.867188 217.125 C 278.585938 217.179688 278.300781 217.207031 278.015625 217.207031 Z M 278.015625 217.207031 " fill-opacity="1" fill-rule="nonzero"/><path fill="#4d4c78" d="M 278.015625 239.3125 L 254.074219 239.3125 C 253.789062 239.3125 253.503906 239.28125 253.222656 239.226562 C 252.941406 239.171875 252.667969 239.089844 252.402344 238.976562 C 252.140625 238.867188 251.886719 238.734375 251.648438 238.574219 C 251.410156 238.414062 251.1875 238.234375 250.988281 238.03125 C 250.785156 237.828125 250.601562 237.609375 250.441406 237.371094 C 250.285156 237.128906 250.148438 236.878906 250.039062 236.613281 C 249.929688 236.347656 249.847656 236.074219 249.792969 235.792969 C 249.734375 235.511719 249.707031 235.230469 249.707031 234.941406 C 249.707031 234.65625 249.734375 234.371094 249.792969 234.089844 C 249.847656 233.808594 249.929688 233.535156 250.039062 233.269531 C 250.148438 233.003906 250.285156 232.753906 250.441406 232.515625 C 250.601562 232.277344 250.785156 232.054688 250.988281 231.855469 C 251.1875 231.652344 251.410156 231.46875 251.648438 231.308594 C 251.886719 231.152344 252.140625 231.015625 252.402344 230.90625 C 252.667969 230.796875 252.941406 230.714844 253.222656 230.65625 C 253.503906 230.601562 253.789062 230.574219 254.074219 230.574219 L 278.015625 230.574219 C 278.300781 230.574219 278.585938 230.601562 278.867188 230.65625 C 279.148438 230.714844 279.421875 230.796875 279.683594 230.90625 C 279.949219 231.015625 280.203125 231.152344 280.441406 231.308594 C 280.679688 231.46875 280.898438 231.652344 281.101562 231.855469 C 281.304688 232.054688 281.488281 232.277344 281.644531 232.515625 C 281.804688 232.753906 281.941406 233.003906 282.050781 233.269531 C 282.160156 233.535156 282.242188 233.808594 282.296875 234.089844 C 282.355469 234.371094 282.382812 234.65625 282.382812 234.941406 C 282.382812 235.230469 282.355469 235.511719 282.296875 235.792969 C 282.242188 236.074219 282.160156 236.347656 282.050781 236.613281 C 281.941406 236.878906 281.804688 237.128906 281.644531 237.371094 C 281.488281 237.609375 281.304688 237.828125 281.101562 238.03125 C 280.898438 238.234375 280.679688 238.414062 280.441406 238.574219 C 280.203125 238.734375 279.949219 238.867188 279.683594 238.976562 C 279.421875 239.089844 279.148438 239.171875 278.867188 239.226562 C 278.585938 239.28125 278.300781 239.3125 278.015625 239.3125 Z M 278.015625 239.3125 " fill-opacity="1" fill-rule="nonzero"/><path fill="#4d4c78" d="M 273.90625 371.933594 L 258.183594 371.933594 C 257.894531 371.933594 257.609375 371.902344 257.328125 371.847656 C 257.046875 371.792969 256.773438 371.710938 256.511719 371.597656 C 256.246094 371.488281 255.992188 371.355469 255.753906 371.195312 C 255.515625 371.035156 255.296875 370.855469 255.09375 370.652344 C 254.890625 370.449219 254.707031 370.230469 254.550781 369.992188 C 254.390625 369.753906 254.253906 369.5 254.144531 369.234375 C 254.035156 368.96875 253.953125 368.695312 253.898438 368.414062 C 253.839844 368.132812 253.8125 367.851562 253.8125 367.5625 C 253.8125 367.277344 253.839844 366.992188 253.898438 366.710938 C 253.953125 366.429688 254.035156 366.15625 254.144531 365.890625 C 254.253906 365.628906 254.390625 365.375 254.550781 365.136719 C 254.707031 364.898438 254.890625 364.675781 255.09375 364.476562 C 255.296875 364.273438 255.515625 364.089844 255.753906 363.929688 C 255.992188 363.773438 256.246094 363.636719 256.511719 363.527344 C 256.773438 363.417969 257.046875 363.335938 257.328125 363.28125 C 257.609375 363.222656 257.894531 363.195312 258.183594 363.195312 L 273.90625 363.195312 C 274.195312 363.195312 274.476562 363.222656 274.757812 363.28125 C 275.042969 363.335938 275.3125 363.417969 275.578125 363.527344 C 275.84375 363.636719 276.097656 363.773438 276.335938 363.929688 C 276.574219 364.089844 276.792969 364.273438 276.996094 364.476562 C 277.199219 364.675781 277.378906 364.898438 277.539062 365.136719 C 277.699219 365.375 277.832031 365.628906 277.941406 365.890625 C 278.054688 366.15625 278.136719 366.429688 278.191406 366.710938 C 278.246094 366.992188 278.277344 367.277344 278.277344 367.5625 C 278.277344 367.851562 278.246094 368.132812 278.191406 368.414062 C 278.136719 368.695312 278.054688 368.96875 277.941406 369.234375 C 277.832031 369.5 277.699219 369.753906 277.539062 369.992188 C 277.378906 370.230469 277.199219 370.449219 276.996094 370.652344 C 276.792969 370.855469 276.574219 371.035156 276.335938 371.195312 C 276.097656 371.355469 275.84375 371.488281 275.578125 371.597656 C 275.3125 371.710938 275.042969 371.792969 274.757812 371.847656 C 274.476562 371.902344 274.195312 371.933594 273.90625 371.933594 Z M 273.90625 371.933594 " fill-opacity="1" fill-rule="nonzero"/><path fill="#b11a31" d="M 312.871094 352.953125 C 312.585938 352.949219 312.300781 352.921875 312.023438 352.863281 C 311.742188 352.808594 311.46875 352.722656 311.203125 352.613281 C 310.941406 352.503906 310.6875 352.367188 310.449219 352.207031 C 310.214844 352.050781 309.992188 351.867188 309.789062 351.664062 C 309.585938 351.464844 309.40625 351.242188 309.246094 351.003906 C 309.085938 350.765625 308.953125 350.515625 308.84375 350.25 C 308.734375 349.988281 308.648438 349.714844 308.59375 349.433594 C 308.535156 349.152344 308.503906 348.871094 308.503906 348.582031 L 308.503906 167.429688 C 308.503906 167.144531 308.53125 166.859375 308.589844 166.578125 C 308.644531 166.296875 308.726562 166.023438 308.835938 165.757812 C 308.945312 165.492188 309.082031 165.242188 309.242188 165.003906 C 309.398438 164.765625 309.582031 164.542969 309.785156 164.339844 C 309.988281 164.140625 310.207031 163.957031 310.445312 163.796875 C 310.683594 163.640625 310.9375 163.503906 311.199219 163.394531 C 311.464844 163.285156 311.738281 163.203125 312.019531 163.144531 C 312.300781 163.089844 312.585938 163.0625 312.871094 163.0625 C 313.160156 163.0625 313.445312 163.089844 313.726562 163.144531 C 314.007812 163.203125 314.28125 163.285156 314.542969 163.394531 C 314.808594 163.503906 315.0625 163.640625 315.300781 163.796875 C 315.539062 163.957031 315.757812 164.140625 315.960938 164.339844 C 316.164062 164.542969 316.34375 164.765625 316.503906 165.003906 C 316.664062 165.242188 316.796875 165.492188 316.910156 165.757812 C 317.019531 166.023438 317.101562 166.296875 317.15625 166.578125 C 317.214844 166.859375 317.242188 167.144531 317.242188 167.429688 L 317.242188 348.582031 C 317.242188 348.871094 317.214844 349.15625 317.15625 349.4375 C 317.101562 349.71875 317.019531 349.988281 316.910156 350.253906 C 316.796875 350.519531 316.664062 350.773438 316.503906 351.011719 C 316.34375 351.25 316.164062 351.46875 315.960938 351.671875 C 315.757812 351.875 315.539062 352.054688 315.300781 352.214844 C 315.0625 352.375 314.808594 352.507812 314.542969 352.621094 C 314.28125 352.730469 314.007812 352.8125 313.726562 352.867188 C 313.445312 352.921875 313.160156 352.953125 312.871094 352.953125 Z M 312.871094 352.953125 " fill-opacity="1" fill-rule="nonzero"/><path fill="#b11a31" d="M 336.746094 352.953125 C 336.457031 352.953125 336.175781 352.921875 335.894531 352.867188 C 335.613281 352.8125 335.339844 352.730469 335.074219 352.621094 C 334.808594 352.507812 334.558594 352.375 334.320312 352.214844 C 334.078125 352.054688 333.859375 351.875 333.65625 351.671875 C 333.453125 351.46875 333.273438 351.25 333.113281 351.011719 C 332.953125 350.773438 332.820312 350.519531 332.710938 350.253906 C 332.601562 349.988281 332.515625 349.71875 332.460938 349.4375 C 332.40625 349.15625 332.378906 348.871094 332.378906 348.582031 L 332.378906 167.429688 C 332.378906 167.144531 332.40625 166.859375 332.460938 166.578125 C 332.515625 166.296875 332.601562 166.023438 332.710938 165.757812 C 332.820312 165.492188 332.953125 165.242188 333.113281 165.003906 C 333.273438 164.765625 333.453125 164.542969 333.65625 164.339844 C 333.859375 164.140625 334.078125 163.957031 334.320312 163.796875 C 334.558594 163.640625 334.808594 163.503906 335.074219 163.394531 C 335.339844 163.285156 335.613281 163.203125 335.894531 163.144531 C 336.175781 163.089844 336.457031 163.0625 336.746094 163.0625 C 337.03125 163.0625 337.316406 163.089844 337.597656 163.144531 C 337.878906 163.203125 338.152344 163.285156 338.417969 163.394531 C 338.683594 163.503906 338.933594 163.640625 339.171875 163.796875 C 339.410156 163.957031 339.632812 164.140625 339.835938 164.339844 C 340.035156 164.542969 340.21875 164.765625 340.378906 165.003906 C 340.535156 165.242188 340.671875 165.492188 340.78125 165.757812 C 340.890625 166.023438 340.972656 166.296875 341.03125 166.578125 C 341.085938 166.859375 341.113281 167.144531 341.113281 167.429688 L 341.113281 348.582031 C 341.113281 348.871094 341.082031 349.152344 341.027344 349.433594 C 340.96875 349.714844 340.886719 349.988281 340.777344 350.25 C 340.664062 350.515625 340.53125 350.765625 340.371094 351.003906 C 340.210938 351.242188 340.03125 351.464844 339.828125 351.664062 C 339.625 351.867188 339.40625 352.050781 339.167969 352.207031 C 338.929688 352.367188 338.679688 352.503906 338.414062 352.613281 C 338.148438 352.722656 337.875 352.808594 337.597656 352.863281 C 337.316406 352.921875 337.03125 352.949219 336.746094 352.953125 Z M 336.746094 352.953125 " fill-opacity="1" fill-rule="nonzero"/><path fill="#4d4c78" d="M 460.476562 348.714844 L 401.703125 359.132812 L 403.230469 367.738281 L 462.007812 357.320312 Z M 460.476562 348.714844 " fill-opacity="1" fill-rule="nonzero"/><path fill="#4d4c78" d="M 367.722656 167.667969 L 426.507812 157.304688 L 428.027344 165.90625 L 369.242188 176.273438 Z M 367.722656 167.667969 " fill-opacity="1" fill-rule="nonzero"/><path fill="#4d4c78" d="M 437.761719 220.351562 L 436.234375 211.769531 L 377.457031 222.164062 L 378.988281 230.769531 Z M 437.761719 220.351562 " fill-opacity="1" fill-rule="nonzero"/><path fill="#4d4c78" d="M 452.332031 302.605469 L 450.800781 294 L 392.003906 304.421875 L 393.535156 313.027344 Z M 452.332031 302.605469 " fill-opacity="1" fill-rule="nonzero"/><path fill="#323150" d="M 168.0625 334.953125 L 168.0625 121.214844 L 186.714844 121.214844 L 186.714844 394.777344 L 122.152344 394.777344 L 122.152344 380.863281 C 147.511719 380.863281 168.0625 360.3125 168.0625 334.953125 Z M 168.0625 334.953125 " fill-opacity="0.098" fill-rule="nonzero"/><path fill="#323150" d="M 422.234375 132.636719 L 407.273438 135.300781 L 441.933594 331.175781 C 446.039062 354.328125 430.597656 376.429688 407.425781 380.515625 L 405.546875 380.863281 L 407.535156 392.136719 L 466.332031 381.738281 Z M 422.234375 132.636719 " fill-opacity="0.098" fill-rule="nonzero"/><path fill="#83d0fb" d="M 129.230469 204.210938 C 129.695312 204.210938 130.15625 204.257812 130.609375 204.347656 C 131.066406 204.4375 131.507812 204.574219 131.9375 204.75 C 132.367188 204.929688 132.773438 205.144531 133.160156 205.402344 C 133.546875 205.664062 133.90625 205.957031 134.234375 206.285156 C 134.5625 206.613281 134.855469 206.96875 135.113281 207.355469 C 135.371094 207.742188 135.589844 208.152344 135.769531 208.578125 C 135.945312 209.007812 136.078125 209.453125 136.171875 209.90625 C 136.261719 210.363281 136.304688 210.824219 136.304688 211.289062 L 136.304688 311.75 C 136.304688 312.214844 136.261719 312.675781 136.171875 313.128906 C 136.078125 313.585938 135.945312 314.027344 135.769531 314.457031 C 135.589844 314.886719 135.371094 315.296875 135.113281 315.679688 C 134.855469 316.066406 134.5625 316.425781 134.234375 316.753906 C 133.90625 317.082031 133.546875 317.375 133.160156 317.632812 C 132.773438 317.890625 132.367188 318.109375 131.9375 318.289062 C 131.507812 318.464844 131.066406 318.601562 130.609375 318.691406 C 130.15625 318.78125 129.695312 318.828125 129.230469 318.828125 C 128.765625 318.828125 128.304688 318.78125 127.847656 318.691406 C 127.394531 318.601562 126.949219 318.464844 126.523438 318.289062 C 126.09375 318.109375 125.683594 317.890625 125.296875 317.632812 C 124.910156 317.375 124.554688 317.082031 124.226562 316.753906 C 123.898438 316.425781 123.605469 316.066406 123.34375 315.679688 C 123.085938 315.296875 122.871094 314.886719 122.691406 314.457031 C 122.515625 314.027344 122.378906 313.585938 122.289062 313.128906 C 122.199219 312.675781 122.152344 312.214844 122.152344 311.75 L 122.152344 211.289062 C 122.152344 210.824219 122.199219 210.363281 122.289062 209.90625 C 122.378906 209.453125 122.515625 209.007812 122.691406 208.578125 C 122.871094 208.152344 123.085938 207.742188 123.34375 207.355469 C 123.605469 206.96875 123.898438 206.613281 124.226562 206.285156 C 124.554688 205.957031 124.910156 205.664062 125.296875 205.402344 C 125.683594 205.144531 126.09375 204.929688 126.523438 204.75 C 126.949219 204.574219 127.394531 204.4375 127.847656 204.347656 C 128.304688 204.257812 128.765625 204.210938 129.230469 204.210938 Z M 129.230469 204.210938 " fill-opacity="1" fill-rule="nonzero"/><g mask="url(#dbf889ed92)"><g transform="matrix(1, 0, 0, 1, 372, 191)"><g clip-path="url(#3d9098677f)"><path fill="#ffffff" d="M 8.847656 1.636719 C 9.355469 1.546875 9.871094 1.507812 10.386719 1.519531 C 10.90625 1.53125 11.417969 1.59375 11.921875 1.703125 C 12.429688 1.816406 12.917969 1.976562 13.390625 2.183594 C 13.867188 2.394531 14.3125 2.644531 14.738281 2.945312 C 15.164062 3.242188 15.554688 3.574219 15.910156 3.949219 C 16.269531 4.324219 16.585938 4.730469 16.867188 5.164062 C 17.144531 5.601562 17.378906 6.0625 17.566406 6.542969 C 17.753906 7.027344 17.890625 7.523438 17.980469 8.03125 L 37.394531 118.140625 C 37.484375 118.648438 37.523438 119.164062 37.511719 119.679688 C 37.503906 120.199219 37.441406 120.710938 37.328125 121.214844 C 37.214844 121.71875 37.054688 122.210938 36.847656 122.683594 C 36.640625 123.15625 36.386719 123.605469 36.089844 124.03125 C 35.792969 124.453125 35.457031 124.84375 35.082031 125.203125 C 34.710938 125.5625 34.304688 125.878906 33.867188 126.15625 C 33.429688 126.4375 32.972656 126.667969 32.488281 126.855469 C 32.003906 127.042969 31.507812 127.183594 31 127.273438 C 30.488281 127.363281 29.976562 127.402344 29.457031 127.390625 C 28.941406 127.378906 28.429688 127.316406 27.925781 127.207031 C 27.417969 127.09375 26.929688 126.933594 26.453125 126.726562 C 25.980469 126.515625 25.53125 126.265625 25.109375 125.964844 C 24.683594 125.667969 24.292969 125.335938 23.933594 124.960938 C 23.578125 124.585938 23.257812 124.179688 22.980469 123.746094 C 22.703125 123.308594 22.46875 122.847656 22.28125 122.367188 C 22.09375 121.882812 21.957031 121.386719 21.867188 120.878906 L 2.449219 10.769531 C 2.359375 10.261719 2.320312 9.746094 2.332031 9.230469 C 2.34375 8.710938 2.40625 8.199219 2.519531 7.695312 C 2.628906 7.191406 2.789062 6.699219 3 6.226562 C 3.207031 5.753906 3.460938 5.304688 3.757812 4.878906 C 4.054688 4.457031 4.390625 4.066406 4.761719 3.707031 C 5.136719 3.347656 5.542969 3.03125 5.980469 2.753906 C 6.417969 2.472656 6.875 2.242188 7.359375 2.054688 C 7.839844 1.867188 8.335938 1.726562 8.847656 1.636719 Z M 8.847656 1.636719 " fill-opacity="1" fill-rule="nonzero"/><path fill="#231f20" d="M 29.746094 127.265625 C 29.28125 127.265625 28.816406 127.226562 28.359375 127.144531 C 27.898438 127.0625 27.449219 126.941406 27.011719 126.78125 C 26.574219 126.621094 26.152344 126.425781 25.75 126.191406 C 25.347656 125.957031 24.964844 125.691406 24.609375 125.390625 C 24.253906 125.089844 23.925781 124.761719 23.625 124.402344 C 23.328125 124.046875 23.0625 123.664062 22.828125 123.261719 C 22.597656 122.855469 22.398438 122.433594 22.242188 121.996094 C 22.082031 121.558594 21.964844 121.109375 21.882812 120.648438 L 2.398438 10.546875 C 2.308594 10.03125 2.269531 9.511719 2.28125 8.984375 C 2.289062 8.460938 2.351562 7.945312 2.464844 7.433594 C 2.578125 6.921875 2.742188 6.425781 2.953125 5.945312 C 3.160156 5.464844 3.417969 5.007812 3.71875 4.578125 C 4.015625 4.148438 4.355469 3.753906 4.734375 3.390625 C 5.113281 3.027344 5.523438 2.703125 5.964844 2.421875 C 6.40625 2.140625 6.871094 1.902344 7.359375 1.710938 C 7.847656 1.519531 8.347656 1.378906 8.863281 1.285156 C 9.382812 1.195312 9.90625 1.15625 10.429688 1.167969 C 10.957031 1.175781 11.476562 1.238281 11.988281 1.355469 C 12.5 1.46875 13 1.628906 13.480469 1.839844 C 13.960938 2.050781 14.417969 2.308594 14.847656 2.609375 C 15.277344 2.910156 15.675781 3.25 16.039062 3.628906 C 16.402344 4.007812 16.726562 4.421875 17.011719 4.863281 C 17.292969 5.304688 17.53125 5.773438 17.722656 6.261719 C 17.914062 6.75 18.054688 7.253906 18.148438 7.773438 L 37.628906 117.875 C 37.722656 118.390625 37.761719 118.914062 37.75 119.4375 C 37.738281 119.960938 37.675781 120.476562 37.566406 120.992188 C 37.453125 121.503906 37.289062 122 37.078125 122.476562 C 36.867188 122.957031 36.613281 123.414062 36.3125 123.84375 C 36.011719 124.273438 35.675781 124.667969 35.296875 125.03125 C 34.917969 125.394531 34.507812 125.71875 34.066406 126 C 33.625 126.285156 33.160156 126.519531 32.671875 126.710938 C 32.183594 126.902344 31.679688 127.042969 31.164062 127.136719 C 30.695312 127.222656 30.222656 127.265625 29.746094 127.265625 Z M 10.261719 1.394531 C 9.808594 1.398438 9.355469 1.441406 8.910156 1.527344 C 8.40625 1.613281 7.917969 1.75 7.445312 1.9375 C 6.96875 2.121094 6.515625 2.351562 6.085938 2.625 C 5.65625 2.898438 5.257812 3.210938 4.890625 3.566406 C 4.523438 3.917969 4.195312 4.304688 3.902344 4.722656 C 3.613281 5.140625 3.363281 5.582031 3.160156 6.050781 C 2.957031 6.515625 2.800781 7 2.691406 7.496094 C 2.585938 7.996094 2.527344 8.5 2.515625 9.007812 C 2.507812 9.519531 2.550781 10.023438 2.640625 10.523438 L 22.121094 120.605469 C 22.210938 121.109375 22.351562 121.59375 22.535156 122.070312 C 22.722656 122.542969 22.953125 122.996094 23.226562 123.425781 C 23.5 123.855469 23.8125 124.253906 24.167969 124.621094 C 24.519531 124.988281 24.90625 125.320312 25.324219 125.609375 C 25.738281 125.902344 26.183594 126.152344 26.648438 126.355469 C 27.113281 126.5625 27.597656 126.71875 28.09375 126.828125 C 28.59375 126.9375 29.09375 127 29.605469 127.011719 C 30.113281 127.023438 30.621094 126.984375 31.121094 126.894531 C 31.621094 126.808594 32.109375 126.671875 32.582031 126.488281 C 33.058594 126.300781 33.507812 126.074219 33.9375 125.800781 C 34.367188 125.527344 34.765625 125.214844 35.132812 124.863281 C 35.5 124.511719 35.828125 124.125 36.117188 123.707031 C 36.410156 123.292969 36.65625 122.851562 36.859375 122.382812 C 37.066406 121.917969 37.222656 121.4375 37.332031 120.941406 C 37.441406 120.445312 37.5 119.941406 37.507812 119.433594 C 37.519531 118.925781 37.480469 118.421875 37.390625 117.917969 L 17.90625 7.816406 C 17.828125 7.371094 17.710938 6.933594 17.558594 6.507812 C 17.402344 6.085938 17.210938 5.675781 16.984375 5.28125 C 16.757812 4.890625 16.5 4.519531 16.207031 4.175781 C 15.917969 3.828125 15.597656 3.507812 15.253906 3.21875 C 14.90625 2.925781 14.535156 2.667969 14.144531 2.441406 C 13.75 2.214844 13.34375 2.023438 12.917969 1.867188 C 12.492188 1.710938 12.058594 1.59375 11.609375 1.515625 C 11.164062 1.4375 10.714844 1.394531 10.261719 1.394531 Z M 10.261719 1.394531 " fill-opacity="1" fill-rule="nonzero"/></g></g></g><path fill="#83d0fb" d="M 129.230469 127.789062 C 129.695312 127.789062 130.15625 127.832031 130.609375 127.925781 C 131.066406 128.015625 131.507812 128.148438 131.9375 128.328125 C 132.367188 128.503906 132.773438 128.722656 133.160156 128.980469 C 133.546875 129.238281 133.90625 129.53125 134.234375 129.859375 C 134.5625 130.1875 134.855469 130.546875 135.113281 130.933594 C 135.371094 131.320312 135.589844 131.726562 135.769531 132.15625 C 135.945312 132.585938 136.078125 133.027344 136.171875 133.484375 C 136.261719 133.941406 136.304688 134.398438 136.304688 134.863281 L 136.304688 149.96875 C 136.304688 150.433594 136.261719 150.894531 136.171875 151.347656 C 136.078125 151.804688 135.945312 152.246094 135.769531 152.675781 C 135.589844 153.105469 135.371094 153.511719 135.113281 153.898438 C 134.855469 154.285156 134.5625 154.644531 134.234375 154.972656 C 133.90625 155.300781 133.546875 155.59375 133.160156 155.851562 C 132.773438 156.109375 132.367188 156.328125 131.9375 156.507812 C 131.507812 156.683594 131.066406 156.816406 130.609375 156.910156 C 130.15625 157 129.695312 157.042969 129.230469 157.042969 C 128.765625 157.042969 128.304688 157 127.847656 156.910156 C 127.394531 156.816406 126.949219 156.683594 126.523438 156.507812 C 126.09375 156.328125 125.683594 156.109375 125.296875 155.851562 C 124.910156 155.59375 124.554688 155.300781 124.226562 154.972656 C 123.898438 154.644531 123.605469 154.285156 123.34375 153.898438 C 123.085938 153.511719 122.871094 153.105469 122.691406 152.675781 C 122.515625 152.246094 122.378906 151.804688 122.289062 151.347656 C 122.199219 150.894531 122.152344 150.433594 122.152344 149.96875 L 122.152344 134.863281 C 122.152344 134.398438 122.199219 133.941406 122.289062 133.484375 C 122.378906 133.027344 122.515625 132.585938 122.691406 132.15625 C 122.871094 131.726562 123.085938 131.320312 123.34375 130.933594 C 123.605469 130.546875 123.898438 130.1875 124.226562 129.859375 C 124.554688 129.53125 124.910156 129.238281 125.296875 128.980469 C 125.683594 128.722656 126.09375 128.503906 126.523438 128.328125 C 126.949219 128.148438 127.394531 128.015625 127.847656 127.925781 C 128.304688 127.832031 128.765625 127.789062 129.230469 127.789062 Z M 129.230469 127.789062 " fill-opacity="1" fill-rule="nonzero"/><path fill="#fad564" d="M 192.023438 144.410156 C 192.371094 144.410156 192.71875 144.445312 193.058594 144.511719 C 193.402344 144.578125 193.734375 144.679688 194.054688 144.8125 C 194.375 144.945312 194.683594 145.109375 194.972656 145.304688 C 195.261719 145.496094 195.53125 145.71875 195.777344 145.964844 C 196.023438 146.210938 196.242188 146.480469 196.4375 146.769531 C 196.628906 147.058594 196.792969 147.363281 196.925781 147.6875 C 197.0625 148.007812 197.160156 148.339844 197.230469 148.679688 C 197.296875 149.023438 197.332031 149.367188 197.332031 149.71875 L 197.332031 267.199219 C 197.332031 267.546875 197.296875 267.894531 197.230469 268.234375 C 197.160156 268.578125 197.0625 268.910156 196.925781 269.230469 C 196.792969 269.554688 196.628906 269.859375 196.4375 270.148438 C 196.242188 270.4375 196.023438 270.707031 195.777344 270.953125 C 195.53125 271.199219 195.261719 271.417969 194.972656 271.613281 C 194.683594 271.804688 194.375 271.96875 194.054688 272.101562 C 193.734375 272.238281 193.402344 272.335938 193.058594 272.40625 C 192.71875 272.472656 192.371094 272.507812 192.023438 272.507812 C 191.675781 272.507812 191.332031 272.472656 190.988281 272.40625 C 190.648438 272.335938 190.316406 272.238281 189.992188 272.101562 C 189.671875 271.96875 189.363281 271.804688 189.074219 271.613281 C 188.785156 271.417969 188.515625 271.199219 188.269531 270.953125 C 188.023438 270.707031 187.804688 270.4375 187.609375 270.148438 C 187.417969 269.859375 187.253906 269.554688 187.121094 269.230469 C 186.988281 268.910156 186.886719 268.578125 186.820312 268.234375 C 186.75 267.894531 186.714844 267.546875 186.714844 267.199219 L 186.714844 149.71875 C 186.714844 149.367188 186.75 149.023438 186.820312 148.679688 C 186.886719 148.339844 186.988281 148.007812 187.121094 147.6875 C 187.253906 147.363281 187.417969 147.058594 187.609375 146.769531 C 187.804688 146.480469 188.023438 146.210938 188.269531 145.964844 C 188.515625 145.71875 188.785156 145.496094 189.074219 145.304688 C 189.363281 145.109375 189.671875 144.945312 189.992188 144.8125 C 190.316406 144.679688 190.648438 144.578125 190.988281 144.511719 C 191.332031 144.445312 191.675781 144.410156 192.023438 144.410156 Z M 192.023438 144.410156 " fill-opacity="1" fill-rule="nonzero"/><path fill="#dfdafd" d="M 244.617188 253.769531 L 244.640625 253.769531 C 244.972656 253.769531 245.300781 253.800781 245.628906 253.867188 C 245.953125 253.933594 246.273438 254.027344 246.578125 254.15625 C 246.886719 254.28125 247.179688 254.4375 247.457031 254.625 C 247.730469 254.808594 247.988281 255.019531 248.222656 255.253906 C 248.457031 255.488281 248.667969 255.746094 248.851562 256.023438 C 249.039062 256.296875 249.195312 256.589844 249.320312 256.898438 C 249.449219 257.207031 249.542969 257.523438 249.609375 257.847656 C 249.675781 258.175781 249.707031 258.503906 249.707031 258.835938 L 249.707031 321.152344 C 249.707031 321.484375 249.675781 321.816406 249.609375 322.140625 C 249.542969 322.46875 249.449219 322.785156 249.320312 323.09375 C 249.195312 323.398438 249.039062 323.691406 248.851562 323.96875 C 248.667969 324.246094 248.457031 324.5 248.222656 324.734375 C 247.988281 324.972656 247.730469 325.179688 247.457031 325.367188 C 247.179688 325.550781 246.886719 325.707031 246.578125 325.835938 C 246.273438 325.960938 245.953125 326.058594 245.628906 326.121094 C 245.300781 326.1875 244.972656 326.21875 244.640625 326.21875 L 244.617188 326.21875 C 244.285156 326.21875 243.957031 326.1875 243.628906 326.121094 C 243.304688 326.058594 242.988281 325.960938 242.679688 325.835938 C 242.371094 325.707031 242.078125 325.550781 241.804688 325.367188 C 241.527344 325.179688 241.269531 324.972656 241.035156 324.734375 C 240.800781 324.5 240.589844 324.246094 240.40625 323.96875 C 240.21875 323.691406 240.0625 323.398438 239.9375 323.09375 C 239.808594 322.785156 239.714844 322.46875 239.648438 322.140625 C 239.582031 321.816406 239.550781 321.484375 239.550781 321.152344 L 239.550781 258.835938 C 239.550781 258.503906 239.582031 258.175781 239.648438 257.847656 C 239.714844 257.523438 239.808594 257.207031 239.9375 256.898438 C 240.0625 256.589844 240.21875 256.296875 240.40625 256.023438 C 240.589844 255.746094 240.800781 255.488281 241.035156 255.253906 C 241.269531 255.019531 241.527344 254.808594 241.804688 254.625 C 242.078125 254.4375 242.371094 254.28125 242.679688 254.15625 C 242.988281 254.027344 243.304688 253.933594 243.628906 253.867188 C 243.957031 253.800781 244.285156 253.769531 244.617188 253.769531 Z M 244.617188 253.769531 " fill-opacity="1" fill-rule="nonzero"/><path fill="#dfdafd" d="M 243.746094 156.835938 L 261.851562 156.835938 C 262.125 156.835938 262.398438 156.863281 262.667969 156.917969 C 262.9375 156.972656 263.203125 157.050781 263.457031 157.15625 C 263.710938 157.261719 263.953125 157.390625 264.179688 157.542969 C 264.410156 157.695312 264.621094 157.871094 264.816406 158.066406 C 265.011719 158.261719 265.183594 158.472656 265.335938 158.699219 C 265.492188 158.929688 265.621094 159.171875 265.726562 159.425781 C 265.832031 159.679688 265.910156 159.941406 265.964844 160.210938 C 266.019531 160.484375 266.042969 160.753906 266.042969 161.03125 L 266.042969 165.121094 C 266.042969 165.398438 266.019531 165.667969 265.964844 165.941406 C 265.910156 166.210938 265.832031 166.472656 265.726562 166.726562 C 265.621094 166.980469 265.492188 167.222656 265.335938 167.453125 C 265.183594 167.679688 265.011719 167.890625 264.816406 168.085938 C 264.621094 168.28125 264.410156 168.457031 264.179688 168.609375 C 263.953125 168.761719 263.710938 168.890625 263.457031 168.996094 C 263.203125 169.101562 262.9375 169.179688 262.667969 169.234375 C 262.398438 169.289062 262.125 169.316406 261.851562 169.316406 L 243.746094 169.316406 C 243.46875 169.316406 243.195312 169.289062 242.925781 169.234375 C 242.65625 169.179688 242.394531 169.101562 242.140625 168.996094 C 241.886719 168.890625 241.644531 168.761719 241.414062 168.609375 C 241.1875 168.457031 240.972656 168.28125 240.777344 168.085938 C 240.585938 167.890625 240.410156 167.679688 240.257812 167.453125 C 240.105469 167.222656 239.976562 166.980469 239.871094 166.726562 C 239.765625 166.472656 239.683594 166.210938 239.632812 165.941406 C 239.578125 165.667969 239.550781 165.398438 239.550781 165.121094 L 239.550781 161.03125 C 239.550781 160.753906 239.578125 160.484375 239.632812 160.210938 C 239.683594 159.941406 239.765625 159.679688 239.871094 159.425781 C 239.976562 159.171875 240.105469 158.929688 240.257812 158.699219 C 240.410156 158.472656 240.585938 158.261719 240.777344 158.066406 C 240.972656 157.871094 241.1875 157.695312 241.414062 157.542969 C 241.644531 157.390625 241.886719 157.261719 242.140625 157.15625 C 242.394531 157.050781 242.65625 156.972656 242.925781 156.917969 C 243.195312 156.863281 243.46875 156.835938 243.746094 156.835938 Z M 243.746094 156.835938 " fill-opacity="1" fill-rule="nonzero"/><path fill="#f46253" d="M 296.777344 156.835938 L 296.796875 156.835938 C 297.074219 156.835938 297.351562 156.863281 297.625 156.917969 C 297.898438 156.972656 298.160156 157.054688 298.417969 157.160156 C 298.675781 157.265625 298.921875 157.398438 299.152344 157.550781 C 299.382812 157.707031 299.597656 157.882812 299.792969 158.078125 C 299.992188 158.273438 300.164062 158.488281 300.320312 158.71875 C 300.476562 158.953125 300.605469 159.195312 300.710938 159.453125 C 300.820312 159.710938 300.898438 159.976562 300.953125 160.246094 C 301.007812 160.519531 301.035156 160.796875 301.035156 161.074219 L 301.035156 317.539062 C 301.035156 317.816406 301.007812 318.089844 300.953125 318.363281 C 300.898438 318.636719 300.820312 318.902344 300.710938 319.160156 C 300.605469 319.417969 300.476562 319.660156 300.320312 319.890625 C 300.164062 320.125 299.992188 320.335938 299.792969 320.535156 C 299.597656 320.730469 299.382812 320.90625 299.152344 321.0625 C 298.921875 321.214844 298.675781 321.347656 298.417969 321.453125 C 298.160156 321.558594 297.898438 321.640625 297.625 321.695312 C 297.351562 321.75 297.074219 321.773438 296.796875 321.773438 L 296.777344 321.773438 C 296.496094 321.773438 296.222656 321.75 295.949219 321.695312 C 295.675781 321.640625 295.410156 321.558594 295.152344 321.453125 C 294.898438 321.347656 294.652344 321.214844 294.421875 321.0625 C 294.191406 320.90625 293.976562 320.730469 293.78125 320.535156 C 293.582031 320.335938 293.40625 320.125 293.253906 319.890625 C 293.097656 319.660156 292.96875 319.417969 292.859375 319.160156 C 292.753906 318.902344 292.675781 318.636719 292.621094 318.363281 C 292.566406 318.089844 292.539062 317.816406 292.539062 317.539062 L 292.539062 161.074219 C 292.539062 160.796875 292.566406 160.519531 292.621094 160.246094 C 292.675781 159.976562 292.753906 159.710938 292.859375 159.453125 C 292.96875 159.195312 293.097656 158.953125 293.253906 158.71875 C 293.40625 158.488281 293.582031 158.273438 293.78125 158.078125 C 293.976562 157.882812 294.191406 157.707031 294.421875 157.550781 C 294.652344 157.398438 294.898438 157.265625 295.152344 157.160156 C 295.410156 157.054688 295.675781 156.972656 295.949219 156.917969 C 296.222656 156.863281 296.496094 156.835938 296.777344 156.835938 Z M 296.777344 156.835938 " fill-opacity="1" fill-rule="nonzero"/></svg>