<svg xmlns="http://www.w3.org/2000/svg" xmlns:xlink="http://www.w3.org/1999/xlink" width="768" zoomAndPan="magnify" viewBox="0 0 576 576" height="768" preserveAspectRatio="xMidYMid meet" version="1.0"><defs><clipPath id="460c1f4f48"><path d="M 115 57 L 461 57 L 461 481.582031 L 115 481.582031 Z M 115 57 " clip-rule="nonzero"/></clipPath><clipPath id="e639c3da2d"><path d="M 216 294 L 360 294 L 360 481.582031 L 216 481.582031 Z M 216 294 " clip-rule="nonzero"/></clipPath><clipPath id="f85343a9b5"><path d="M 230 309 L 346 309 L 346 481.582031 L 230 481.582031 Z M 230 309 " clip-rule="nonzero"/></clipPath><clipPath id="adc461f79f"><path d="M 79 21.082031 L 497 21.082031 L 497 252 L 79 252 Z M 79 21.082031 " clip-rule="nonzero"/></clipPath></defs><path fill="#746568" d="M 576 288 C 576 292.714844 575.882812 297.421875 575.652344 302.132812 C 575.421875 306.839844 575.074219 311.539062 574.613281 316.230469 C 574.152344 320.917969 573.574219 325.597656 572.882812 330.257812 C 572.191406 334.921875 571.386719 339.5625 570.464844 344.1875 C 569.546875 348.808594 568.515625 353.40625 567.367188 357.976562 C 566.222656 362.550781 564.96875 367.089844 563.597656 371.601562 C 562.230469 376.113281 560.753906 380.585938 559.164062 385.023438 C 557.578125 389.460938 555.882812 393.859375 554.078125 398.210938 C 552.273438 402.566406 550.363281 406.875 548.347656 411.136719 C 546.332031 415.398438 544.214844 419.605469 541.992188 423.761719 C 539.769531 427.917969 537.449219 432.019531 535.027344 436.0625 C 532.601562 440.105469 530.082031 444.085938 527.464844 448.003906 C 524.84375 451.921875 522.132812 455.777344 519.324219 459.5625 C 516.515625 463.347656 513.617188 467.0625 510.628906 470.707031 C 507.636719 474.347656 504.558594 477.917969 501.394531 481.410156 C 498.230469 484.902344 494.980469 488.3125 491.648438 491.648438 C 488.3125 494.980469 484.902344 498.230469 481.410156 501.394531 C 477.917969 504.558594 474.347656 507.636719 470.707031 510.628906 C 467.0625 513.617188 463.347656 516.515625 459.5625 519.324219 C 455.777344 522.132812 451.921875 524.84375 448.003906 527.464844 C 444.085938 530.082031 440.105469 532.601562 436.0625 535.027344 C 432.019531 537.449219 427.917969 539.769531 423.761719 541.992188 C 419.605469 544.214844 415.398438 546.332031 411.136719 548.347656 C 406.875 550.363281 402.566406 552.273438 398.210938 554.078125 C 393.859375 555.882812 389.460938 557.578125 385.023438 559.164062 C 380.585938 560.753906 376.113281 562.230469 371.601562 563.597656 C 367.089844 564.96875 362.550781 566.222656 357.976562 567.367188 C 353.40625 568.515625 348.808594 569.546875 344.1875 570.464844 C 339.5625 571.386719 334.921875 572.191406 330.257812 572.882812 C 325.597656 573.574219 320.917969 574.152344 316.230469 574.613281 C 311.539062 575.074219 306.839844 575.421875 302.132812 575.652344 C 297.421875 575.882812 292.714844 576 288 576 C 283.285156 576 278.574219 575.882812 273.867188 575.652344 C 269.160156 575.421875 264.460938 575.074219 259.769531 574.613281 C 255.082031 574.152344 250.402344 573.574219 245.742188 572.882812 C 241.078125 572.191406 236.4375 571.386719 231.8125 570.464844 C 227.191406 569.546875 222.59375 568.515625 218.023438 567.367188 C 213.449219 566.222656 208.910156 564.96875 204.398438 563.597656 C 199.886719 562.230469 195.414062 560.753906 190.976562 559.164062 C 186.539062 557.578125 182.140625 555.882812 177.785156 554.078125 C 173.433594 552.273438 169.125 550.363281 164.863281 548.347656 C 160.601562 546.332031 156.394531 544.214844 152.238281 541.992188 C 148.082031 539.769531 143.980469 537.449219 139.9375 535.027344 C 135.894531 532.601562 131.914062 530.082031 127.996094 527.464844 C 124.078125 524.84375 120.222656 522.132812 116.4375 519.324219 C 112.652344 516.515625 108.9375 513.617188 105.292969 510.628906 C 101.652344 507.636719 98.082031 504.558594 94.589844 501.394531 C 91.097656 498.230469 87.6875 494.980469 84.351562 491.648438 C 81.019531 488.3125 77.769531 484.902344 74.605469 481.410156 C 71.441406 477.917969 68.363281 474.347656 65.371094 470.707031 C 62.382812 467.0625 59.484375 463.347656 56.675781 459.5625 C 53.867188 455.777344 51.15625 451.921875 48.535156 448.003906 C 45.917969 444.085938 43.398438 440.105469 40.972656 436.0625 C 38.550781 432.019531 36.226562 427.917969 34.007812 423.761719 C 31.785156 419.605469 29.667969 415.398438 27.652344 411.136719 C 25.636719 406.875 23.726562 402.566406 21.921875 398.210938 C 20.117188 393.859375 18.421875 389.460938 16.835938 385.023438 C 15.246094 380.585938 13.769531 376.113281 12.402344 371.601562 C 11.03125 367.089844 9.777344 362.550781 8.632812 357.976562 C 7.484375 353.40625 6.453125 348.808594 5.535156 344.1875 C 4.613281 339.5625 3.808594 334.921875 3.117188 330.257812 C 2.425781 325.597656 1.847656 320.917969 1.386719 316.230469 C 0.925781 311.539062 0.578125 306.839844 0.347656 302.132812 C 0.117188 297.421875 0 292.714844 0 288 C 0 283.285156 0.117188 278.578125 0.347656 273.867188 C 0.578125 269.160156 0.925781 264.460938 1.386719 259.769531 C 1.847656 255.082031 2.425781 250.402344 3.117188 245.742188 C 3.808594 241.078125 4.613281 236.4375 5.535156 231.8125 C 6.453125 227.191406 7.484375 222.59375 8.632812 218.023438 C 9.777344 213.449219 11.03125 208.910156 12.402344 204.398438 C 13.769531 199.886719 15.246094 195.414062 16.835938 190.976562 C 18.421875 186.539062 20.117188 182.140625 21.921875 177.789062 C 23.726562 173.433594 25.636719 169.125 27.652344 164.863281 C 29.667969 160.601562 31.785156 156.394531 34.007812 152.238281 C 36.226562 148.082031 38.550781 143.980469 40.972656 139.9375 C 43.398438 135.894531 45.917969 131.914062 48.535156 127.996094 C 51.15625 124.078125 53.867188 120.222656 56.675781 116.4375 C 59.484375 112.652344 62.382812 108.9375 65.371094 105.292969 C 68.363281 101.652344 71.441406 98.082031 74.605469 94.589844 C 77.769531 91.097656 81.019531 87.6875 84.351562 84.351562 C 87.6875 81.019531 91.097656 77.769531 94.589844 74.605469 C 98.082031 71.441406 101.652344 68.363281 105.292969 65.371094 C 108.9375 62.382812 112.652344 59.484375 116.4375 56.675781 C 120.222656 53.867188 124.078125 51.15625 127.996094 48.535156 C 131.914062 45.917969 135.894531 43.398438 139.9375 40.972656 C 143.980469 38.550781 148.082031 36.230469 152.238281 34.007812 C 156.394531 31.785156 160.601562 29.667969 164.863281 27.652344 C 169.125 25.636719 173.433594 23.726562 177.789062 21.921875 C 182.140625 20.117188 186.539062 18.421875 190.976562 16.835938 C 195.414062 15.246094 199.886719 13.769531 204.398438 12.402344 C 208.910156 11.03125 213.449219 9.777344 218.023438 8.632812 C 222.59375 7.484375 227.191406 6.453125 231.8125 5.535156 C 236.4375 4.613281 241.078125 3.808594 245.742188 3.117188 C 250.402344 2.425781 255.082031 1.847656 259.769531 1.386719 C 264.460938 0.925781 269.160156 0.578125 273.867188 0.347656 C 278.574219 0.117188 283.285156 0 288 0 C 292.714844 0 297.421875 0.117188 302.132812 0.347656 C 306.839844 0.578125 311.539062 0.925781 316.230469 1.386719 C 320.917969 1.847656 325.597656 2.425781 330.257812 3.117188 C 334.921875 3.808594 339.5625 4.613281 344.1875 5.535156 C 348.808594 6.453125 353.40625 7.484375 357.976562 8.632812 C 362.550781 9.777344 367.089844 11.03125 371.601562 12.402344 C 376.113281 13.769531 380.585938 15.246094 385.023438 16.835938 C 389.460938 18.421875 393.859375 20.117188 398.210938 21.921875 C 402.566406 23.726562 406.875 25.636719 411.136719 27.652344 C 415.398438 29.667969 419.605469 31.785156 423.761719 34.007812 C 427.917969 36.230469 432.019531 38.550781 436.0625 40.972656 C 440.105469 43.398438 444.085938 45.917969 448.003906 48.535156 C 451.921875 51.15625 455.777344 53.867188 459.5625 56.675781 C 463.347656 59.484375 467.0625 62.382812 470.707031 65.371094 C 474.347656 68.363281 477.917969 71.441406 481.410156 74.605469 C 484.902344 77.769531 488.3125 81.019531 491.648438 84.351562 C 494.980469 87.6875 498.230469 91.097656 501.394531 94.589844 C 504.558594 98.082031 507.636719 101.652344 510.628906 105.292969 C 513.617188 108.9375 516.515625 112.652344 519.324219 116.4375 C 522.132812 120.222656 524.84375 124.078125 527.464844 127.996094 C 530.082031 131.914062 532.601562 135.894531 535.027344 139.9375 C 537.449219 143.980469 539.769531 148.082031 541.992188 152.238281 C 544.214844 156.394531 546.332031 160.601562 548.347656 164.863281 C 550.363281 169.125 552.273438 173.433594 554.078125 177.789062 C 555.882812 182.140625 557.578125 186.539062 559.164062 190.976562 C 560.753906 195.414062 562.230469 199.886719 563.597656 204.398438 C 564.96875 208.910156 566.222656 213.449219 567.367188 218.023438 C 568.515625 222.59375 569.546875 227.191406 570.464844 231.8125 C 571.386719 236.4375 572.191406 241.078125 572.882812 245.742188 C 573.574219 250.402344 574.152344 255.082031 574.613281 259.769531 C 575.074219 264.460938 575.421875 269.160156 575.652344 273.867188 C 575.882812 278.578125 576 283.285156 576 288 Z M 576 288 " fill-opacity="1" fill-rule="nonzero"/><g clip-path="url(#460c1f4f48)"><path fill="#ffcb5b" d="M 446.164062 481.582031 L 129.824219 481.582031 C 121.878906 481.582031 115.445312 475.144531 115.445312 467.203125 L 115.445312 222.757812 L 287.992188 57.398438 L 460.542969 222.757812 L 460.542969 467.203125 C 460.542969 475.140625 454.101562 481.582031 446.164062 481.582031 Z M 446.164062 481.582031 " fill-opacity="1" fill-rule="nonzero"/><path fill="#f6b545" d="M 287.992188 57.398438 L 115.445312 222.757812 C 115.417969 233.039062 123.726562 241.398438 134.015625 241.429688 C 138.96875 241.445312 143.722656 239.480469 147.222656 235.988281 L 239.25 145.039062 C 266.28125 118.316406 309.777344 118.316406 336.8125 145.039062 L 416.613281 224.125 C 430.886719 238.246094 438.929688 257.46875 438.972656 277.542969 L 438.972656 445.632812 C 438.972656 453.578125 432.539062 460.011719 424.59375 460.011719 C 412.683594 460.011719 403.027344 469.667969 403.027344 481.582031 L 446.164062 481.582031 C 454.109375 481.582031 460.542969 475.148438 460.542969 467.203125 L 460.542969 222.757812 Z M 287.992188 57.398438 " fill-opacity="1" fill-rule="nonzero"/></g><g clip-path="url(#e639c3da2d)"><path fill="#f6b545" d="M 216.128906 294.640625 L 359.917969 294.640625 L 359.917969 481.566406 L 216.128906 481.566406 Z M 216.128906 294.640625 " fill-opacity="1" fill-rule="nonzero"/></g><g clip-path="url(#f85343a9b5)"><path fill="#92582b" d="M 230.507812 309.019531 L 345.539062 309.019531 L 345.539062 481.566406 L 230.507812 481.566406 Z M 230.507812 309.019531 " fill-opacity="1" fill-rule="nonzero"/></g><path fill="#50bee8" d="M 316.78125 201.175781 C 316.78125 202.117188 316.734375 203.054688 316.640625 203.992188 C 316.550781 204.929688 316.410156 205.859375 316.226562 206.785156 C 316.042969 207.707031 315.816406 208.621094 315.542969 209.523438 C 315.269531 210.425781 314.953125 211.308594 314.589844 212.179688 C 314.230469 213.050781 313.828125 213.902344 313.386719 214.730469 C 312.941406 215.5625 312.457031 216.367188 311.933594 217.152344 C 311.410156 217.933594 310.851562 218.691406 310.253906 219.417969 C 309.65625 220.148438 309.023438 220.84375 308.359375 221.507812 C 307.691406 222.175781 306.996094 222.808594 306.265625 223.40625 C 305.539062 224.003906 304.78125 224.5625 304 225.085938 C 303.214844 225.609375 302.410156 226.09375 301.578125 226.535156 C 300.75 226.980469 299.898438 227.382812 299.027344 227.742188 C 298.15625 228.105469 297.273438 228.421875 296.371094 228.695312 C 295.46875 228.96875 294.558594 229.195312 293.632812 229.378906 C 292.710938 229.5625 291.777344 229.703125 290.839844 229.792969 C 289.902344 229.886719 288.964844 229.933594 288.023438 229.933594 C 287.082031 229.933594 286.140625 229.886719 285.203125 229.792969 C 284.265625 229.703125 283.335938 229.5625 282.414062 229.378906 C 281.488281 229.195312 280.574219 228.96875 279.675781 228.695312 C 278.773438 228.421875 277.886719 228.105469 277.015625 227.742188 C 276.148438 227.382812 275.296875 226.980469 274.464844 226.535156 C 273.636719 226.09375 272.828125 225.609375 272.046875 225.085938 C 271.261719 224.5625 270.507812 224.003906 269.777344 223.40625 C 269.050781 222.808594 268.355469 222.175781 267.6875 221.507812 C 267.023438 220.84375 266.390625 220.148438 265.792969 219.417969 C 265.195312 218.691406 264.632812 217.933594 264.109375 217.152344 C 263.589844 216.367188 263.105469 215.5625 262.660156 214.730469 C 262.214844 213.902344 261.8125 213.050781 261.453125 212.179688 C 261.09375 211.308594 260.777344 210.425781 260.503906 209.523438 C 260.230469 208.621094 260 207.707031 259.816406 206.785156 C 259.632812 205.859375 259.496094 204.929688 259.402344 203.992188 C 259.3125 203.054688 259.265625 202.117188 259.265625 201.175781 C 259.265625 200.234375 259.3125 199.292969 259.402344 198.355469 C 259.496094 197.417969 259.632812 196.488281 259.816406 195.5625 C 260 194.640625 260.230469 193.726562 260.503906 192.828125 C 260.777344 191.925781 261.09375 191.039062 261.453125 190.167969 C 261.8125 189.300781 262.214844 188.449219 262.660156 187.617188 C 263.105469 186.789062 263.589844 185.980469 264.109375 185.199219 C 264.632812 184.414062 265.195312 183.660156 265.792969 182.929688 C 266.390625 182.203125 267.023438 181.503906 267.6875 180.839844 C 268.355469 180.171875 269.050781 179.542969 269.777344 178.945312 C 270.507812 178.347656 271.261719 177.785156 272.046875 177.261719 C 272.828125 176.738281 273.636719 176.257812 274.464844 175.8125 C 275.296875 175.367188 276.148438 174.964844 277.015625 174.605469 C 277.886719 174.246094 278.773438 173.929688 279.675781 173.65625 C 280.574219 173.382812 281.488281 173.152344 282.414062 172.96875 C 283.335938 172.785156 284.265625 172.648438 285.203125 172.554688 C 286.140625 172.460938 287.082031 172.417969 288.023438 172.417969 C 288.964844 172.417969 289.902344 172.460938 290.839844 172.554688 C 291.777344 172.648438 292.710938 172.785156 293.632812 172.96875 C 294.558594 173.152344 295.46875 173.382812 296.371094 173.65625 C 297.273438 173.929688 298.15625 174.246094 299.027344 174.605469 C 299.898438 174.964844 300.75 175.367188 301.578125 175.8125 C 302.410156 176.257812 303.214844 176.738281 304 177.261719 C 304.78125 177.785156 305.539062 178.347656 306.265625 178.945312 C 306.996094 179.542969 307.691406 180.171875 308.359375 180.839844 C 309.023438 181.503906 309.65625 182.203125 310.253906 182.929688 C 310.851562 183.660156 311.410156 184.414062 311.933594 185.199219 C 312.457031 185.980469 312.941406 186.789062 313.386719 187.617188 C 313.828125 188.449219 314.230469 189.300781 314.589844 190.167969 C 314.953125 191.039062 315.269531 191.925781 315.542969 192.828125 C 315.816406 193.726562 316.042969 194.640625 316.226562 195.5625 C 316.410156 196.488281 316.550781 197.417969 316.640625 198.355469 C 316.734375 199.292969 316.78125 200.234375 316.78125 201.175781 Z M 316.78125 201.175781 " fill-opacity="1" fill-rule="nonzero"/><path fill="#92582b" d="M 287.992188 244.328125 C 264.167969 244.328125 244.855469 225.015625 244.855469 201.1875 C 244.855469 177.363281 264.167969 158.050781 287.992188 158.050781 C 311.820312 158.050781 331.132812 177.363281 331.132812 201.1875 C 331.132812 225.015625 311.820312 244.328125 287.992188 244.328125 Z M 287.992188 172.429688 C 272.113281 172.429688 259.234375 185.308594 259.234375 201.1875 C 259.234375 217.070312 272.113281 229.945312 287.992188 229.945312 C 303.875 229.945312 316.753906 217.070312 316.753906 201.1875 C 316.753906 185.308594 303.875 172.429688 287.992188 172.429688 Z M 287.992188 172.429688 " fill-opacity="1" fill-rule="nonzero"/><g clip-path="url(#adc461f79f)"><path fill="#de333f" d="M 287.992188 75.300781 L 113.863281 247.417969 C 108.269531 252.898438 99.324219 252.898438 93.734375 247.417969 L 83.667969 237.136719 C 78.324219 231.574219 78.324219 222.785156 83.667969 217.222656 L 277.785156 25.191406 C 283.378906 19.710938 292.320312 19.710938 297.914062 25.191406 L 492.03125 217.222656 C 497.375 222.785156 497.375 231.574219 492.03125 237.136719 L 482.113281 247.417969 C 476.519531 252.898438 467.574219 252.898438 461.980469 247.417969 L 287.992188 75.300781 " fill-opacity="1" fill-rule="nonzero"/></g><path fill="#cad1d8" d="M 331.160156 402.480469 C 331.160156 402.953125 331.113281 403.421875 331.023438 403.882812 C 330.929688 404.347656 330.792969 404.796875 330.613281 405.234375 C 330.433594 405.667969 330.210938 406.082031 329.949219 406.476562 C 329.6875 406.867188 329.386719 407.230469 329.054688 407.566406 C 328.71875 407.898438 328.355469 408.195312 327.964844 408.460938 C 327.570312 408.722656 327.15625 408.941406 326.722656 409.125 C 326.285156 409.304688 325.835938 409.441406 325.371094 409.53125 C 324.910156 409.625 324.441406 409.671875 323.96875 409.671875 C 323.496094 409.671875 323.03125 409.625 322.566406 409.53125 C 322.105469 409.441406 321.65625 409.304688 321.21875 409.125 C 320.78125 408.941406 320.367188 408.722656 319.976562 408.460938 C 319.582031 408.195312 319.21875 407.898438 318.886719 407.566406 C 318.550781 407.230469 318.253906 406.867188 317.992188 406.476562 C 317.730469 406.082031 317.507812 405.667969 317.328125 405.234375 C 317.148438 404.796875 317.011719 404.347656 316.917969 403.882812 C 316.824219 403.421875 316.78125 402.953125 316.78125 402.480469 C 316.78125 402.007812 316.824219 401.542969 316.917969 401.078125 C 317.011719 400.617188 317.148438 400.164062 317.328125 399.730469 C 317.507812 399.292969 317.730469 398.878906 317.992188 398.488281 C 318.253906 398.09375 318.550781 397.730469 318.886719 397.398438 C 319.21875 397.0625 319.582031 396.765625 319.976562 396.503906 C 320.367188 396.242188 320.78125 396.019531 321.21875 395.839844 C 321.65625 395.65625 322.105469 395.523438 322.566406 395.429688 C 323.03125 395.335938 323.496094 395.292969 323.96875 395.292969 C 324.441406 395.292969 324.910156 395.335938 325.371094 395.429688 C 325.835938 395.523438 326.285156 395.65625 326.722656 395.839844 C 327.15625 396.019531 327.570312 396.242188 327.964844 396.503906 C 328.355469 396.765625 328.71875 397.0625 329.054688 397.398438 C 329.386719 397.730469 329.6875 398.09375 329.949219 398.488281 C 330.210938 398.878906 330.433594 399.292969 330.613281 399.730469 C 330.792969 400.164062 330.929688 400.617188 331.023438 401.078125 C 331.113281 401.542969 331.160156 402.007812 331.160156 402.480469 Z M 331.160156 402.480469 " fill-opacity="1" fill-rule="nonzero"/></svg>