<svg xmlns="http://www.w3.org/2000/svg" xmlns:xlink="http://www.w3.org/1999/xlink" width="768" zoomAndPan="magnify" viewBox="0 0 576 576" height="768" preserveAspectRatio="xMidYMid meet" version="1.0"><path fill="#efd7b7" d="M 576 288 C 576 292.714844 575.882812 297.421875 575.652344 302.132812 C 575.421875 306.839844 575.074219 311.539062 574.613281 316.230469 C 574.152344 320.917969 573.574219 325.597656 572.882812 330.257812 C 572.191406 334.921875 571.386719 339.5625 570.464844 344.1875 C 569.546875 348.808594 568.515625 353.40625 567.367188 357.976562 C 566.222656 362.550781 564.96875 367.089844 563.597656 371.601562 C 562.230469 376.113281 560.753906 380.585938 559.164062 385.023438 C 557.578125 389.460938 555.882812 393.859375 554.078125 398.210938 C 552.273438 402.566406 550.363281 406.875 548.347656 411.136719 C 546.332031 415.398438 544.214844 419.605469 541.992188 423.761719 C 539.769531 427.917969 537.449219 432.019531 535.027344 436.0625 C 532.601562 440.105469 530.082031 444.085938 527.464844 448.003906 C 524.84375 451.921875 522.132812 455.777344 519.324219 459.5625 C 516.515625 463.347656 513.617188 467.0625 510.628906 470.707031 C 507.636719 474.347656 504.558594 477.917969 501.394531 481.410156 C 498.230469 484.902344 494.980469 488.3125 491.648438 491.648438 C 488.3125 494.980469 484.902344 498.230469 481.410156 501.394531 C 477.917969 504.558594 474.347656 507.636719 470.707031 510.628906 C 467.0625 513.617188 463.347656 516.515625 459.5625 519.324219 C 455.777344 522.132812 451.921875 524.84375 448.003906 527.464844 C 444.085938 530.082031 440.105469 532.601562 436.0625 535.027344 C 432.019531 537.449219 427.917969 539.769531 423.761719 541.992188 C 419.605469 544.214844 415.398438 546.332031 411.136719 548.347656 C 406.875 550.363281 402.566406 552.273438 398.210938 554.078125 C 393.859375 555.882812 389.460938 557.578125 385.023438 559.164062 C 380.585938 560.753906 376.113281 562.230469 371.601562 563.597656 C 367.089844 564.96875 362.550781 566.222656 357.976562 567.367188 C 353.40625 568.515625 348.808594 569.546875 344.1875 570.464844 C 339.5625 571.386719 334.921875 572.191406 330.257812 572.882812 C 325.597656 573.574219 320.917969 574.152344 316.230469 574.613281 C 311.539062 575.074219 306.839844 575.421875 302.132812 575.652344 C 297.421875 575.882812 292.714844 576 288 576 C 283.285156 576 278.574219 575.882812 273.867188 575.652344 C 269.160156 575.421875 264.460938 575.074219 259.769531 574.613281 C 255.082031 574.152344 250.402344 573.574219 245.742188 572.882812 C 241.078125 572.191406 236.4375 571.386719 231.8125 570.464844 C 227.191406 569.546875 222.59375 568.515625 218.023438 567.367188 C 213.449219 566.222656 208.910156 564.96875 204.398438 563.597656 C 199.886719 562.230469 195.414062 560.753906 190.976562 559.164062 C 186.539062 557.578125 182.140625 555.882812 177.785156 554.078125 C 173.433594 552.273438 169.125 550.363281 164.863281 548.347656 C 160.601562 546.332031 156.394531 544.214844 152.238281 541.992188 C 148.082031 539.769531 143.980469 537.449219 139.9375 535.027344 C 135.894531 532.601562 131.914062 530.082031 127.996094 527.464844 C 124.078125 524.84375 120.222656 522.132812 116.4375 519.324219 C 112.652344 516.515625 108.9375 513.617188 105.292969 510.628906 C 101.652344 507.636719 98.082031 504.558594 94.589844 501.394531 C 91.097656 498.230469 87.6875 494.980469 84.351562 491.648438 C 81.019531 488.3125 77.769531 484.902344 74.605469 481.410156 C 71.441406 477.917969 68.363281 474.347656 65.371094 470.707031 C 62.382812 467.0625 59.484375 463.347656 56.675781 459.5625 C 53.867188 455.777344 51.15625 451.921875 48.535156 448.003906 C 45.917969 444.085938 43.398438 440.105469 40.972656 436.0625 C 38.550781 432.019531 36.226562 427.917969 34.007812 423.761719 C 31.785156 419.605469 29.667969 415.398438 27.652344 411.136719 C 25.636719 406.875 23.726562 402.566406 21.921875 398.210938 C 20.117188 393.859375 18.421875 389.460938 16.835938 385.023438 C 15.246094 380.585938 13.769531 376.113281 12.402344 371.601562 C 11.03125 367.089844 9.777344 362.550781 8.632812 357.976562 C 7.484375 353.40625 6.453125 348.808594 5.535156 344.1875 C 4.613281 339.5625 3.808594 334.921875 3.117188 330.257812 C 2.425781 325.597656 1.847656 320.917969 1.386719 316.230469 C 0.925781 311.539062 0.578125 306.839844 0.347656 302.132812 C 0.117188 297.421875 0 292.714844 0 288 C 0 283.285156 0.117188 278.578125 0.347656 273.867188 C 0.578125 269.160156 0.925781 264.460938 1.386719 259.769531 C 1.847656 255.082031 2.425781 250.402344 3.117188 245.742188 C 3.808594 241.078125 4.613281 236.4375 5.535156 231.8125 C 6.453125 227.191406 7.484375 222.59375 8.632812 218.023438 C 9.777344 213.449219 11.03125 208.910156 12.402344 204.398438 C 13.769531 199.886719 15.246094 195.414062 16.835938 190.976562 C 18.421875 186.539062 20.117188 182.140625 21.921875 177.789062 C 23.726562 173.433594 25.636719 169.125 27.652344 164.863281 C 29.667969 160.601562 31.785156 156.394531 34.007812 152.238281 C 36.226562 148.082031 38.550781 143.980469 40.972656 139.9375 C 43.398438 135.894531 45.917969 131.914062 48.535156 127.996094 C 51.15625 124.078125 53.867188 120.222656 56.675781 116.4375 C 59.484375 112.652344 62.382812 108.9375 65.371094 105.292969 C 68.363281 101.652344 71.441406 98.082031 74.605469 94.589844 C 77.769531 91.097656 81.019531 87.6875 84.351562 84.351562 C 87.6875 81.019531 91.097656 77.769531 94.589844 74.605469 C 98.082031 71.441406 101.652344 68.363281 105.292969 65.371094 C 108.9375 62.382812 112.652344 59.484375 116.4375 56.675781 C 120.222656 53.867188 124.078125 51.15625 127.996094 48.535156 C 131.914062 45.917969 135.894531 43.398438 139.9375 40.972656 C 143.980469 38.550781 148.082031 36.230469 152.238281 34.007812 C 156.394531 31.785156 160.601562 29.667969 164.863281 27.652344 C 169.125 25.636719 173.433594 23.726562 177.789062 21.921875 C 182.140625 20.117188 186.539062 18.421875 190.976562 16.835938 C 195.414062 15.246094 199.886719 13.769531 204.398438 12.402344 C 208.910156 11.03125 213.449219 9.777344 218.023438 8.632812 C 222.59375 7.484375 227.191406 6.453125 231.8125 5.535156 C 236.4375 4.613281 241.078125 3.808594 245.742188 3.117188 C 250.402344 2.425781 255.082031 1.847656 259.769531 1.386719 C 264.460938 0.925781 269.160156 0.578125 273.867188 0.347656 C 278.574219 0.117188 283.285156 0 288 0 C 292.714844 0 297.421875 0.117188 302.132812 0.347656 C 306.839844 0.578125 311.539062 0.925781 316.230469 1.386719 C 320.917969 1.847656 325.597656 2.425781 330.257812 3.117188 C 334.921875 3.808594 339.5625 4.613281 344.1875 5.535156 C 348.808594 6.453125 353.40625 7.484375 357.976562 8.632812 C 362.550781 9.777344 367.089844 11.03125 371.601562 12.402344 C 376.113281 13.769531 380.585938 15.246094 385.023438 16.835938 C 389.460938 18.421875 393.859375 20.117188 398.210938 21.921875 C 402.566406 23.726562 406.875 25.636719 411.136719 27.652344 C 415.398438 29.667969 419.605469 31.785156 423.761719 34.007812 C 427.917969 36.230469 432.019531 38.550781 436.0625 40.972656 C 440.105469 43.398438 444.085938 45.917969 448.003906 48.535156 C 451.921875 51.15625 455.777344 53.867188 459.5625 56.675781 C 463.347656 59.484375 467.0625 62.382812 470.707031 65.371094 C 474.347656 68.363281 477.917969 71.441406 481.410156 74.605469 C 484.902344 77.769531 488.3125 81.019531 491.648438 84.351562 C 494.980469 87.6875 498.230469 91.097656 501.394531 94.589844 C 504.558594 98.082031 507.636719 101.652344 510.628906 105.292969 C 513.617188 108.9375 516.515625 112.652344 519.324219 116.4375 C 522.132812 120.222656 524.84375 124.078125 527.464844 127.996094 C 530.082031 131.914062 532.601562 135.894531 535.027344 139.9375 C 537.449219 143.980469 539.769531 148.082031 541.992188 152.238281 C 544.214844 156.394531 546.332031 160.601562 548.347656 164.863281 C 550.363281 169.125 552.273438 173.433594 554.078125 177.789062 C 555.882812 182.140625 557.578125 186.539062 559.164062 190.976562 C 560.753906 195.414062 562.230469 199.886719 563.597656 204.398438 C 564.96875 208.910156 566.222656 213.449219 567.367188 218.023438 C 568.515625 222.59375 569.546875 227.191406 570.464844 231.8125 C 571.386719 236.4375 572.191406 241.078125 572.882812 245.742188 C 573.574219 250.402344 574.152344 255.082031 574.613281 259.769531 C 575.074219 264.460938 575.421875 269.160156 575.652344 273.867188 C 575.882812 278.578125 576 283.285156 576 288 Z M 576 288 " fill-opacity="1" fill-rule="nonzero"/><path fill="#231f20" d="M 473.4375 161.257812 C 472.824219 160.507812 472.132812 159.835938 471.367188 159.238281 C 470.601562 158.640625 469.78125 158.136719 468.90625 157.71875 C 468.027344 157.304688 467.117188 156.988281 466.171875 156.773438 C 465.226562 156.5625 464.265625 156.453125 463.296875 156.449219 L 142.230469 156.449219 C 141.304688 154.050781 140.203125 151.734375 138.929688 149.5 C 137.65625 147.265625 136.222656 145.140625 134.628906 143.121094 C 133.035156 141.101562 131.300781 139.210938 129.425781 137.453125 C 127.546875 135.695312 125.550781 134.085938 123.433594 132.625 C 121.316406 131.164062 119.101562 129.871094 116.792969 128.742188 C 114.480469 127.613281 112.097656 126.664062 109.644531 125.890625 C 107.191406 125.121094 104.695312 124.535156 102.152344 124.136719 C 99.613281 123.742188 97.054688 123.535156 94.484375 123.519531 C 93.617188 123.519531 92.761719 123.605469 91.914062 123.773438 C 91.066406 123.941406 90.242188 124.191406 89.441406 124.523438 C 88.644531 124.855469 87.886719 125.257812 87.164062 125.738281 C 86.445312 126.21875 85.78125 126.765625 85.171875 127.378906 C 84.558594 127.988281 84.011719 128.65625 83.53125 129.375 C 83.050781 130.09375 82.644531 130.851562 82.316406 131.652344 C 81.984375 132.449219 81.734375 133.273438 81.566406 134.121094 C 81.394531 134.96875 81.3125 135.828125 81.3125 136.691406 C 81.3125 137.558594 81.394531 138.414062 81.566406 139.261719 C 81.734375 140.109375 81.984375 140.933594 82.316406 141.734375 C 82.644531 142.53125 83.050781 143.289062 83.53125 144.011719 C 84.011719 144.730469 84.558594 145.394531 85.171875 146.007812 C 85.78125 146.617188 86.445312 147.164062 87.164062 147.644531 C 87.886719 148.125 88.644531 148.53125 89.441406 148.859375 C 90.242188 149.191406 91.066406 149.441406 91.914062 149.609375 C 92.761719 149.78125 93.617188 149.863281 94.484375 149.863281 C 95.226562 149.867188 95.96875 149.90625 96.707031 149.976562 C 97.445312 150.046875 98.179688 150.152344 98.910156 150.289062 C 99.640625 150.425781 100.363281 150.59375 101.078125 150.792969 C 101.792969 150.996094 102.496094 151.226562 103.191406 151.492188 C 103.882812 151.753906 104.566406 152.046875 105.230469 152.371094 C 105.898438 152.695312 106.550781 153.050781 107.1875 153.433594 C 107.824219 153.816406 108.441406 154.226562 109.042969 154.664062 C 109.640625 155.101562 110.222656 155.566406 110.777344 156.054688 C 111.335938 156.542969 111.871094 157.058594 112.386719 157.59375 C 112.898438 158.132812 113.386719 158.691406 113.847656 159.273438 C 114.3125 159.851562 114.746094 160.453125 115.15625 161.070312 C 115.566406 161.691406 115.945312 162.328125 116.296875 162.980469 C 116.648438 163.636719 116.972656 164.304688 117.265625 164.984375 C 117.558594 165.667969 117.820312 166.363281 118.050781 167.066406 C 118.28125 167.773438 118.480469 168.488281 118.644531 169.210938 C 118.8125 169.933594 118.949219 170.664062 119.050781 171.398438 L 153.757812 389.066406 C 153.882812 389.839844 154.074219 390.59375 154.335938 391.332031 C 154.59375 392.070312 154.917969 392.78125 155.304688 393.460938 C 155.691406 394.144531 156.136719 394.785156 156.636719 395.386719 C 157.136719 395.988281 157.6875 396.539062 158.289062 397.042969 C 158.886719 397.546875 159.527344 397.996094 160.207031 398.382812 C 160.886719 398.773438 161.59375 399.101562 162.332031 399.363281 C 163.070312 399.628906 163.824219 399.824219 164.597656 399.953125 C 165.367188 400.082031 166.144531 400.140625 166.929688 400.128906 L 183.394531 400.128906 C 183.058594 400.9375 182.746094 401.757812 182.457031 402.585938 C 182.171875 403.414062 181.910156 404.25 181.675781 405.097656 C 181.4375 405.941406 181.230469 406.792969 181.046875 407.648438 C 180.863281 408.507812 180.707031 409.367188 180.574219 410.234375 C 180.445312 411.101562 180.34375 411.972656 180.265625 412.847656 C 180.1875 413.71875 180.140625 414.59375 180.117188 415.472656 C 180.09375 416.347656 180.097656 417.222656 180.128906 418.101562 C 180.160156 418.976562 180.214844 419.851562 180.300781 420.722656 C 180.386719 421.597656 180.496094 422.464844 180.632812 423.332031 C 180.773438 424.195312 180.9375 425.058594 181.128906 425.914062 C 181.320312 426.769531 181.535156 427.617188 181.777344 428.460938 C 182.023438 429.304688 182.289062 430.136719 182.585938 430.964844 C 182.878906 431.789062 183.199219 432.605469 183.542969 433.410156 C 183.886719 434.21875 184.257812 435.011719 184.648438 435.796875 C 185.042969 436.582031 185.460938 437.351562 185.898438 438.109375 C 186.339844 438.867188 186.804688 439.609375 187.289062 440.339844 C 187.777344 441.070312 188.285156 441.785156 188.816406 442.480469 C 189.347656 443.179688 189.898438 443.863281 190.46875 444.527344 C 191.042969 445.191406 191.632812 445.835938 192.246094 446.464844 C 192.855469 447.09375 193.488281 447.703125 194.136719 448.289062 C 194.785156 448.878906 195.453125 449.449219 196.136719 449.996094 C 196.820312 450.546875 197.519531 451.074219 198.238281 451.578125 C 198.953125 452.082031 199.683594 452.566406 200.429688 453.027344 C 201.175781 453.488281 201.9375 453.925781 202.710938 454.335938 C 203.484375 454.75 204.269531 455.140625 205.066406 455.507812 C 205.863281 455.871094 206.667969 456.210938 207.488281 456.527344 C 208.304688 456.84375 209.132812 457.132812 209.96875 457.398438 C 210.804688 457.664062 211.648438 457.902344 212.496094 458.117188 C 213.347656 458.332031 214.203125 458.515625 215.066406 458.679688 C 215.925781 458.839844 216.792969 458.972656 217.664062 459.082031 C 218.535156 459.1875 219.40625 459.269531 220.28125 459.320312 C 221.15625 459.375 222.03125 459.402344 222.910156 459.402344 C 223.785156 459.402344 224.664062 459.375 225.539062 459.320312 C 226.414062 459.269531 227.285156 459.1875 228.15625 459.082031 C 229.027344 458.972656 229.890625 458.839844 230.753906 458.679688 C 231.617188 458.515625 232.472656 458.332031 233.320312 458.117188 C 234.171875 457.902344 235.015625 457.664062 235.851562 457.398438 C 236.6875 457.132812 237.515625 456.84375 238.332031 456.527344 C 239.148438 456.210938 239.957031 455.871094 240.753906 455.507812 C 241.550781 455.140625 242.335938 454.75 243.109375 454.335938 C 243.882812 453.925781 244.640625 453.488281 245.386719 453.027344 C 246.132812 452.566406 246.867188 452.082031 247.582031 451.578125 C 248.296875 451.074219 249 450.546875 249.683594 449.996094 C 250.367188 449.449219 251.035156 448.878906 251.683594 448.289062 C 252.332031 447.703125 252.960938 447.09375 253.574219 446.464844 C 254.1875 445.835938 254.777344 445.191406 255.351562 444.527344 C 255.921875 443.863281 256.472656 443.179688 257.003906 442.480469 C 257.535156 441.785156 258.042969 441.070312 258.527344 440.339844 C 259.015625 439.609375 259.476562 438.867188 259.917969 438.109375 C 260.359375 437.351562 260.777344 436.582031 261.171875 435.796875 C 261.5625 435.011719 261.933594 434.21875 262.277344 433.410156 C 262.621094 432.605469 262.941406 431.789062 263.234375 430.964844 C 263.527344 430.136719 263.796875 429.304688 264.039062 428.460938 C 264.285156 427.617188 264.5 426.769531 264.691406 425.914062 C 264.882812 425.058594 265.046875 424.195312 265.183594 423.332031 C 265.324219 422.464844 265.433594 421.597656 265.519531 420.722656 C 265.601562 419.851562 265.660156 418.976562 265.691406 418.101562 C 265.722656 417.222656 265.726562 416.347656 265.703125 415.472656 C 265.679688 414.59375 265.628906 413.71875 265.554688 412.847656 C 265.476562 411.972656 265.375 411.101562 265.242188 410.234375 C 265.113281 409.367188 264.957031 408.507812 264.773438 407.648438 C 264.589844 406.792969 264.378906 405.941406 264.144531 405.097656 C 263.910156 404.25 263.648438 403.414062 263.363281 402.585938 C 263.074219 401.757812 262.761719 400.9375 262.425781 400.128906 L 328.285156 400.128906 C 327.949219 400.9375 327.636719 401.757812 327.347656 402.585938 C 327.0625 403.414062 326.800781 404.25 326.566406 405.097656 C 326.328125 405.941406 326.121094 406.792969 325.9375 407.648438 C 325.753906 408.507812 325.597656 409.367188 325.464844 410.234375 C 325.335938 411.101562 325.234375 411.972656 325.15625 412.847656 C 325.078125 413.71875 325.03125 414.59375 325.007812 415.472656 C 324.984375 416.347656 324.988281 417.222656 325.019531 418.101562 C 325.050781 418.976562 325.105469 419.851562 325.191406 420.722656 C 325.277344 421.597656 325.386719 422.464844 325.523438 423.332031 C 325.664062 424.195312 325.828125 425.058594 326.019531 425.914062 C 326.210938 426.769531 326.425781 427.617188 326.667969 428.460938 C 326.914062 429.304688 327.179688 430.136719 327.476562 430.964844 C 327.769531 431.789062 328.089844 432.605469 328.433594 433.410156 C 328.777344 434.21875 329.148438 435.011719 329.539062 435.796875 C 329.933594 436.582031 330.351562 437.351562 330.789062 438.109375 C 331.230469 438.867188 331.695312 439.609375 332.179688 440.339844 C 332.667969 441.070312 333.175781 441.785156 333.707031 442.480469 C 334.238281 443.179688 334.789062 443.863281 335.359375 444.527344 C 335.933594 445.191406 336.523438 445.835938 337.136719 446.464844 C 337.746094 447.09375 338.378906 447.703125 339.027344 448.289062 C 339.675781 448.878906 340.34375 449.449219 341.027344 449.996094 C 341.710938 450.546875 342.410156 451.074219 343.128906 451.578125 C 343.84375 452.082031 344.574219 452.566406 345.320312 453.027344 C 346.066406 453.488281 346.828125 453.925781 347.601562 454.335938 C 348.375 454.75 349.160156 455.140625 349.957031 455.507812 C 350.753906 455.871094 351.558594 456.210938 352.378906 456.527344 C 353.195312 456.84375 354.023438 457.132812 354.859375 457.398438 C 355.695312 457.664062 356.539062 457.902344 357.386719 458.117188 C 358.238281 458.332031 359.09375 458.515625 359.957031 458.679688 C 360.816406 458.839844 361.683594 458.972656 362.554688 459.082031 C 363.425781 459.1875 364.296875 459.269531 365.171875 459.320312 C 366.046875 459.375 366.921875 459.402344 367.800781 459.402344 C 368.675781 459.402344 369.554688 459.375 370.429688 459.320312 C 371.304688 459.269531 372.175781 459.1875 373.046875 459.082031 C 373.917969 458.972656 374.78125 458.839844 375.644531 458.679688 C 376.507812 458.515625 377.363281 458.332031 378.210938 458.117188 C 379.0625 457.902344 379.90625 457.664062 380.742188 457.398438 C 381.578125 457.132812 382.40625 456.84375 383.222656 456.527344 C 384.039062 456.210938 384.847656 455.871094 385.644531 455.507812 C 386.441406 455.140625 387.226562 454.75 388 454.335938 C 388.773438 453.925781 389.53125 453.488281 390.277344 453.027344 C 391.023438 452.566406 391.757812 452.082031 392.472656 451.578125 C 393.1875 451.074219 393.890625 450.546875 394.574219 449.996094 C 395.257812 449.449219 395.925781 448.878906 396.574219 448.289062 C 397.222656 447.703125 397.851562 447.09375 398.464844 446.464844 C 399.078125 445.835938 399.667969 445.191406 400.242188 444.527344 C 400.8125 443.863281 401.363281 443.179688 401.894531 442.480469 C 402.425781 441.785156 402.933594 441.070312 403.417969 440.339844 C 403.90625 439.609375 404.367188 438.867188 404.808594 438.109375 C 405.25 437.351562 405.667969 436.582031 406.0625 435.796875 C 406.453125 435.011719 406.824219 434.21875 407.167969 433.410156 C 407.511719 432.605469 407.832031 431.789062 408.125 430.964844 C 408.417969 430.136719 408.6875 429.304688 408.929688 428.460938 C 409.175781 427.617188 409.390625 426.769531 409.582031 425.914062 C 409.773438 425.058594 409.9375 424.195312 410.074219 423.332031 C 410.214844 422.464844 410.324219 421.597656 410.410156 420.722656 C 410.492188 419.851562 410.550781 418.976562 410.582031 418.101562 C 410.613281 417.222656 410.617188 416.347656 410.59375 415.472656 C 410.570312 414.59375 410.519531 413.71875 410.445312 412.847656 C 410.367188 411.972656 410.265625 411.101562 410.132812 410.234375 C 410.003906 409.367188 409.847656 408.507812 409.664062 407.648438 C 409.480469 406.792969 409.269531 405.941406 409.035156 405.097656 C 408.800781 404.25 408.539062 403.414062 408.253906 402.585938 C 407.964844 401.757812 407.652344 400.9375 407.316406 400.128906 L 423.78125 400.128906 C 424.644531 400.128906 425.503906 400.046875 426.351562 399.875 C 427.199219 399.707031 428.023438 399.457031 428.820312 399.125 C 429.621094 398.796875 430.378906 398.390625 431.097656 397.910156 C 431.816406 397.429688 432.484375 396.882812 433.09375 396.273438 C 433.707031 395.660156 434.253906 394.996094 434.734375 394.277344 C 435.214844 393.554688 435.617188 392.796875 435.949219 392 C 436.28125 391.199219 436.53125 390.375 436.699219 389.527344 C 436.867188 388.679688 436.953125 387.824219 436.953125 386.957031 C 436.953125 386.09375 436.867188 385.234375 436.699219 384.386719 C 436.53125 383.539062 436.28125 382.714844 435.949219 381.917969 C 435.617188 381.117188 435.214844 380.359375 434.734375 379.640625 C 434.253906 378.921875 433.707031 378.253906 433.09375 377.644531 C 432.484375 377.03125 431.816406 376.484375 431.097656 376.003906 C 430.378906 375.523438 429.621094 375.121094 428.820312 374.789062 C 428.023438 374.457031 427.199219 374.207031 426.351562 374.039062 C 425.503906 373.871094 424.644531 373.785156 423.78125 373.785156 L 178.191406 373.785156 L 174.964844 354.027344 L 430.367188 354.027344 C 431.136719 354.042969 431.898438 353.988281 432.660156 353.867188 C 433.417969 353.75 434.164062 353.5625 434.890625 353.3125 C 435.617188 353.0625 436.316406 352.753906 436.992188 352.378906 C 437.664062 352.007812 438.300781 351.578125 438.898438 351.09375 C 439.496094 350.609375 440.046875 350.078125 440.550781 349.496094 C 441.054688 348.914062 441.503906 348.296875 441.902344 347.636719 C 442.296875 346.976562 442.632812 346.289062 442.90625 345.570312 C 443.183594 344.851562 443.390625 344.113281 443.539062 343.359375 L 476.46875 172.125 C 476.632812 171.164062 476.691406 170.195312 476.644531 169.222656 C 476.59375 168.246094 476.4375 167.289062 476.175781 166.351562 C 475.914062 165.410156 475.550781 164.511719 475.089844 163.652344 C 474.628906 162.792969 474.078125 161.996094 473.4375 161.257812 Z M 473.4375 161.257812 " fill-opacity="1" fill-rule="nonzero"/><path fill="#414042" d="M 476.46875 172.125 L 443.539062 343.359375 C 443.390625 344.113281 443.183594 344.851562 442.90625 345.570312 C 442.632812 346.289062 442.296875 346.976562 441.902344 347.636719 C 441.503906 348.296875 441.054688 348.914062 440.550781 349.496094 C 440.046875 350.078125 439.496094 350.609375 438.898438 351.09375 C 438.300781 351.578125 437.664062 352.007812 436.992188 352.378906 C 436.316406 352.753906 435.617188 353.0625 434.890625 353.3125 C 434.164062 353.5625 433.417969 353.75 432.660156 353.867188 C 431.898438 353.988281 431.136719 354.042969 430.367188 354.027344 L 174.964844 354.027344 L 142.035156 156.449219 L 463.296875 156.449219 C 464.265625 156.453125 465.226562 156.5625 466.171875 156.773438 C 467.117188 156.988281 468.027344 157.304688 468.90625 157.71875 C 469.78125 158.136719 470.601562 158.640625 471.367188 159.238281 C 472.132812 159.835938 472.824219 160.507812 473.4375 161.257812 C 474.078125 161.996094 474.628906 162.792969 475.089844 163.652344 C 475.550781 164.511719 475.914062 165.410156 476.175781 166.351562 C 476.4375 167.289062 476.59375 168.246094 476.644531 169.222656 C 476.691406 170.195312 476.632812 171.164062 476.46875 172.125 Z M 476.46875 172.125 " fill-opacity="1" fill-rule="nonzero"/><path fill="#fff200" d="M 260.25 298.046875 C 260.898438 298.625 261.597656 299.132812 262.34375 299.570312 C 263.09375 300.011719 263.878906 300.371094 264.699219 300.65625 C 265.515625 300.941406 266.355469 301.144531 267.214844 301.261719 C 268.074219 301.378906 268.9375 301.414062 269.804688 301.359375 C 270.667969 301.308594 271.523438 301.171875 272.359375 300.953125 C 273.199219 300.730469 274.007812 300.429688 274.789062 300.050781 C 275.570312 299.671875 276.304688 299.21875 276.992188 298.691406 C 277.683594 298.167969 278.316406 297.578125 278.890625 296.929688 L 331.578125 237.65625 C 332.152344 237.003906 332.65625 236.308594 333.09375 235.558594 C 333.53125 234.808594 333.890625 234.027344 334.171875 233.207031 C 334.453125 232.386719 334.65625 231.550781 334.773438 230.691406 C 334.890625 229.832031 334.921875 228.972656 334.871094 228.105469 C 334.816406 227.242188 334.679688 226.390625 334.460938 225.550781 C 334.242188 224.714844 333.941406 223.90625 333.5625 223.125 C 333.183594 222.347656 332.730469 221.613281 332.207031 220.921875 C 331.683594 220.234375 331.097656 219.601562 330.449219 219.023438 C 329.800781 218.449219 329.105469 217.945312 328.355469 217.507812 C 327.609375 217.070312 326.824219 216.710938 326.003906 216.425781 C 325.1875 216.144531 324.347656 215.941406 323.488281 215.824219 C 322.632812 215.707031 321.769531 215.671875 320.90625 215.722656 C 320.039062 215.777344 319.1875 215.910156 318.351562 216.128906 C 317.511719 216.351562 316.703125 216.648438 315.925781 217.027344 C 315.144531 217.40625 314.410156 217.855469 313.71875 218.378906 C 313.027344 218.902344 312.394531 219.488281 311.820312 220.136719 L 259.132812 279.410156 C 258.554688 280.058594 258.046875 280.753906 257.609375 281.503906 C 257.167969 282.25 256.808594 283.035156 256.523438 283.855469 C 256.238281 284.675781 256.039062 285.515625 255.917969 286.371094 C 255.800781 287.234375 255.765625 288.09375 255.820312 288.960938 C 255.871094 289.828125 256.007812 290.679688 256.226562 291.519531 C 256.449219 292.359375 256.75 293.167969 257.128906 293.945312 C 257.507812 294.726562 257.960938 295.460938 258.488281 296.152344 C 259.011719 296.839844 259.601562 297.472656 260.25 298.046875 Z M 260.25 298.046875 " fill-opacity="1" fill-rule="nonzero"/><path fill="#fff200" d="M 341.457031 284.875 C 341.457031 285.414062 341.429688 285.953125 341.378906 286.488281 C 341.324219 287.027344 341.246094 287.558594 341.140625 288.085938 C 341.035156 288.617188 340.902344 289.140625 340.746094 289.65625 C 340.589844 290.171875 340.410156 290.679688 340.203125 291.175781 C 339.996094 291.675781 339.765625 292.160156 339.511719 292.636719 C 339.257812 293.113281 338.980469 293.574219 338.683594 294.023438 C 338.382812 294.472656 338.0625 294.902344 337.71875 295.320312 C 337.378906 295.738281 337.015625 296.136719 336.632812 296.519531 C 336.253906 296.898438 335.855469 297.261719 335.4375 297.601562 C 335.019531 297.945312 334.585938 298.265625 334.140625 298.566406 C 333.691406 298.863281 333.230469 299.140625 332.753906 299.394531 C 332.277344 299.652344 331.789062 299.878906 331.292969 300.085938 C 330.792969 300.292969 330.289062 300.476562 329.769531 300.632812 C 329.253906 300.789062 328.734375 300.917969 328.203125 301.023438 C 327.675781 301.128906 327.140625 301.207031 326.605469 301.261719 C 326.070312 301.3125 325.53125 301.339844 324.992188 301.339844 C 324.453125 301.339844 323.914062 301.3125 323.378906 301.261719 C 322.839844 301.207031 322.308594 301.128906 321.78125 301.023438 C 321.25 300.917969 320.726562 300.789062 320.210938 300.632812 C 319.695312 300.476562 319.1875 300.292969 318.691406 300.085938 C 318.191406 299.878906 317.707031 299.652344 317.230469 299.394531 C 316.753906 299.140625 316.292969 298.863281 315.84375 298.566406 C 315.394531 298.265625 314.964844 297.945312 314.546875 297.601562 C 314.128906 297.261719 313.730469 296.898438 313.347656 296.519531 C 312.96875 296.136719 312.605469 295.738281 312.265625 295.320312 C 311.921875 294.902344 311.601562 294.472656 311.300781 294.023438 C 311.003906 293.574219 310.726562 293.113281 310.472656 292.636719 C 310.214844 292.160156 309.988281 291.675781 309.78125 291.175781 C 309.574219 290.679688 309.390625 290.171875 309.234375 289.65625 C 309.078125 289.140625 308.949219 288.617188 308.84375 288.085938 C 308.738281 287.558594 308.660156 287.027344 308.605469 286.488281 C 308.554688 285.953125 308.527344 285.414062 308.527344 284.875 C 308.527344 284.335938 308.554688 283.796875 308.605469 283.261719 C 308.660156 282.726562 308.738281 282.191406 308.84375 281.664062 C 308.949219 281.132812 309.078125 280.613281 309.234375 280.097656 C 309.390625 279.578125 309.574219 279.074219 309.78125 278.574219 C 309.988281 278.078125 310.214844 277.589844 310.472656 277.113281 C 310.726562 276.636719 311.003906 276.175781 311.300781 275.726562 C 311.601562 275.28125 311.921875 274.847656 312.265625 274.429688 C 312.605469 274.011719 312.96875 273.613281 313.347656 273.234375 C 313.730469 272.851562 314.128906 272.488281 314.546875 272.148438 C 314.964844 271.804688 315.394531 271.484375 315.84375 271.1875 C 316.292969 270.886719 316.753906 270.609375 317.230469 270.355469 C 317.707031 270.101562 318.191406 269.871094 318.691406 269.664062 C 319.1875 269.457031 319.695312 269.277344 320.210938 269.121094 C 320.726562 268.964844 321.25 268.832031 321.78125 268.726562 C 322.308594 268.621094 322.839844 268.542969 323.378906 268.488281 C 323.914062 268.4375 324.453125 268.410156 324.992188 268.410156 C 325.53125 268.410156 326.070312 268.4375 326.605469 268.488281 C 327.140625 268.542969 327.675781 268.621094 328.203125 268.726562 C 328.734375 268.832031 329.253906 268.964844 329.769531 269.121094 C 330.289062 269.277344 330.792969 269.457031 331.292969 269.664062 C 331.789062 269.871094 332.277344 270.101562 332.753906 270.355469 C 333.230469 270.609375 333.691406 270.886719 334.140625 271.1875 C 334.585938 271.484375 335.019531 271.804688 335.4375 272.148438 C 335.855469 272.488281 336.253906 272.851562 336.632812 273.234375 C 337.015625 273.613281 337.378906 274.011719 337.71875 274.429688 C 338.0625 274.847656 338.382812 275.28125 338.683594 275.726562 C 338.980469 276.175781 339.257812 276.636719 339.511719 277.113281 C 339.765625 277.589844 339.996094 278.078125 340.203125 278.574219 C 340.410156 279.074219 340.589844 279.578125 340.746094 280.097656 C 340.902344 280.613281 341.035156 281.132812 341.140625 281.664062 C 341.246094 282.191406 341.324219 282.726562 341.378906 283.261719 C 341.429688 283.796875 341.457031 284.335938 341.457031 284.875 Z M 341.457031 284.875 " fill-opacity="1" fill-rule="nonzero"/><path fill="#fff200" d="M 278.890625 232.1875 C 278.890625 232.726562 278.863281 233.265625 278.8125 233.800781 C 278.757812 234.339844 278.679688 234.871094 278.574219 235.398438 C 278.46875 235.929688 278.335938 236.453125 278.179688 236.96875 C 278.023438 237.484375 277.84375 237.992188 277.636719 238.488281 C 277.429688 238.988281 277.199219 239.472656 276.945312 239.949219 C 276.691406 240.425781 276.414062 240.886719 276.117188 241.335938 C 275.816406 241.785156 275.496094 242.214844 275.152344 242.632812 C 274.8125 243.050781 274.449219 243.449219 274.066406 243.832031 C 273.6875 244.210938 273.289062 244.574219 272.871094 244.914062 C 272.453125 245.257812 272.019531 245.578125 271.574219 245.878906 C 271.125 246.175781 270.664062 246.453125 270.1875 246.707031 C 269.710938 246.964844 269.222656 247.191406 268.726562 247.398438 C 268.226562 247.605469 267.722656 247.789062 267.203125 247.945312 C 266.6875 248.101562 266.167969 248.230469 265.636719 248.335938 C 265.109375 248.441406 264.574219 248.519531 264.039062 248.574219 C 263.503906 248.625 262.964844 248.652344 262.425781 248.652344 C 261.886719 248.652344 261.347656 248.625 260.8125 248.574219 C 260.273438 248.519531 259.742188 248.441406 259.214844 248.335938 C 258.683594 248.230469 258.160156 248.101562 257.644531 247.945312 C 257.128906 247.789062 256.621094 247.605469 256.125 247.398438 C 255.625 247.191406 255.140625 246.964844 254.664062 246.707031 C 254.1875 246.453125 253.726562 246.175781 253.277344 245.878906 C 252.828125 245.578125 252.398438 245.257812 251.980469 244.914062 C 251.5625 244.574219 251.164062 244.210938 250.78125 243.832031 C 250.402344 243.449219 250.039062 243.050781 249.699219 242.632812 C 249.355469 242.214844 249.035156 241.785156 248.734375 241.335938 C 248.4375 240.886719 248.160156 240.425781 247.90625 239.949219 C 247.648438 239.472656 247.421875 238.988281 247.214844 238.488281 C 247.007812 237.992188 246.824219 237.484375 246.667969 236.96875 C 246.511719 236.453125 246.382812 235.929688 246.277344 235.398438 C 246.171875 234.871094 246.09375 234.339844 246.039062 233.800781 C 245.988281 233.265625 245.960938 232.726562 245.960938 232.1875 C 245.960938 231.648438 245.988281 231.109375 246.039062 230.574219 C 246.09375 230.039062 246.171875 229.503906 246.277344 228.976562 C 246.382812 228.445312 246.511719 227.925781 246.667969 227.410156 C 246.824219 226.894531 247.007812 226.386719 247.214844 225.886719 C 247.421875 225.390625 247.648438 224.902344 247.90625 224.425781 C 248.160156 223.949219 248.4375 223.488281 248.734375 223.039062 C 249.035156 222.59375 249.355469 222.160156 249.699219 221.742188 C 250.039062 221.324219 250.402344 220.925781 250.78125 220.546875 C 251.164062 220.164062 251.5625 219.800781 251.980469 219.460938 C 252.398438 219.117188 252.828125 218.796875 253.277344 218.5 C 253.726562 218.199219 254.1875 217.921875 254.664062 217.667969 C 255.140625 217.414062 255.625 217.183594 256.125 216.976562 C 256.621094 216.769531 257.128906 216.589844 257.644531 216.433594 C 258.160156 216.277344 258.683594 216.144531 259.214844 216.039062 C 259.742188 215.933594 260.273438 215.855469 260.8125 215.800781 C 261.347656 215.75 261.886719 215.722656 262.425781 215.722656 C 262.964844 215.722656 263.503906 215.75 264.039062 215.800781 C 264.574219 215.855469 265.109375 215.933594 265.636719 216.039062 C 266.167969 216.144531 266.6875 216.277344 267.203125 216.433594 C 267.722656 216.589844 268.226562 216.769531 268.726562 216.976562 C 269.222656 217.183594 269.710938 217.414062 270.1875 217.667969 C 270.664062 217.921875 271.125 218.199219 271.574219 218.5 C 272.019531 218.796875 272.453125 219.117188 272.871094 219.460938 C 273.289062 219.800781 273.6875 220.164062 274.066406 220.546875 C 274.449219 220.925781 274.8125 221.324219 275.152344 221.742188 C 275.496094 222.160156 275.816406 222.59375 276.117188 223.039062 C 276.414062 223.488281 276.691406 223.949219 276.945312 224.425781 C 277.199219 224.902344 277.429688 225.390625 277.636719 225.886719 C 277.84375 226.386719 278.023438 226.894531 278.179688 227.410156 C 278.335938 227.925781 278.46875 228.445312 278.574219 228.976562 C 278.679688 229.503906 278.757812 230.039062 278.8125 230.574219 C 278.863281 231.109375 278.890625 231.648438 278.890625 232.1875 Z M 278.890625 232.1875 " fill-opacity="1" fill-rule="nonzero"/><path fill="#414042" d="M 265.71875 416.59375 C 265.71875 417.996094 265.648438 419.394531 265.511719 420.789062 C 265.375 422.1875 265.167969 423.570312 264.894531 424.945312 C 264.621094 426.320312 264.28125 427.679688 263.875 429.019531 C 263.46875 430.363281 262.996094 431.679688 262.460938 432.976562 C 261.921875 434.273438 261.324219 435.539062 260.664062 436.773438 C 260.003906 438.011719 259.28125 439.210938 258.503906 440.378906 C 257.726562 441.542969 256.890625 442.667969 256 443.75 C 255.113281 444.835938 254.171875 445.875 253.179688 446.863281 C 252.1875 447.855469 251.152344 448.796875 250.066406 449.6875 C 248.984375 450.574219 247.859375 451.410156 246.691406 452.1875 C 245.527344 452.96875 244.324219 453.6875 243.089844 454.347656 C 241.851562 455.007812 240.585938 455.609375 239.292969 456.144531 C 237.996094 456.679688 236.679688 457.152344 235.335938 457.558594 C 233.996094 457.964844 232.636719 458.308594 231.261719 458.582031 C 229.886719 458.855469 228.5 459.058594 227.105469 459.195312 C 225.710938 459.335938 224.3125 459.402344 222.910156 459.402344 C 221.507812 459.402344 220.109375 459.335938 218.714844 459.195312 C 217.320312 459.058594 215.933594 458.855469 214.558594 458.582031 C 213.183594 458.308594 211.824219 457.964844 210.484375 457.558594 C 209.140625 457.152344 207.824219 456.679688 206.527344 456.144531 C 205.230469 455.609375 203.964844 455.007812 202.730469 454.347656 C 201.492188 453.6875 200.292969 452.96875 199.125 452.1875 C 197.960938 451.410156 196.835938 450.574219 195.753906 449.6875 C 194.667969 448.796875 193.628906 447.855469 192.640625 446.863281 C 191.648438 445.875 190.707031 444.835938 189.816406 443.75 C 188.929688 442.667969 188.09375 441.542969 187.316406 440.378906 C 186.535156 439.210938 185.816406 438.011719 185.15625 436.773438 C 184.496094 435.539062 183.894531 434.273438 183.359375 432.976562 C 182.824219 431.679688 182.351562 430.363281 181.945312 429.019531 C 181.539062 427.679688 181.195312 426.320312 180.921875 424.945312 C 180.648438 423.570312 180.445312 422.1875 180.308594 420.789062 C 180.167969 419.394531 180.101562 417.996094 180.101562 416.59375 C 180.101562 415.191406 180.167969 413.792969 180.308594 412.398438 C 180.445312 411.003906 180.648438 409.617188 180.921875 408.242188 C 181.195312 406.867188 181.539062 405.507812 181.945312 404.167969 C 182.351562 402.824219 182.824219 401.507812 183.359375 400.210938 C 183.894531 398.917969 184.496094 397.652344 185.15625 396.414062 C 185.816406 395.179688 186.535156 393.976562 187.316406 392.8125 C 188.09375 391.644531 188.929688 390.519531 189.816406 389.4375 C 190.707031 388.351562 191.648438 387.316406 192.640625 386.324219 C 193.628906 385.332031 194.667969 384.390625 195.753906 383.503906 C 196.835938 382.613281 197.960938 381.777344 199.125 381 C 200.292969 380.222656 201.492188 379.5 202.730469 378.839844 C 203.964844 378.179688 205.230469 377.582031 206.527344 377.042969 C 207.824219 376.507812 209.140625 376.035156 210.484375 375.628906 C 211.824219 375.222656 213.183594 374.882812 214.558594 374.609375 C 215.933594 374.335938 217.320312 374.128906 218.714844 373.992188 C 220.109375 373.855469 221.507812 373.785156 222.910156 373.785156 C 224.3125 373.785156 225.710938 373.855469 227.105469 373.992188 C 228.5 374.128906 229.886719 374.335938 231.261719 374.609375 C 232.636719 374.882812 233.996094 375.222656 235.335938 375.628906 C 236.679688 376.035156 237.996094 376.507812 239.292969 377.042969 C 240.585938 377.582031 241.851562 378.179688 243.089844 378.839844 C 244.324219 379.5 245.527344 380.222656 246.691406 381 C 247.859375 381.777344 248.984375 382.613281 250.066406 383.503906 C 251.152344 384.390625 252.1875 385.332031 253.179688 386.324219 C 254.171875 387.316406 255.113281 388.351562 256 389.4375 C 256.890625 390.519531 257.726562 391.644531 258.503906 392.8125 C 259.28125 393.976562 260.003906 395.179688 260.664062 396.414062 C 261.324219 397.652344 261.921875 398.917969 262.460938 400.210938 C 262.996094 401.507812 263.46875 402.824219 263.875 404.167969 C 264.28125 405.507812 264.621094 406.867188 264.894531 408.242188 C 265.167969 409.617188 265.375 411.003906 265.511719 412.398438 C 265.648438 413.792969 265.71875 415.191406 265.71875 416.59375 Z M 265.71875 416.59375 " fill-opacity="1" fill-rule="nonzero"/><path fill="#414042" d="M 410.609375 416.59375 C 410.609375 417.996094 410.539062 419.394531 410.402344 420.789062 C 410.265625 422.1875 410.058594 423.570312 409.785156 424.945312 C 409.511719 426.320312 409.171875 427.679688 408.765625 429.019531 C 408.359375 430.363281 407.886719 431.679688 407.351562 432.976562 C 406.8125 434.273438 406.214844 435.539062 405.554688 436.773438 C 404.894531 438.011719 404.171875 439.210938 403.394531 440.378906 C 402.617188 441.542969 401.78125 442.667969 400.890625 443.75 C 400.003906 444.835938 399.0625 445.875 398.070312 446.863281 C 397.078125 447.855469 396.042969 448.796875 394.957031 449.6875 C 393.875 450.574219 392.75 451.410156 391.582031 452.1875 C 390.417969 452.96875 389.214844 453.6875 387.980469 454.347656 C 386.742188 455.007812 385.476562 455.609375 384.183594 456.144531 C 382.886719 456.679688 381.570312 457.152344 380.226562 457.558594 C 378.886719 457.964844 377.527344 458.308594 376.152344 458.582031 C 374.777344 458.855469 373.390625 459.058594 371.996094 459.195312 C 370.601562 459.335938 369.203125 459.402344 367.800781 459.402344 C 366.398438 459.402344 365 459.335938 363.605469 459.195312 C 362.210938 459.058594 360.824219 458.855469 359.449219 458.582031 C 358.074219 458.308594 356.714844 457.964844 355.375 457.558594 C 354.03125 457.152344 352.714844 456.679688 351.417969 456.144531 C 350.121094 455.609375 348.855469 455.007812 347.621094 454.347656 C 346.382812 453.6875 345.183594 452.96875 344.015625 452.1875 C 342.851562 451.410156 341.726562 450.574219 340.644531 449.6875 C 339.558594 448.796875 338.519531 447.855469 337.53125 446.863281 C 336.539062 445.875 335.597656 444.835938 334.707031 443.75 C 333.820312 442.667969 332.984375 441.542969 332.207031 440.378906 C 331.425781 439.210938 330.707031 438.011719 330.046875 436.773438 C 329.386719 435.539062 328.785156 434.273438 328.25 432.976562 C 327.714844 431.679688 327.242188 430.363281 326.835938 429.019531 C 326.429688 427.679688 326.085938 426.320312 325.8125 424.945312 C 325.539062 423.570312 325.335938 422.1875 325.199219 420.789062 C 325.058594 419.394531 324.992188 417.996094 324.992188 416.59375 C 324.992188 415.191406 325.058594 413.792969 325.199219 412.398438 C 325.335938 411.003906 325.539062 409.617188 325.8125 408.242188 C 326.085938 406.867188 326.429688 405.507812 326.835938 404.167969 C 327.242188 402.824219 327.714844 401.507812 328.25 400.210938 C 328.785156 398.917969 329.386719 397.652344 330.046875 396.414062 C 330.707031 395.179688 331.425781 393.976562 332.207031 392.8125 C 332.984375 391.644531 333.820312 390.519531 334.707031 389.4375 C 335.597656 388.351562 336.539062 387.316406 337.53125 386.324219 C 338.519531 385.332031 339.558594 384.390625 340.644531 383.503906 C 341.726562 382.613281 342.851562 381.777344 344.015625 381 C 345.183594 380.222656 346.382812 379.5 347.621094 378.839844 C 348.855469 378.179688 350.121094 377.582031 351.417969 377.042969 C 352.714844 376.507812 354.03125 376.035156 355.375 375.628906 C 356.714844 375.222656 358.074219 374.882812 359.449219 374.609375 C 360.824219 374.335938 362.210938 374.128906 363.605469 373.992188 C 365 373.855469 366.398438 373.785156 367.800781 373.785156 C 369.203125 373.785156 370.601562 373.855469 371.996094 373.992188 C 373.390625 374.128906 374.777344 374.335938 376.152344 374.609375 C 377.527344 374.882812 378.886719 375.222656 380.226562 375.628906 C 381.570312 376.035156 382.886719 376.507812 384.183594 377.042969 C 385.476562 377.582031 386.742188 378.179688 387.980469 378.839844 C 389.214844 379.5 390.417969 380.222656 391.582031 381 C 392.75 381.777344 393.875 382.613281 394.957031 383.503906 C 396.042969 384.390625 397.078125 385.332031 398.070312 386.324219 C 399.0625 387.316406 400.003906 388.351562 400.890625 389.4375 C 401.78125 390.519531 402.617188 391.644531 403.394531 392.8125 C 404.171875 393.976562 404.894531 395.179688 405.554688 396.414062 C 406.214844 397.652344 406.8125 398.917969 407.351562 400.210938 C 407.886719 401.507812 408.359375 402.824219 408.765625 404.167969 C 409.171875 405.507812 409.511719 406.867188 409.785156 408.242188 C 410.058594 409.617188 410.265625 411.003906 410.402344 412.398438 C 410.539062 413.792969 410.609375 415.191406 410.609375 416.59375 Z M 410.609375 416.59375 " fill-opacity="1" fill-rule="nonzero"/></svg>