<svg xmlns="http://www.w3.org/2000/svg" xmlns:xlink="http://www.w3.org/1999/xlink" width="768" zoomAndPan="magnify" viewBox="0 0 576 576" height="768" preserveAspectRatio="xMidYMid meet" version="1.0"><defs><clipPath id="ed5118ff00"><path d="M 75.191406 311 L 222 311 L 222 385 L 75.191406 385 Z M 75.191406 311 " clip-rule="nonzero"/></clipPath><clipPath id="8de173d40f"><path d="M 75.191406 330 L 222 330 L 222 385 L 75.191406 385 Z M 75.191406 330 " clip-rule="nonzero"/></clipPath><clipPath id="aece964ab9"><path d="M 75.191406 349 L 102 349 L 102 385 L 75.191406 385 Z M 75.191406 349 " clip-rule="nonzero"/></clipPath><clipPath id="6a9454220a"><path d="M 324 325 L 500.441406 325 L 500.441406 384 L 324 384 Z M 324 325 " clip-rule="nonzero"/></clipPath><clipPath id="dba2056fe9"><path d="M 470 342 L 500.441406 342 L 500.441406 384 L 470 384 Z M 470 342 " clip-rule="nonzero"/></clipPath></defs><path fill="#d9d9d9" d="M 576 288 C 576 292.714844 575.882812 297.425781 575.652344 302.132812 C 575.421875 306.839844 575.074219 311.539062 574.613281 316.230469 C 574.152344 320.917969 573.574219 325.597656 572.882812 330.257812 C 572.191406 334.921875 571.386719 339.5625 570.464844 344.1875 C 569.546875 348.808594 568.515625 353.40625 567.367188 357.976562 C 566.222656 362.550781 564.96875 367.089844 563.597656 371.601562 C 562.230469 376.113281 560.753906 380.585938 559.164062 385.023438 C 557.578125 389.460938 555.882812 393.859375 554.078125 398.214844 C 552.273438 402.566406 550.363281 406.875 548.347656 411.136719 C 546.332031 415.398438 544.214844 419.605469 541.992188 423.761719 C 539.769531 427.917969 537.449219 432.019531 535.027344 436.0625 C 532.601562 440.105469 530.082031 444.085938 527.464844 448.003906 C 524.84375 451.921875 522.132812 455.777344 519.324219 459.5625 C 516.515625 463.347656 513.617188 467.0625 510.628906 470.707031 C 507.636719 474.347656 504.558594 477.917969 501.394531 481.410156 C 498.230469 484.902344 494.980469 488.3125 491.648438 491.648438 C 488.3125 494.980469 484.902344 498.230469 481.410156 501.394531 C 477.917969 504.558594 474.347656 507.636719 470.707031 510.628906 C 467.0625 513.617188 463.347656 516.515625 459.5625 519.324219 C 455.777344 522.132812 451.921875 524.84375 448.003906 527.464844 C 444.085938 530.082031 440.105469 532.601562 436.0625 535.027344 C 432.019531 537.449219 427.917969 539.769531 423.761719 541.992188 C 419.605469 544.214844 415.398438 546.332031 411.136719 548.347656 C 406.875 550.363281 402.566406 552.273438 398.210938 554.078125 C 393.859375 555.882812 389.460938 557.578125 385.023438 559.164062 C 380.585938 560.753906 376.113281 562.230469 371.601562 563.597656 C 367.089844 564.96875 362.550781 566.222656 357.976562 567.367188 C 353.40625 568.515625 348.808594 569.546875 344.1875 570.464844 C 339.5625 571.386719 334.921875 572.191406 330.257812 572.882812 C 325.597656 573.574219 320.917969 574.152344 316.230469 574.613281 C 311.539062 575.074219 306.839844 575.421875 302.132812 575.652344 C 297.421875 575.882812 292.714844 576 288 576 C 283.285156 576 278.574219 575.882812 273.867188 575.652344 C 269.160156 575.421875 264.460938 575.074219 259.769531 574.613281 C 255.082031 574.152344 250.402344 573.574219 245.742188 572.882812 C 241.078125 572.191406 236.4375 571.386719 231.8125 570.464844 C 227.191406 569.546875 222.59375 568.515625 218.023438 567.367188 C 213.449219 566.222656 208.910156 564.96875 204.398438 563.597656 C 199.886719 562.230469 195.414062 560.753906 190.976562 559.164062 C 186.539062 557.578125 182.140625 555.882812 177.785156 554.078125 C 173.433594 552.273438 169.125 550.363281 164.863281 548.347656 C 160.601562 546.332031 156.394531 544.214844 152.238281 541.992188 C 148.082031 539.773438 143.980469 537.449219 139.9375 535.027344 C 135.894531 532.601562 131.914062 530.082031 127.996094 527.464844 C 124.078125 524.84375 120.222656 522.132812 116.4375 519.324219 C 112.652344 516.515625 108.9375 513.617188 105.292969 510.628906 C 101.652344 507.636719 98.082031 504.558594 94.589844 501.394531 C 91.097656 498.230469 87.6875 494.980469 84.351562 491.648438 C 81.019531 488.3125 77.769531 484.902344 74.605469 481.410156 C 71.441406 477.917969 68.363281 474.347656 65.371094 470.707031 C 62.382812 467.0625 59.484375 463.347656 56.675781 459.5625 C 53.867188 455.777344 51.15625 451.921875 48.535156 448.003906 C 45.917969 444.085938 43.398438 440.105469 40.972656 436.0625 C 38.550781 432.019531 36.226562 427.917969 34.007812 423.761719 C 31.785156 419.605469 29.667969 415.398438 27.652344 411.136719 C 25.636719 406.875 23.726562 402.566406 21.921875 398.210938 C 20.117188 393.859375 18.421875 389.460938 16.835938 385.023438 C 15.246094 380.585938 13.769531 376.113281 12.402344 371.601562 C 11.03125 367.089844 9.777344 362.550781 8.632812 357.976562 C 7.484375 353.40625 6.453125 348.808594 5.535156 344.1875 C 4.613281 339.5625 3.808594 334.921875 3.117188 330.257812 C 2.425781 325.597656 1.847656 320.917969 1.386719 316.230469 C 0.925781 311.539062 0.578125 306.839844 0.347656 302.132812 C 0.117188 297.425781 0 292.714844 0 288 C 0 283.285156 0.117188 278.578125 0.347656 273.867188 C 0.578125 269.160156 0.925781 264.460938 1.386719 259.769531 C 1.847656 255.082031 2.425781 250.402344 3.117188 245.742188 C 3.808594 241.078125 4.613281 236.4375 5.535156 231.8125 C 6.453125 227.191406 7.484375 222.59375 8.632812 218.023438 C 9.777344 213.449219 11.03125 208.910156 12.402344 204.398438 C 13.769531 199.886719 15.246094 195.414062 16.835938 190.976562 C 18.421875 186.539062 20.117188 182.140625 21.921875 177.789062 C 23.726562 173.433594 25.636719 169.125 27.652344 164.863281 C 29.667969 160.601562 31.785156 156.394531 34.007812 152.238281 C 36.226562 148.082031 38.550781 143.980469 40.972656 139.9375 C 43.398438 135.894531 45.917969 131.914062 48.535156 127.996094 C 51.15625 124.078125 53.867188 120.222656 56.675781 116.4375 C 59.484375 112.652344 62.382812 108.9375 65.371094 105.292969 C 68.363281 101.652344 71.441406 98.082031 74.605469 94.589844 C 77.769531 91.097656 81.019531 87.6875 84.351562 84.351562 C 87.6875 81.019531 91.097656 77.769531 94.589844 74.605469 C 98.082031 71.441406 101.652344 68.363281 105.292969 65.375 C 108.9375 62.382812 112.652344 59.484375 116.4375 56.675781 C 120.222656 53.867188 124.078125 51.15625 127.996094 48.535156 C 131.914062 45.917969 135.894531 43.398438 139.9375 40.972656 C 143.980469 38.550781 148.082031 36.230469 152.238281 34.007812 C 156.394531 31.785156 160.601562 29.667969 164.863281 27.652344 C 169.125 25.636719 173.433594 23.726562 177.789062 21.921875 C 182.140625 20.117188 186.539062 18.421875 190.976562 16.835938 C 195.414062 15.246094 199.886719 13.769531 204.398438 12.402344 C 208.910156 11.03125 213.449219 9.777344 218.023438 8.632812 C 222.59375 7.484375 227.191406 6.453125 231.8125 5.535156 C 236.4375 4.613281 241.078125 3.808594 245.742188 3.117188 C 250.402344 2.425781 255.082031 1.847656 259.769531 1.386719 C 264.460938 0.925781 269.160156 0.578125 273.867188 0.347656 C 278.574219 0.117188 283.285156 0 288 0 C 292.714844 0 297.421875 0.117188 302.132812 0.347656 C 306.839844 0.578125 311.539062 0.925781 316.230469 1.386719 C 320.917969 1.847656 325.597656 2.425781 330.257812 3.117188 C 334.921875 3.808594 339.5625 4.613281 344.1875 5.535156 C 348.808594 6.453125 353.40625 7.484375 357.976562 8.632812 C 362.550781 9.777344 367.089844 11.03125 371.601562 12.402344 C 376.113281 13.769531 380.585938 15.246094 385.023438 16.835938 C 389.460938 18.421875 393.859375 20.117188 398.210938 21.921875 C 402.566406 23.726562 406.875 25.636719 411.136719 27.652344 C 415.398438 29.667969 419.605469 31.785156 423.761719 34.007812 C 427.917969 36.230469 432.019531 38.550781 436.0625 40.972656 C 440.105469 43.398438 444.085938 45.917969 448.003906 48.535156 C 451.921875 51.15625 455.777344 53.867188 459.5625 56.675781 C 463.347656 59.484375 467.0625 62.382812 470.707031 65.375 C 474.347656 68.363281 477.917969 71.441406 481.410156 74.605469 C 484.902344 77.769531 488.3125 81.019531 491.648438 84.351562 C 494.980469 87.6875 498.230469 91.097656 501.394531 94.589844 C 504.558594 98.082031 507.636719 101.652344 510.628906 105.292969 C 513.617188 108.9375 516.515625 112.652344 519.324219 116.4375 C 522.132812 120.222656 524.84375 124.078125 527.464844 127.996094 C 530.082031 131.914062 532.601562 135.894531 535.027344 139.9375 C 537.449219 143.980469 539.769531 148.082031 541.992188 152.238281 C 544.214844 156.394531 546.332031 160.601562 548.347656 164.863281 C 550.363281 169.125 552.273438 173.433594 554.078125 177.789062 C 555.882812 182.140625 557.578125 186.539062 559.164062 190.976562 C 560.753906 195.414062 562.230469 199.886719 563.597656 204.398438 C 564.96875 208.910156 566.222656 213.449219 567.367188 218.023438 C 568.515625 222.59375 569.546875 227.191406 570.464844 231.8125 C 571.386719 236.4375 572.191406 241.078125 572.882812 245.742188 C 573.574219 250.402344 574.152344 255.082031 574.613281 259.769531 C 575.074219 264.460938 575.421875 269.160156 575.652344 273.867188 C 575.882812 278.578125 576 283.285156 576 288 Z M 576 288 " fill-opacity="1" fill-rule="nonzero"/><path fill="#694b4b" d="M 148.464844 190.183594 C 80.242188 190.183594 87.804688 273.148438 88.117188 333.273438 C 88.128906 335.542969 89.320312 337.589844 91.265625 338.761719 C 98.824219 343.320312 119.585938 353.976562 148.464844 353.976562 C 177.34375 353.976562 198.109375 343.320312 205.667969 338.761719 C 207.613281 337.589844 208.800781 335.542969 208.8125 333.273438 C 209.125 273.148438 216.691406 190.183594 148.464844 190.183594 Z M 148.464844 190.183594 " fill-opacity="1" fill-rule="nonzero"/><path fill="#5a4146" d="M 144.070312 190.355469 C 80.621094 193.914062 87.8125 274.488281 88.117188 333.273438 C 88.128906 335.542969 89.320312 337.589844 91.265625 338.761719 C 98.824219 343.320312 119.585938 353.976562 148.464844 353.976562 L 165.707031 233.285156 " fill-opacity="1" fill-rule="nonzero"/><path fill="#694b4b" d="M 148.464844 190.183594 C 109.671875 190.183594 106.980469 237.058594 106.980469 237.058594 C 129.339844 233.285156 143.078125 242.714844 165.707031 233.285156 L 148.464844 353.976562 C 177.347656 353.976562 198.109375 343.320312 205.667969 338.761719 C 207.613281 337.589844 208.800781 335.542969 208.8125 333.273438 C 209.125 273.148438 216.691406 190.183594 148.464844 190.183594 Z M 148.464844 190.183594 " fill-opacity="1" fill-rule="nonzero"/><path fill="#785550" d="M 208.8125 333.273438 C 209.082031 281.609375 214.660156 213.128906 172.949219 194.867188 C 172.21875 198.648438 170.902344 209.199219 174.328125 216.046875 C 182.949219 233.285156 191.570312 233.285156 200.1875 246.21875 C 208.808594 293.628906 183.71875 343.953125 175.382812 350.804688 C 190.148438 347.292969 200.734375 341.734375 205.667969 338.761719 C 207.613281 337.589844 208.800781 335.542969 208.8125 333.273438 Z M 208.8125 333.273438 " fill-opacity="1" fill-rule="nonzero"/><g clip-path="url(#ed5118ff00)"><path fill="#e6af78" d="M 213.78125 346.347656 L 175.320312 330.324219 C 172.109375 328.984375 170.015625 325.847656 170.015625 322.367188 L 170.015625 311.949219 L 126.914062 311.949219 L 126.914062 322.367188 C 126.914062 325.847656 124.820312 328.984375 121.609375 330.324219 L 83.148438 346.347656 C 78.332031 348.355469 75.191406 353.066406 75.191406 358.285156 L 75.191406 375.527344 C 75.191406 380.289062 79.050781 384.148438 83.8125 384.148438 L 213.121094 384.148438 C 217.878906 384.148438 221.738281 380.289062 221.738281 375.527344 L 221.738281 358.285156 C 221.742188 353.066406 218.601562 348.355469 213.78125 346.347656 Z M 213.78125 346.347656 " fill-opacity="1" fill-rule="nonzero"/></g><g clip-path="url(#8de173d40f)"><path fill="#eff2fa" d="M 213.78125 346.347656 L 176.597656 330.851562 L 148.464844 342.996094 L 120.335938 330.855469 L 83.148438 346.347656 C 78.332031 348.355469 75.191406 353.066406 75.191406 358.285156 L 75.191406 375.527344 C 75.191406 380.289062 79.050781 384.148438 83.8125 384.148438 L 213.121094 384.148438 C 217.878906 384.148438 221.738281 380.289062 221.738281 375.527344 L 221.738281 358.285156 C 221.742188 353.066406 218.601562 348.355469 213.78125 346.347656 Z M 213.78125 346.347656 " fill-opacity="1" fill-rule="nonzero"/></g><path fill="#d29b6e" d="M 170.015625 311.949219 L 126.914062 311.949219 L 126.914062 322.367188 C 126.914062 325.847656 124.820312 328.984375 121.609375 330.324219 L 115.605469 332.828125 C 161.570312 344.546875 170.015625 311.949219 170.015625 311.949219 Z M 170.015625 311.949219 " fill-opacity="1" fill-rule="nonzero"/><g clip-path="url(#aece964ab9)"><path fill="#e4eaf6" d="M 96.199219 363.023438 L 78.898438 349.261719 C 76.582031 351.632812 75.191406 354.835938 75.191406 358.285156 L 75.191406 375.527344 C 75.191406 380.289062 79.050781 384.148438 83.8125 384.148438 L 101.054688 384.148438 L 101.054688 373.121094 C 101.054688 369.191406 99.269531 365.476562 96.199219 363.023438 Z M 96.199219 363.023438 " fill-opacity="1" fill-rule="nonzero"/></g><path fill="#e4eaf6" d="M 221.742188 375.527344 L 221.742188 358.285156 C 221.742188 354.863281 220.375 351.679688 218.089844 349.3125 L 200.730469 363.023438 C 197.664062 365.476562 195.878906 369.191406 195.878906 373.121094 L 195.878906 384.144531 L 213.121094 384.144531 C 217.882812 384.148438 221.742188 380.285156 221.742188 375.527344 Z M 221.742188 375.527344 " fill-opacity="1" fill-rule="nonzero"/><path fill="#e4eaf6" d="M 149.113281 375.527344 L 147.820312 375.527344 C 145.796875 375.527344 144.15625 373.886719 144.15625 371.863281 L 144.15625 343.003906 L 152.777344 343.003906 L 152.777344 371.863281 C 152.777344 373.886719 151.136719 375.527344 149.113281 375.527344 Z M 149.113281 375.527344 " fill-opacity="1" fill-rule="nonzero"/><path fill="#e4eaf6" d="M 148.464844 342.996094 L 123.796875 324.492188 C 122.210938 323.304688 119.957031 323.691406 118.859375 325.339844 L 113.984375 332.652344 L 129.109375 353.824219 C 130.257812 355.433594 132.523438 355.75 134.070312 354.515625 Z M 148.464844 342.996094 " fill-opacity="1" fill-rule="nonzero"/><path fill="#e4eaf6" d="M 148.464844 342.996094 L 173.136719 324.492188 C 174.71875 323.304688 176.976562 323.691406 178.074219 325.339844 L 182.949219 332.652344 L 167.824219 353.824219 C 166.671875 355.433594 164.40625 355.75 162.863281 354.515625 Z M 148.464844 342.996094 " fill-opacity="1" fill-rule="nonzero"/><path fill="#f0c087" d="M 170.015625 228.976562 C 148.464844 250.527344 106.171875 233.285156 106.171875 267.769531 L 108.847656 293.167969 C 109.363281 298.851562 112.660156 303.910156 117.644531 306.679688 L 142.1875 320.3125 C 146.089844 322.480469 150.839844 322.480469 154.746094 320.3125 L 179.285156 306.679688 C 184.273438 303.910156 187.566406 298.847656 188.082031 293.167969 L 191.171875 263.003906 C 191.394531 260.859375 191.4375 258.699219 191.367188 256.550781 C 189.753906 245.578125 174.328125 237.597656 170.015625 228.976562 Z M 170.015625 228.976562 " fill-opacity="1" fill-rule="nonzero"/><path fill="#e6af78" d="M 106.171875 267.769531 L 108.847656 293.167969 C 109.363281 298.851562 112.660156 303.910156 117.644531 306.679688 L 142.1875 320.3125 C 144.894531 321.820312 148.003906 322.207031 150.960938 321.625 C 150.960938 321.625 138.589844 317.875 131.226562 297.941406 C 128.96875 291.832031 125.835938 259.507812 128.53125 255.554688 C 133.855469 247.746094 163.550781 246.933594 172.328125 232.449219 C 171.894531 231.910156 171.492188 231.371094 171.128906 230.832031 C 171.097656 230.789062 171.0625 230.746094 171.03125 230.699219 C 170.652344 230.128906 170.304688 229.554688 170.015625 228.976562 C 148.464844 250.527344 106.171875 233.285156 106.171875 267.769531 Z M 106.171875 267.769531 " fill-opacity="1" fill-rule="nonzero"/><path fill="#e4eaf6" d="M 179.929688 375.527344 L 168.722656 375.527344 C 164.675781 375.527344 161.398438 378.808594 161.398438 382.851562 L 161.398438 384.148438 L 187.257812 384.148438 L 187.257812 382.851562 C 187.257812 378.804688 183.976562 375.527344 179.929688 375.527344 Z M 179.929688 375.527344 " fill-opacity="1" fill-rule="nonzero"/><path fill="#e6af78" d="M 442.949219 326.308594 L 442.949219 302.636719 L 382.074219 302.636719 L 382.074219 326.308594 L 412.511719 353.363281 Z M 442.949219 326.308594 " fill-opacity="1" fill-rule="nonzero"/><g clip-path="url(#6a9454220a)"><path fill="#eff2fa" d="M 490.011719 337.382812 L 448.164062 327.535156 C 447.53125 327.386719 446.949219 327.132812 446.40625 326.828125 L 412.511719 346.601562 L 379.9375 325.871094 C 379.09375 326.667969 378.050781 327.257812 376.859375 327.535156 L 335.011719 337.382812 C 328.902344 338.820312 324.582031 344.273438 324.582031 350.550781 L 324.582031 377.039062 C 324.582031 380.773438 327.609375 383.800781 331.347656 383.800781 L 493.679688 383.800781 C 497.414062 383.800781 500.441406 380.773438 500.441406 377.039062 L 500.441406 350.550781 C 500.441406 344.273438 496.121094 338.820312 490.011719 337.382812 Z M 490.011719 337.382812 " fill-opacity="1" fill-rule="nonzero"/></g><path fill="#d29b6e" d="M 382.074219 302.636719 L 382.074219 327.613281 C 420.417969 341.425781 442.949219 306.851562 442.949219 306.851562 L 442.949219 302.636719 Z M 382.074219 302.636719 " fill-opacity="1" fill-rule="nonzero"/><path fill="#f0c087" d="M 368.546875 224.851562 L 371.496094 289.6875 C 371.769531 295.746094 374.738281 301.359375 379.589844 305 L 393.574219 315.488281 C 397.085938 318.121094 401.359375 319.542969 405.75 319.542969 L 419.277344 319.542969 C 423.664062 319.542969 427.9375 318.121094 431.449219 315.488281 L 445.433594 305 C 450.285156 301.359375 453.253906 295.742188 453.527344 289.6875 L 456.476562 224.851562 Z M 368.546875 224.851562 " fill-opacity="1" fill-rule="nonzero"/><path fill="#e6af78" d="M 402.367188 238.378906 C 415.894531 238.378906 436.183594 234.996094 441 224.851562 L 368.546875 224.851562 L 371.492188 289.6875 C 371.769531 295.746094 374.738281 301.359375 379.589844 305 L 393.574219 315.488281 C 397.085938 318.121094 401.359375 319.542969 405.746094 319.542969 L 412.511719 319.542969 C 405.746094 319.542969 392.21875 306.015625 392.21875 289.105469 C 392.21875 280.835938 392.21875 258.667969 392.21875 248.523438 C 392.21875 245.140625 395.601562 238.378906 402.367188 238.378906 Z M 402.367188 238.378906 " fill-opacity="1" fill-rule="nonzero"/><g clip-path="url(#dba2056fe9)"><path fill="#e4eaf6" d="M 475.613281 361.851562 L 497.527344 342.164062 C 499.363281 344.492188 500.441406 347.417969 500.441406 350.550781 L 500.441406 377.035156 C 500.441406 380.769531 497.414062 383.800781 493.675781 383.800781 L 470.003906 383.800781 L 470.003906 374.429688 C 470.003906 369.632812 472.042969 365.058594 475.613281 361.851562 Z M 475.613281 361.851562 " fill-opacity="1" fill-rule="nonzero"/></g><path fill="#5b5d6e" d="M 420.964844 383.800781 L 404.054688 383.800781 L 406.171875 353.363281 L 418.851562 353.363281 Z M 420.964844 383.800781 " fill-opacity="1" fill-rule="nonzero"/><path fill="#515262" d="M 420.964844 346.597656 L 404.054688 346.597656 L 404.054688 348.554688 C 404.054688 353.078125 407.722656 356.746094 412.25 356.746094 L 412.773438 356.746094 C 417.296875 356.746094 420.964844 353.078125 420.964844 348.554688 Z M 420.964844 346.597656 " fill-opacity="1" fill-rule="nonzero"/><path fill="#e4eaf6" d="M 381.597656 318.78125 L 412.511719 346.601562 C 412.511719 346.601562 403.855469 350.96875 393.171875 359.777344 C 390.964844 361.597656 387.632812 360.859375 386.449219 358.257812 L 371.925781 326.308594 L 376.523438 319.417969 C 377.667969 317.703125 380.066406 317.398438 381.597656 318.78125 Z M 381.597656 318.78125 " fill-opacity="1" fill-rule="nonzero"/><path fill="#e4eaf6" d="M 443.421875 318.78125 L 412.511719 346.601562 C 412.511719 346.601562 421.167969 350.96875 431.851562 359.777344 C 434.054688 361.597656 437.390625 360.859375 438.570312 358.257812 L 453.09375 326.308594 L 448.5 319.417969 C 447.355469 317.703125 444.957031 317.398438 443.421875 318.78125 Z M 443.421875 318.78125 " fill-opacity="1" fill-rule="nonzero"/><path fill="#785550" d="M 433.015625 202.445312 L 436.183594 224.851562 C 450.65625 227.746094 452.742188 250.457031 453.042969 256.945312 C 453.097656 258.121094 453.472656 259.257812 454.113281 260.25 L 459.636719 268.816406 C 459.636719 268.816406 457.746094 254.652344 466.398438 245.140625 C 466.398438 245.140625 469.371094 188.917969 433.015625 202.445312 Z M 433.015625 202.445312 " fill-opacity="1" fill-rule="nonzero"/><path fill="#f0c087" d="M 463.027344 267.371094 L 459.207031 282.644531 C 458.753906 284.457031 457.128906 285.726562 455.261719 285.726562 C 453.210938 285.726562 451.484375 284.199219 451.226562 282.164062 L 449.277344 266.539062 C 448.753906 262.359375 452.011719 258.671875 456.222656 258.671875 L 456.234375 258.671875 C 460.789062 258.667969 464.132812 262.949219 463.027344 267.371094 Z M 463.027344 267.371094 " fill-opacity="1" fill-rule="nonzero"/><path fill="#694b4b" d="M 371.789062 196.386719 L 376.789062 199.804688 C 354.171875 216.503906 358.398438 245.140625 358.398438 245.140625 C 365.164062 251.90625 365.164062 268.816406 365.164062 268.816406 L 371.929688 262.050781 C 371.929688 262.050781 369.316406 242.511719 382.074219 234.996094 C 393.910156 228.019531 404.269531 231.613281 414.835938 231.613281 C 443.160156 231.613281 451.085938 220.941406 449.710938 207.941406 C 449 201.214844 438.71875 187.207031 412.511719 187.652344 C 401.933594 187.832031 382.074219 191.03125 371.789062 196.386719 Z M 371.789062 196.386719 " fill-opacity="1" fill-rule="nonzero"/><path fill="#5a4146" d="M 369.816406 228.65625 C 369.816406 228.65625 366.222656 214.492188 376.789062 199.804688 C 354.171875 216.503906 358.398438 245.140625 358.398438 245.140625 C 365.164062 251.90625 365.164062 268.816406 365.164062 268.816406 L 371.929688 262.050781 C 371.929688 262.050781 369.316406 242.511719 382.074219 234.996094 C 393.910156 228.019531 404.265625 231.613281 414.835938 231.613281 C 419.441406 231.613281 423.457031 231.304688 427.03125 230.777344 C 405.21875 231.507812 392.359375 214.988281 369.816406 228.65625 Z M 369.816406 228.65625 " fill-opacity="1" fill-rule="nonzero"/><path fill="#e6af78" d="M 361.996094 267.371094 L 365.816406 282.644531 C 366.265625 284.457031 367.894531 285.726562 369.761719 285.726562 C 371.808594 285.726562 373.539062 284.199219 373.792969 282.164062 L 375.746094 266.539062 C 376.269531 262.359375 373.011719 258.671875 368.800781 258.671875 L 368.785156 258.671875 C 364.234375 258.667969 360.890625 262.949219 361.996094 267.371094 Z M 361.996094 267.371094 " fill-opacity="1" fill-rule="nonzero"/><path fill="#e4eaf6" d="M 453.09375 377.035156 L 436.183594 377.035156 C 432.449219 377.035156 429.421875 380.066406 429.421875 383.800781 L 459.855469 383.800781 C 459.859375 380.066406 456.828125 377.035156 453.09375 377.035156 Z M 453.09375 377.035156 " fill-opacity="1" fill-rule="nonzero"/><path fill="#694b4b" d="M 287.945312 105.359375 C 171.964844 105.359375 184.824219 246.398438 185.355469 348.605469 C 185.375 352.464844 187.394531 355.945312 190.703125 357.9375 C 203.554688 365.6875 238.847656 383.800781 287.945312 383.800781 C 337.039062 383.800781 372.335938 365.6875 385.1875 357.9375 C 388.492188 355.945312 390.515625 352.464844 390.535156 348.605469 C 391.066406 246.398438 403.925781 105.359375 287.945312 105.359375 Z M 287.945312 105.359375 " fill-opacity="1" fill-rule="nonzero"/><path fill="#5a4146" d="M 280.472656 105.648438 C 172.605469 111.695312 184.835938 248.671875 185.355469 348.605469 C 185.375 352.464844 187.394531 355.945312 190.703125 357.9375 C 203.554688 365.6875 238.847656 383.800781 287.945312 383.800781 L 317.253906 178.628906 " fill-opacity="1" fill-rule="nonzero"/><path fill="#694b4b" d="M 287.945312 105.359375 C 222 105.359375 217.417969 185.042969 217.417969 185.042969 C 255.429688 178.632812 278.785156 194.660156 317.253906 178.632812 L 287.945312 383.800781 C 337.039062 383.800781 372.335938 365.6875 385.1875 357.941406 C 388.492188 355.945312 390.515625 352.464844 390.535156 348.605469 C 391.066406 246.398438 403.925781 105.359375 287.945312 105.359375 Z M 287.945312 105.359375 " fill-opacity="1" fill-rule="nonzero"/><path fill="#785550" d="M 390.535156 348.605469 C 390.992188 260.78125 400.472656 144.367188 329.566406 113.320312 C 328.328125 119.746094 326.089844 137.679688 331.910156 149.324219 C 346.566406 178.632812 361.21875 178.632812 375.875 200.613281 C 390.527344 281.21875 347.871094 366.765625 333.703125 378.414062 C 358.804688 372.441406 376.800781 362.996094 385.1875 357.941406 C 388.492188 355.945312 390.515625 352.464844 390.535156 348.605469 Z M 390.535156 348.605469 " fill-opacity="1" fill-rule="nonzero"/><path fill="#e6af78" d="M 398.984375 370.835938 L 333.601562 343.59375 C 328.140625 341.320312 324.582031 335.980469 324.582031 330.066406 L 324.582031 312.359375 L 251.308594 312.359375 L 251.308594 330.066406 C 251.308594 335.980469 247.75 341.316406 242.289062 343.59375 L 176.90625 370.835938 C 168.714844 374.25 163.378906 382.253906 163.378906 391.128906 L 163.378906 420.4375 C 163.378906 428.53125 169.941406 435.09375 178.03125 435.09375 L 397.855469 435.09375 C 405.949219 435.09375 412.511719 428.53125 412.511719 420.4375 L 412.511719 391.128906 C 412.511719 382.253906 407.175781 374.25 398.984375 370.835938 Z M 398.984375 370.835938 " fill-opacity="1" fill-rule="nonzero"/><path fill="#b4e1fa" d="M 398.984375 370.835938 L 335.765625 344.496094 L 287.945312 365.136719 L 240.125 344.496094 L 176.90625 370.835938 C 168.714844 374.25 163.378906 382.253906 163.378906 391.128906 L 163.378906 420.4375 C 163.378906 428.53125 169.941406 435.09375 178.03125 435.09375 L 397.855469 435.09375 C 405.949219 435.09375 412.511719 428.53125 412.511719 420.4375 L 412.511719 391.128906 C 412.511719 382.253906 407.175781 374.25 398.984375 370.835938 Z M 398.984375 370.835938 " fill-opacity="1" fill-rule="nonzero"/><path fill="#d29b6e" d="M 324.582031 312.359375 L 251.308594 312.359375 L 251.308594 330.066406 C 251.308594 335.980469 247.75 341.316406 242.289062 343.59375 L 232.078125 347.847656 C 310.222656 367.773438 324.582031 312.359375 324.582031 312.359375 Z M 324.582031 312.359375 " fill-opacity="1" fill-rule="nonzero"/><path fill="#a0d2f0" d="M 199.09375 399.183594 L 169.683594 375.789062 C 165.742188 379.816406 163.378906 385.265625 163.378906 391.128906 L 163.378906 420.4375 C 163.378906 428.53125 169.941406 435.09375 178.035156 435.09375 L 207.34375 435.09375 L 207.34375 416.347656 C 207.34375 409.667969 204.308594 403.355469 199.09375 399.183594 Z M 199.09375 399.183594 " fill-opacity="1" fill-rule="nonzero"/><path fill="#a0d2f0" d="M 412.511719 420.4375 L 412.511719 391.128906 C 412.511719 385.3125 410.1875 379.898438 406.304688 375.878906 L 376.796875 399.183594 C 371.582031 403.355469 368.546875 409.667969 368.546875 416.347656 L 368.546875 435.09375 L 397.855469 435.09375 C 405.949219 435.09375 412.511719 428.53125 412.511719 420.4375 Z M 412.511719 420.4375 " fill-opacity="1" fill-rule="nonzero"/><path fill="#a0d2f0" d="M 287.945312 420.4375 C 283.898438 420.4375 280.617188 417.15625 280.617188 413.109375 L 280.617188 365.152344 L 295.273438 365.152344 L 295.273438 413.109375 C 295.273438 417.15625 291.992188 420.4375 287.945312 420.4375 Z M 287.945312 420.4375 " fill-opacity="1" fill-rule="nonzero"/><path fill="#a0d2f0" d="M 287.945312 365.136719 L 246.007812 333.679688 C 243.316406 331.660156 239.476562 332.320312 237.613281 335.117188 L 229.324219 347.546875 L 255.039062 383.542969 C 256.992188 386.28125 260.84375 386.816406 263.46875 384.714844 Z M 287.945312 365.136719 " fill-opacity="1" fill-rule="nonzero"/><path fill="#a0d2f0" d="M 287.945312 365.136719 L 329.882812 333.679688 C 332.574219 331.660156 336.410156 332.320312 338.277344 335.117188 L 346.566406 347.546875 L 320.851562 383.542969 C 318.898438 386.28125 315.046875 386.816406 312.421875 384.714844 Z M 287.945312 365.136719 " fill-opacity="1" fill-rule="nonzero"/><path fill="#f0c087" d="M 324.582031 171.304688 C 287.945312 207.941406 216.042969 178.632812 216.042969 237.25 L 220.59375 280.429688 C 221.472656 290.089844 227.074219 298.691406 235.550781 303.398438 L 277.269531 326.578125 C 283.910156 330.265625 291.984375 330.265625 298.621094 326.578125 L 340.34375 303.398438 C 348.820312 298.6875 354.417969 290.089844 355.296875 280.429688 L 360.550781 229.148438 C 360.921875 225.503906 361.003906 221.835938 360.878906 218.179688 C 358.136719 199.527344 331.910156 185.957031 324.582031 171.304688 Z M 324.582031 171.304688 " fill-opacity="1" fill-rule="nonzero"/><path fill="#e6af78" d="M 216.042969 237.25 L 220.59375 280.429688 C 221.472656 290.089844 227.074219 298.691406 235.550781 303.398438 L 277.269531 326.578125 C 281.878906 329.136719 287.160156 329.800781 292.191406 328.808594 C 292.191406 328.808594 271.15625 322.433594 258.636719 288.542969 C 254.800781 278.160156 249.476562 223.207031 254.058594 216.492188 C 263.109375 203.214844 313.59375 201.835938 328.511719 177.207031 C 327.773438 176.292969 327.09375 175.375 326.472656 174.457031 C 326.421875 174.386719 326.359375 174.308594 326.3125 174.238281 C 325.664062 173.261719 325.074219 172.285156 324.582031 171.304688 C 287.945312 207.941406 216.042969 178.632812 216.042969 237.25 Z M 216.042969 237.25 " fill-opacity="1" fill-rule="nonzero"/><path fill="#a0d2f0" d="M 346.566406 420.4375 L 317.253906 420.4375 C 313.207031 420.4375 309.925781 423.71875 309.925781 427.765625 L 309.925781 435.09375 L 353.890625 435.09375 L 353.890625 427.765625 C 353.890625 423.71875 350.609375 420.4375 346.566406 420.4375 Z M 346.566406 420.4375 " fill-opacity="1" fill-rule="nonzero"/></svg>